<?xml version="1.0" standalone="no"?>
<!DOCTYPE svg PUBLIC "-//W3C//DTD SVG 20010904//EN"
 "http://www.w3.org/TR/2001/REC-SVG-20010904/DTD/svg10.dtd">
<svg version="1.0" xmlns="http://www.w3.org/2000/svg"
 width="700.000000pt" height="700.000000pt" viewBox="0 0 700.000000 700.000000"
 preserveAspectRatio="xMidYMid meet">
<metadata>
Created by potrace 1.14, written by Peter Selinger 2001-2017
</metadata>
<g transform="translate(0.000000,700.000000) scale(0.100000,-0.100000)"
fill="#000000" stroke="none">
<path d="M2289 6996 c-2 -2 -58 -7 -124 -10 -116 -7 -136 -8 -255 -21 -100
-11 -255 -35 -285 -45 -16 -5 -41 -11 -55 -14 -51 -8 -149 -37 -216 -61 -521
-195 -905 -547 -1134 -1040 -61 -132 -122 -321 -144 -445 -3 -19 -8 -46 -11
-60 -12 -60 -25 -155 -40 -299 -17 -163 -20 -405 -20 -1511 0 -1086 3 -1283
20 -1490 26 -296 91 -572 186 -784 272 -605 793 -1014 1459 -1145 58 -11 125
-23 150 -25 25 -3 72 -8 105 -11 33 -3 74 -8 90 -10 199 -29 2832 -29 2980 0
11 2 47 7 80 10 33 3 75 7 93 10 86 11 119 16 142 20 14 3 36 7 49 10 59 11
223 57 286 80 537 197 935 573 1158 1095 65 153 119 348 142 510 3 25 8 56 10
70 2 14 7 54 11 90 3 36 8 79 10 95 15 132 19 469 19 1510 0 1223 -2 1331 -35
1610 -46 384 -154 679 -362 989 -129 192 -359 407 -578 542 -170 104 -463 223
-615 249 -16 2 -41 7 -55 10 -53 12 -127 24 -179 30 -30 4 -61 8 -70 10 -9 1
-56 6 -106 10 -49 4 -110 10 -135 12 -54 6 -2566 14 -2571 9z"/>
</g>
</svg>
