<svg width="70" height="70" viewBox="0 0 70 70" fill="none" xmlns="http://www.w3.org/2000/svg">
<path fill-rule="evenodd" clip-rule="evenodd" d="M26.9208 0L43.0792 0C52.4402 0 55.8347 0.974669 59.2569 2.80489C62.6791 4.63512 65.3649 7.3209 67.1951 10.7431C69.0253 14.1653 70 17.5598 70 26.9208V43.0792C70 52.4402 69.0253 55.8347 67.1951 59.2569C65.3649 62.6791 62.6791 65.3649 59.2569 67.1951C55.8347 69.0253 52.4402 70 43.0792 70H26.9208C17.5598 70 14.1653 69.0253 10.7431 67.1951C7.3209 65.3649 4.63512 62.6791 2.80489 59.2569C0.974669 55.8347 0 52.4402 0 43.0792L0 26.9208C0 17.5598 0.974669 14.1653 2.80489 10.7431C4.63512 7.3209 7.3209 4.63512 10.7431 2.80489C14.1653 0.974669 17.5598 0 26.9208 0Z" fill="black"/>
<path d="M34.0521 39.1561H27.125L36.8229 19.7603V30.8436H43.75L34.0521 50.2394V39.1561Z" fill="#AFFF2C"/>
</svg>
