<svg width="110" height="19" viewBox="0 0 110 19" fill="none" xmlns="http://www.w3.org/2000/svg">
<path d="M43.1964 1.93502C43.1964 0.995634 43.9412 0.235837 44.858 0.235837C45.778 0.235837 46.5257 0.995634 46.5257 1.93502C46.5257 2.87319 45.778 3.63379 44.858 3.63379C43.9412 3.63379 43.1964 2.87319 43.1964 1.93502Z" fill="#273B7D"/>
<path d="M69.4636 13.2368C69.4636 12.297 70.2079 11.5364 71.1248 11.5364C72.0444 11.5364 72.7919 12.297 72.7919 13.2368C72.7919 14.1741 72.0444 14.9355 71.1248 14.9355C70.2079 14.9355 69.4636 14.1741 69.4636 13.2368Z" fill="#499FDD"/>
<path d="M15.8737 12.5025C14.4399 12.5025 13.4435 11.3433 13.4435 9.68679C13.4435 8.0307 14.4399 6.87227 15.8737 6.87227C17.3157 6.87227 18.323 8.0307 18.323 9.68679C18.323 11.3695 17.3367 12.5025 15.8737 12.5025ZM15.8737 4.3976C12.8403 4.3976 10.6389 6.62263 10.6389 9.68679C10.6389 12.751 12.8403 14.9756 15.8737 14.9756C18.9184 14.9756 21.129 12.751 21.129 9.68679C21.129 6.62263 18.9184 4.3976 15.8737 4.3976" fill="#273B7D"/>
<path d="M39.9721 9.95139C39.8541 9.7255 39.7189 9.53424 39.5749 9.38245L39.4832 9.28339L39.5797 9.18917C39.719 9.03979 39.8613 8.86262 39.9986 8.65728L42.6754 4.60623H39.4258L37.4146 7.77507C37.3007 7.94499 37.0709 8.03076 36.7268 8.03076H36.2684V2.03974C36.2684 0.841456 35.5351 0.67838 34.7429 0.67838H33.3867L33.3889 14.8198H36.2684V10.5779H36.5381C36.8663 10.5779 37.0899 10.6166 37.1924 10.7982L38.7808 13.8502C39.2245 14.6785 39.6667 14.8198 40.4985 14.8198H42.7052L41.0617 12.0524L39.9721 9.95139" fill="#273B7D"/>
<path d="M53.9506 4.37482C52.486 4.37482 51.5514 5.03717 51.0278 5.59726L50.8529 5.77725L50.7912 5.53244C50.6374 4.93248 50.1188 4.60231 49.3385 4.60231H48.048L48.056 14.8159H50.9159V10.1085C50.9159 9.64831 50.9747 9.24889 51.0942 8.88449C51.4126 7.78163 52.3005 7.09592 53.4104 7.09592C54.3031 7.09592 54.6519 7.57548 54.6519 8.81483V13.2633C54.6519 14.3211 55.1325 14.8159 56.1723 14.8159H57.5333L57.5287 8.31998C57.5287 5.73899 56.2922 4.37482 53.9514 4.37482" fill="#273B7D"/>
<path d="M44.896 4.60673H43.5405L43.5497 12.5039H43.5488V14.8183H44.9957C45.0139 14.8183 45.0285 14.8203 45.0467 14.8203L45.7206 14.8183H46.3915V14.8143H46.3961L46.4019 6.15734C46.4019 5.11287 45.9114 4.60674 44.897 4.60674" fill="#273B7D"/>
<path d="M27.1069 12.5025C25.6732 12.5025 24.6749 11.3433 24.6749 9.68679C24.6749 8.0307 25.6732 6.87227 27.1069 6.87227C28.5459 6.87227 29.556 8.0307 29.556 9.68679C29.556 11.3695 28.57 12.5025 27.1069 12.5025ZM27.1069 4.3976C24.0705 4.3976 21.8687 6.62263 21.8687 9.68679C21.8687 12.751 24.0705 14.9756 27.1069 14.9756C30.1485 14.9756 32.3627 12.751 32.3627 9.68679C32.3627 6.62263 30.1485 4.3976 27.1069 4.3976" fill="#273B7D"/>
<path d="M88.4077 12.5025C86.9746 12.5025 85.9755 11.3433 85.9755 9.68679C85.9755 8.0307 86.9746 6.87227 88.4077 6.87227C89.8469 6.87227 90.8575 8.0307 90.8575 9.68679C90.8575 11.3695 89.871 12.5025 88.4077 12.5025ZM88.4077 4.3976C85.372 4.3976 83.1701 6.62263 83.1701 9.68679C83.1701 12.751 85.372 14.9756 88.4077 14.9756C91.4496 14.9756 93.6633 12.751 93.6633 9.68679C93.6633 6.62263 91.4496 4.3976 88.4077 4.3976" fill="#499FDD"/>
<path d="M63.5588 12.0533C61.9953 12.0533 61.4387 10.6646 61.4387 9.36319C61.4387 8.78982 61.5812 6.92112 63.4085 6.92112C64.3167 6.92112 65.5269 7.18606 65.5269 9.45942C65.5269 11.6035 64.4559 12.0533 63.5588 12.0533V12.0533ZM67.0117 4.57972C66.469 4.57972 66.0514 4.79996 65.8421 5.20222L65.7631 5.35843L65.6305 5.24127C65.1689 4.83459 64.3413 4.35222 62.9972 4.35222C60.323 4.35222 58.5226 6.39688 58.5226 9.43969C58.5226 12.4789 60.3855 14.6029 63.051 14.6029C63.9614 14.6029 64.681 14.3866 65.2513 13.9469L65.472 13.7782V14.0621C65.472 15.4263 64.6054 16.1788 63.0344 16.1788C62.271 16.1788 61.5761 15.9896 61.1114 15.8181C60.5046 15.6316 60.149 15.7858 59.903 16.4055L59.676 16.9773L59.3548 17.8124L59.5538 17.9203C60.5592 18.4635 61.868 18.7876 63.051 18.7876C65.4866 18.7876 68.3304 17.5185 68.3304 13.9469L68.3408 4.57972H67.0122" fill="#273B7D"/>
<path d="M5.22293 12.3854L2.89493 12.383V9.54957C2.89493 8.94398 3.12554 8.6291 3.63531 8.55663H5.22293C6.35609 8.55663 7.08825 9.28422 7.08906 10.4612C7.08825 11.6691 6.37429 12.3846 5.22293 12.3854V12.3854ZM2.89493 4.74187V3.99616C2.89493 3.34347 3.16622 3.03303 3.76155 2.99316H4.95276C5.97439 2.99316 6.5863 3.61566 6.5863 4.65691C6.5863 5.45094 6.16743 6.37743 4.99033 6.37743H2.89493V4.74187V4.74187ZM8.19613 7.56967L7.77524 7.32889L8.14264 7.00918C8.56986 6.63513 9.28615 5.7944 9.28615 4.34164C9.28615 2.11901 7.59257 0.684369 4.97137 0.684369H1.98005V0.683565H1.63947C0.862348 0.712564 0.240568 1.35599 0.231873 2.15203V14.7682H1.60465C1.60813 14.769 1.6093 14.7682 1.61046 14.769L5.03045 14.7682C7.94428 14.7682 9.825 13.1536 9.825 10.6528C9.825 9.3063 9.21713 8.15512 8.1955 7.56967" fill="#273B7D"/>
<path d="M106.438 4.40799C105.252 4.40799 104.105 4.97371 103.368 5.92235L103.161 6.18971L102.998 5.89054C102.469 4.90727 101.557 4.40799 100.29 4.40799C98.9602 4.40799 98.0686 5.16295 97.6545 5.61191L97.3835 5.91067L97.2792 5.51769C97.128 4.95197 96.6333 4.64031 95.8838 4.64031H94.6818L94.6702 14.8145H97.4013V10.3233C97.4013 9.92992 97.4492 9.54055 97.546 9.13347C97.8071 8.04834 98.5235 6.88106 99.7278 6.99782C100.471 7.0703 100.833 7.65455 100.833 8.78318V14.8145H103.584V10.3233C103.584 9.83167 103.629 9.46365 103.738 9.09442C103.959 8.05841 104.707 6.99622 105.869 6.99622C106.71 6.99622 107.021 7.48101 107.021 8.78318V13.3271C107.021 14.355 107.471 14.8145 108.48 14.8145H109.766L109.768 8.31933C109.768 5.72465 108.646 4.40799 106.438 4.40799" fill="#499FDD"/>
<path d="M81.5888 11.2821C81.5807 11.2922 80.4054 12.5537 78.8581 12.5537C77.4484 12.5537 76.0242 11.6731 76.0242 9.70736C76.0242 8.0102 77.1284 6.82399 78.709 6.82399C79.2224 6.82399 79.8062 7.01122 79.8975 7.32609L79.911 7.37925C80.1214 8.09314 80.7587 8.1314 80.884 8.1314L82.3803 8.13305V6.80149C82.3803 5.04514 80.1858 4.40815 78.709 4.40815C75.5511 4.40815 73.2598 6.64647 73.2598 9.72875C73.2598 12.8098 75.5262 15.0449 78.6513 15.0449C81.3626 15.0449 82.837 13.2306 82.8508 13.2125L82.9296 13.1142L81.7446 11.1131L81.5888 11.2822" fill="#499FDD"/>
</svg>
