<svg width="120" height="18" viewBox="0 0 120 18" fill="none" xmlns="http://www.w3.org/2000/svg">
<g clip-path="url(#clip0_42_647)">
<path fill-rule="evenodd" clip-rule="evenodd" d="M4.17554 3.01003C6.44401 2.72084 12.8803 2.52172 11.1168 11.7076L13.117 11.5469C12.241 5.88487 14.0736 2.9977 19.8038 2.72084C10.2998 -2.47749 4.88834 2.91901 4.17554 3.01003V3.01003Z" fill="#FAC415"/>
<path fill-rule="evenodd" clip-rule="evenodd" d="M13.0233 10.2533C13.8114 12.3597 15.8567 13.7668 18.1304 13.7668C21.117 13.7668 23.5751 11.339 23.5751 8.38923C23.5751 5.43901 21.117 3.01123 18.1304 3.01123C17.4863 3.01123 16.8479 3.12406 16.2436 3.34451C13.4423 4.36758 11.9889 7.48563 13.0233 10.2533V10.2533Z" fill="white"/>
<path d="M6.06046 13.7462C9.06798 13.7462 11.5061 11.3382 11.5061 8.36773C11.5061 5.39728 9.06798 2.98926 6.06046 2.98926C3.05294 2.98926 0.614868 5.39728 0.614868 8.36773C0.614868 11.3382 3.05294 13.7462 6.06046 13.7462Z" fill="white"/>
<path d="M5.98227 9.3096C6.53817 9.3096 6.98883 8.8645 6.98883 8.31544C6.98883 7.76639 6.53817 7.32129 5.98227 7.32129C5.42636 7.32129 4.97571 7.76639 4.97571 8.31544C4.97571 8.8645 5.42636 9.3096 5.98227 9.3096Z" fill="#EE6946"/>
<path d="M18.1177 9.30913C18.6733 9.30913 19.1237 8.86425 19.1237 8.31546C19.1237 7.76666 18.6733 7.32178 18.1177 7.32178C17.562 7.32178 17.1116 7.76666 17.1116 8.31546C17.1116 8.86425 17.562 9.30913 18.1177 9.30913Z" fill="#00AF87"/>
<path fill-rule="evenodd" clip-rule="evenodd" d="M22.991 4.82634C23.2444 3.96683 23.6472 3.15757 24.1819 2.43507L20.1408 2.43175C17.7245 0.937436 14.9193 0.168473 12.0691 0.218726C9.14878 0.157095 6.27215 0.936014 3.79199 2.46019L0 2.46209C0.529919 3.17938 0.930719 3.98153 1.18512 4.83298C0.420479 5.8589 0.00767999 7.10052 0.00767999 8.37486C0.00767999 11.6527 2.7384 14.3497 6.05711 14.3497C7.89407 14.3497 9.63454 13.5229 10.7817 12.1054L12.0705 14.0112L13.3718 12.0893C14.5185 13.5353 16.2782 14.381 18.1377 14.381C21.4588 14.381 24.192 11.6816 24.192 8.40141C24.192 7.11332 23.7705 5.8589 22.991 4.82634ZM17.9376 2.41515C14.8613 2.50333 12.3216 4.9022 12.0945 7.93349C11.8656 4.8728 9.28846 2.45735 6.18191 2.39192C8.04671 1.62675 10.0497 1.24227 12.0691 1.26124C14.0856 1.23137 16.0862 1.62438 17.9376 2.41515V2.41515ZM6.06047 13.1413H6.05999C3.40847 13.1413 1.22688 10.9866 1.22688 8.36775C1.22688 5.74844 3.40847 3.59373 6.05999 3.59373C8.71151 3.59373 10.8936 5.74844 10.8936 8.36775V8.36869C10.8902 10.9861 8.71055 13.1384 6.06047 13.1413V13.1413ZM19.8048 12.8706C17.3174 13.7761 14.5157 12.5013 13.596 10.0451V10.0436C13.3987 9.51455 13.2974 8.95561 13.2974 8.39192C13.2974 5.77261 15.4795 3.6179 18.131 3.6179C20.783 3.6179 22.9646 5.77261 22.9646 8.39192C22.9646 10.3864 21.6993 12.1799 19.8048 12.8706ZM5.98607 5.36158H5.98175C4.34063 5.36158 2.99088 6.69518 2.99088 8.3156C2.99088 9.93649 4.34063 11.2696 5.98175 11.2696C7.62239 11.2696 8.97263 9.93649 8.97263 8.3156V8.31512C8.96975 6.69755 7.62383 5.36632 5.98607 5.36158V5.36158ZM5.98607 10.2522H5.98223C4.90655 10.2522 4.02095 9.37802 4.02095 8.3156C4.02095 7.25318 4.90655 6.37897 5.98223 6.37897C7.05743 6.37897 7.94255 7.25318 7.94303 8.31512C7.94063 9.37565 7.05935 10.2475 5.98607 10.2522V10.2522ZM18.1176 5.36158H18.1161C16.475 5.36158 15.1253 6.69518 15.1253 8.3156C15.1253 9.93649 16.475 11.2696 18.1161 11.2696C19.7568 11.2696 21.107 9.93649 21.107 8.3156V8.31512C21.1046 6.69613 19.7568 5.36443 18.1176 5.36158V5.36158ZM18.1176 10.2522H18.1166C17.0409 10.2522 16.1558 9.37802 16.1558 8.3156C16.1558 7.25318 17.0409 6.37897 18.1166 6.37897C19.1923 6.37897 20.0774 7.25318 20.0779 8.31512C20.0764 9.37707 19.1923 10.2503 18.1176 10.2522Z" fill="black"/>
<path fill-rule="evenodd" clip-rule="evenodd" d="M85.8859 1.75944C85.8859 2.39092 86.4124 2.91005 87.0513 2.91005C87.6911 2.91005 88.2172 2.39045 88.2172 1.75897C88.2172 1.12702 87.6911 0.607422 87.0518 0.607422C86.4119 0.60837 85.8859 1.12797 85.8859 1.75944V1.75944Z" fill="#00AF87"/>
<path fill-rule="evenodd" clip-rule="evenodd" d="M30.5123 1.68024L28.7463 2.28137V4.55982H26.787V6.08731H28.6897V10.9908C28.6897 13.3251 29.4956 14.2762 31.4694 14.2762C31.9623 14.2776 32.4534 14.2141 32.9295 14.0865L33.0068 14.0661L32.9847 12.4841L32.8489 12.5311C32.5532 12.6477 32.2398 12.7155 31.922 12.7316C30.9951 12.7316 30.65 12.2139 30.65 10.8234V6.08731H32.9113V4.55982H30.65V1.6333L30.5123 1.68024ZM36.6246 6.10675V4.55982H34.8337V14.1093H36.7935V9.31582C36.7935 7.30523 37.6475 6.19825 39.1974 6.19825C39.4364 6.20062 39.6745 6.23713 39.903 6.30634L40.0316 6.34237L40.095 4.45599L39.2526 4.39199C38.1121 4.39863 37.0787 5.07325 36.6246 6.10675V6.10675ZM50.6156 4.33605C49.2994 4.32609 48.0711 5.00119 47.3852 6.11054V4.55982H45.5938V18.0001H47.5546V12.7885C48.2415 13.7362 49.3623 14.2871 50.5417 14.2567C53.0204 14.2567 54.6217 12.2518 54.6217 9.148C54.6217 6.26984 53.0122 4.33605 50.6156 4.33605V4.33605ZM50.0703 12.6937C48.5194 12.6937 47.5546 11.3852 47.5546 9.2779C47.5546 7.24882 48.5722 5.9375 50.1462 5.9375C51.662 5.9375 52.5668 7.17913 52.5668 9.26036C52.5668 11.3781 51.6102 12.6937 50.0703 12.6937V12.6937Z" fill="black"/>
<path fill-rule="evenodd" clip-rule="evenodd" d="M60.3488 4.33597C59.24 4.317 58.1418 4.55025 57.1386 5.01675L57.0776 5.04472L57.0997 6.69738L57.2524 6.61299C58.0343 6.14317 58.9256 5.87864 59.84 5.8445C61.2594 5.8445 62.073 6.64855 62.073 8.05041V8.13243H60.9527C57.7252 8.13243 55.9492 9.28682 55.9492 11.3823C55.9492 13.0638 57.2303 14.2391 59.0672 14.2391C60.3018 14.2846 61.4802 13.7167 62.2045 12.7282V14.1092H63.9776V8.32822C63.9776 5.67905 62.7575 4.33597 60.3488 4.33597V4.33597ZM62.073 10.0785C62.073 11.7246 61.0712 12.786 59.5189 12.786L59.4061 12.7903C58.5844 12.7903 57.908 12.1228 57.908 11.3112L57.9085 11.2879C57.9085 10.1297 59.0293 9.49257 61.065 9.49257H62.073V10.0785ZM72.3061 0V5.85588C71.6264 4.87453 70.485 4.30041 69.2816 4.33597C66.8864 4.33597 65.2775 6.28492 65.2775 9.18489C65.2775 12.1716 66.908 14.2566 69.2442 14.2566C70.5632 14.2894 71.7992 13.6038 72.4568 12.4741V14.1092H74.2669V0H72.3061V0ZM69.7539 12.6557C68.2597 12.6557 67.3319 11.369 67.3319 9.29678C67.3319 7.22219 68.2679 5.88195 69.7155 5.88195C71.3379 5.88195 72.3061 7.15866 72.3061 9.29678C72.3061 11.3377 71.3038 12.6557 69.7539 12.6557ZM83.0278 4.55973L80.2462 10.071L77.6778 4.55973H75.4678L80.2069 14.1092L85.0745 4.55973H83.0278ZM87.9315 4.55973H86.0739V14.1092H88.0357V4.55973H87.9315ZM90.3339 7.0079C90.3339 8.3524 91.2689 9.05926 92.9931 9.8908C94.0812 10.4194 94.6505 10.7299 94.6505 11.4747C94.6505 12.2366 93.9502 12.7315 92.8688 12.7315C92.0115 12.7092 91.1705 12.4964 90.4083 12.1076L90.2643 12.0389L90.199 13.7214L90.2677 13.7489C91.0721 14.0618 91.9289 14.2216 92.7939 14.2206C95.1915 14.2206 96.7414 13.0918 96.7414 11.3443C96.7414 9.88701 95.7598 9.14934 94.062 8.36568C92.816 7.78967 92.2952 7.4507 92.2952 6.84008C92.2952 6.25743 92.8745 5.88195 93.7731 5.88195C94.5862 5.88243 95.3892 6.06353 96.1222 6.41198L96.2624 6.47788L96.3512 4.82854L96.272 4.80484C95.4982 4.57348 94.6947 4.45354 93.8864 4.44738C91.7614 4.44738 90.3339 5.47614 90.3339 7.0079ZM102.856 4.33597C99.9094 4.33597 98.0792 6.25126 98.0792 9.33423C98.0792 12.4177 99.9094 14.333 102.856 14.333C105.815 14.333 107.654 12.4177 107.654 9.33423C107.654 6.25126 105.815 4.33597 102.856 4.33597ZM102.875 12.75C101.248 12.75 100.152 11.369 100.152 9.31574C100.152 7.25111 101.248 5.86346 102.875 5.86346C104.53 5.86346 105.599 7.21745 105.599 9.31574C105.599 11.4017 104.53 12.75 102.875 12.75ZM111.271 6.10667V4.55973H109.481V14.1092H111.44V9.31574C111.44 7.30515 112.295 6.19817 113.844 6.19817C114.083 6.20054 114.321 6.23657 114.549 6.30626L114.678 6.34229L114.742 4.45591L113.9 4.39191C112.759 4.39902 111.726 5.07317 111.271 6.10667V6.10667Z" fill="#00AF87"/>
<path fill-rule="evenodd" clip-rule="evenodd" d="M43.5899 4.55938H41.7318V14.1088H43.6935V4.55938H43.5899ZM41.5427 1.75944C41.5431 2.3914 42.0692 2.91099 42.7091 2.91099C43.3489 2.91099 43.875 2.39092 43.875 1.75897C43.875 1.12749 43.3489 0.607422 42.7091 0.607422C42.0697 0.60837 41.5436 1.12797 41.5427 1.75944V1.75944Z" fill="black"/>
<path fill-rule="evenodd" clip-rule="evenodd" d="M119.51 3.20956C119.829 3.53241 120.006 3.96809 120 4.41942C120.007 4.88212 119.819 5.32729 119.481 5.64729C119.152 5.96683 118.709 6.14745 118.247 6.15077C117.777 6.15077 117.327 5.96019 117.003 5.62359C116.682 5.30358 116.501 4.87075 116.5 4.41942C116.501 3.9515 116.693 3.50349 117.031 3.1759C117.354 2.85921 117.792 2.68285 118.247 2.68712C118.723 2.6819 119.18 2.87106 119.51 3.20956V3.20956ZM117.253 3.39919C116.977 3.66847 116.822 4.03636 116.822 4.41942C116.828 5.19028 117.466 5.82365 118.247 5.83219C118.626 5.83171 118.989 5.68522 119.261 5.42447C119.814 4.8788 119.822 3.98326 119.279 3.42764C119.011 3.15267 118.639 2.99812 118.253 3.00049C117.879 2.9948 117.518 3.13892 117.253 3.39919V3.39919ZM118.28 3.4319C118.833 3.4319 119.112 3.62722 119.112 3.98231C119.115 4.22599 118.944 4.44075 118.703 4.49527L119.13 5.32918H118.55L118.19 4.57587H118.035V5.32918H117.508V3.4319H118.28ZM118.035 4.26724H118.224C118.454 4.26724 118.569 4.18617 118.569 4.02071C118.569 3.83582 118.449 3.75997 118.195 3.75997H118.035V4.26724Z" fill="#00AF87" fill-opacity="0.5"/>
</g>
<defs>
<clipPath id="clip0_42_647">
<rect width="120" height="18" fill="white"/>
</clipPath>
</defs>
</svg>
