<svg width="58" height="17" viewBox="0 0 58 17" fill="none" xmlns="http://www.w3.org/2000/svg">
<path fill-rule="evenodd" clip-rule="evenodd" d="M5.4593 14.5323C5.56479 14.4913 5.71147 14.1317 5.78539 13.7333C5.90242 13.1019 5.84555 12.9532 5.34234 12.5741C5.02488 12.3348 4.8044 12.0873 4.85235 12.0237C4.90045 11.9601 4.8654 11.8523 4.77476 11.784C4.68397 11.7156 4.58127 11.4558 4.54651 11.2064C4.48699 10.7821 4.46695 10.7677 4.23232 10.9798C3.90555 11.2752 3.49659 10.7274 3.40741 9.87463C3.37187 9.53406 3.24387 9.18108 3.12322 9.09016C3.00258 8.99925 2.89612 8.75598 2.88649 8.54944C2.86412 8.06686 2.49584 7.78717 2.27269 8.08329C2.17436 8.21379 2.03379 7.78176 1.94534 7.07692C1.78644 5.81051 1.8558 5.38644 2.14568 5.85054C2.25944 6.03288 2.38452 6.01385 2.55426 5.7886C2.68882 5.61003 2.88198 5.5266 2.98354 5.60313C3.12712 5.71132 3.15811 5.67019 3.12286 5.41825C3.09792 5.24003 3.15588 4.99022 3.25166 4.86311C3.38715 4.68331 3.4359 4.70411 3.47116 4.95604C3.53498 5.41212 4.03635 5.74283 4.24464 5.46643C4.34042 5.33933 4.48588 5.28589 4.5679 5.3477C4.64977 5.40939 4.60091 5.53249 4.45902 5.62122C4.31727 5.71006 4.13697 6.05755 4.05845 6.39356C3.87708 7.17022 4.35491 7.82547 4.99044 7.67174C5.42346 7.56711 5.44143 7.58041 5.50398 8.04906C5.53962 8.3165 5.47721 8.57093 5.36532 8.6144C5.00938 8.75345 5.49302 8.96137 6.13961 8.94762C6.4826 8.94037 6.823 8.97948 6.89625 9.03468C6.96949 9.08987 6.92487 9.27365 6.79716 9.44312C6.59933 9.70565 6.6676 9.8286 7.25745 10.2731C7.63832 10.5601 7.98964 10.7422 8.03805 10.678C8.08658 10.6136 8.34063 10.5796 8.60277 10.6025C8.95032 10.6328 9.00912 10.6713 8.82039 10.745C8.62173 10.8226 8.74092 10.9366 9.33114 11.2343C9.75459 11.4478 10.4542 11.9102 10.8857 12.262C11.3563 12.6456 11.7195 12.8364 11.7932 12.7386C11.8606 12.649 12.0502 12.6769 12.2146 12.8008C12.3789 12.9246 12.6099 12.9883 12.7279 12.9422C12.846 12.8962 12.977 12.9468 13.019 13.055C13.0611 13.1631 13.1539 13.174 13.2253 13.0793C13.3018 12.9778 13.3955 13.0177 13.4535 13.1766C13.6196 13.6312 14.2916 14.0258 14.7853 13.9585C15.0632 13.9205 15.3298 14.0153 15.4396 14.1913C15.5752 14.4087 15.6483 14.4075 15.7116 14.1871C15.7774 13.9579 15.872 13.9672 16.1063 14.2258C16.3005 14.4403 16.633 14.5431 17.006 14.5038C17.3313 14.4697 17.7298 14.5412 17.8912 14.6629C18.0526 14.7845 18.641 15.0571 19.1986 15.2686C19.903 15.5358 20.273 15.5748 20.4099 15.3963C20.5574 15.2043 20.6012 15.2134 20.5833 15.4328C20.5552 15.7807 21.3164 16.0596 21.9097 15.919C22.1169 15.8698 22.354 15.9378 22.4366 16.0701C22.5191 16.2024 23.0126 16.2506 23.5332 16.1771C24.1348 16.092 24.5607 16.146 24.7022 16.3252C24.8248 16.4801 25.1848 16.5794 25.5023 16.5461C25.8198 16.5127 26.1727 16.5554 26.2863 16.641C26.5464 16.837 29.2297 17.0391 30.0823 16.927C30.4339 16.8808 30.7813 16.888 30.8544 16.9431C30.9275 16.9982 31.2041 17.0127 31.4695 16.9752C31.7346 16.9378 32.3567 16.9046 32.852 16.9015C33.3471 16.8983 33.8492 16.7674 33.9672 16.6107C34.1041 16.429 34.2378 16.415 34.3358 16.572C34.5368 16.8938 37.7529 16.476 38.5335 16.0266C38.8694 15.8333 39.237 15.7716 39.3856 15.8836C39.7154 16.1321 40.5593 15.8671 40.9068 15.4059C41.0521 15.213 41.2413 15.108 41.3272 15.1727C41.6154 15.3899 43.1434 14.9787 43.6137 14.5572C43.8699 14.3278 44.2118 14.1779 44.3735 14.2242C44.5868 14.2854 44.7352 14.1608 44.9143 13.7698C45.1177 13.326 45.1915 13.2799 45.334 13.5078C45.4457 13.6867 45.5703 13.6997 45.6873 13.5444C45.7868 13.4123 46.0072 13.3223 46.1772 13.3441C46.3471 13.3659 46.6146 13.2631 46.7716 13.1157C46.9285 12.9682 47.2126 12.8212 47.4026 12.789C47.5929 12.7567 47.8231 12.6312 47.9142 12.5102C48.0055 12.3891 48.1535 12.3454 48.2431 12.4129C48.3353 12.4823 48.4166 12.4125 48.4305 12.2522C48.476 11.7263 49.2431 11.1893 50.7985 10.5944C51.1892 10.4451 51.6666 10.0543 52.03 9.58638C52.3825 9.13239 52.9242 8.68309 53.3644 8.47928C54.1836 8.10014 54.8188 7.3693 55.0649 6.52307C55.1775 6.13543 55.2868 5.98976 55.4289 6.03744C55.5709 6.085 55.6519 5.97677 55.6989 5.67688C55.7465 5.37166 55.8591 5.22608 56.09 5.17132C56.3312 5.11415 56.4001 4.99263 56.3588 4.69748C56.3174 4.40111 56.3811 4.28941 56.6098 4.25714C56.8387 4.22482 56.8701 4.17894 56.7336 4.07608C56.633 4.00025 56.7155 3.6276 56.9167 3.24783C57.1375 2.8313 57.1989 2.49426 57.0715 2.39824C56.9239 2.28704 57.0175 2.03069 57.3828 1.54584C57.8044 0.986412 57.8526 0.81426 57.6323 0.654529C57.2512 0.378015 56.4405 0.392218 56.6331 0.67192C56.7235 0.803316 56.6016 1.08997 56.3142 1.42227C56.0584 1.71818 55.9205 2.01398 56.0079 2.07984C56.2222 2.24138 55.2474 3.50906 54.6654 3.82555C54.2936 4.02755 54.1703 4.21994 54.0623 4.76635C53.97 5.23305 53.8494 5.446 53.6858 5.43095C53.5533 5.41881 53.4357 5.50962 53.4242 5.6331C53.4126 5.7563 53.0275 5.98565 52.5682 6.14272C51.8614 6.3843 51.7159 6.50604 51.6204 6.93531C51.5265 7.35803 51.4806 7.39934 51.3456 7.1831C51.1985 6.94736 50.7167 7.12125 50.299 7.56089C50.2254 7.63832 49.9382 7.83664 49.6606 8.00139C49.383 8.16614 49.0853 8.39472 48.999 8.50934C48.9127 8.62382 48.7289 8.68749 48.5908 8.65081C48.3979 8.59942 48.3593 8.64644 48.4245 8.85327C48.485 9.04505 48.2433 9.1571 47.5842 9.24256C46.9548 9.3241 46.6196 9.4737 46.5363 9.71001C46.4637 9.91618 46.1922 10.0966 45.8683 10.154C45.0127 10.3059 44.5139 10.8552 44.6738 11.4692C44.7901 11.9156 44.771 11.9605 44.5371 11.7889C44.3877 11.6792 44.1859 11.6948 44.0889 11.8234C43.9588 11.9961 43.8308 11.9562 43.6007 11.6709C43.4115 11.4363 43.2307 11.3458 43.1409 11.4407C43.0596 11.5265 42.9235 11.6532 42.8384 11.722C42.7533 11.7907 42.623 11.9099 42.5485 11.9866C42.4741 12.0633 42.3093 12.0479 42.1824 11.9522C42.0554 11.8566 41.8962 11.8518 41.8286 11.9415C41.761 12.0311 41.7977 12.1131 41.9102 12.1235C42.0227 12.1336 41.9788 12.2499 41.8128 12.3812C41.6466 12.5128 41.452 12.5324 41.3801 12.4248C41.2158 12.1783 40.5002 12.1748 40.2168 12.4192C40.0988 12.5209 39.8043 12.6031 39.5624 12.6019C39.2454 12.6003 39.0671 12.7306 38.9241 13.0689C38.7614 13.4535 38.7112 13.4775 38.6464 13.2024C38.5836 12.9364 38.2305 12.9005 36.9498 13.0292C36.0602 13.1186 35.2678 13.2787 35.1889 13.3854C35.1099 13.4919 34.9894 13.5371 34.9211 13.4856C34.7232 13.3365 32.3512 13.6324 32.2065 13.8244C32.1344 13.9201 31.8114 14.0356 31.4885 14.0812C31.1 14.136 30.9959 14.1052 31.1804 13.9896C31.6783 13.6783 31.2011 13.3673 30.3628 13.4568C29.913 13.5049 29.3342 13.4931 29.0766 13.4306C28.3826 13.262 27.7364 13.2259 27.4335 13.3387C27.2861 13.3935 27.0475 13.35 26.9036 13.2415C26.7596 13.1333 26.3101 13.0663 25.9045 13.0926C25.499 13.1191 25.0397 13.0445 24.8835 12.9268C24.7274 12.8092 24.5213 12.817 24.4255 12.9441C24.3155 13.0901 24.1044 13.0644 23.8519 12.8741C23.6323 12.7087 23.1907 12.5382 22.8706 12.4955C22.5506 12.4527 21.857 12.3066 21.329 12.1706C20.8011 12.0346 20.3151 11.9953 20.2491 12.083C20.1829 12.1708 19.9977 12.1438 19.8375 12.0231C19.6773 11.9023 19.4294 11.8766 19.2865 11.966C19.1436 12.0555 18.9594 12.021 18.8773 11.8894C18.7952 11.7579 18.4839 11.5797 18.1855 11.4932C17.7558 11.3687 17.6067 11.4215 17.4678 11.7473C17.3713 11.9734 17.3181 12.0418 17.3492 11.8993C17.4171 11.5898 16.9218 11.1752 16.6231 11.2917C16.5069 11.337 16.256 11.2653 16.0656 11.1322C15.8752 10.9991 15.7794 10.9905 15.8531 11.1129C16.0394 11.4231 15.8226 11.6547 15.5432 11.4442C15.4162 11.3485 15.2617 11.3374 15.1998 11.4195C15.1381 11.5015 15.0137 11.4505 14.9234 11.3061C14.7305 10.9973 15.0013 10.5527 15.2625 10.7495C15.3611 10.8239 15.4307 10.8045 15.4171 10.7064C15.4034 10.6083 15.1583 10.5493 14.8726 10.575C14.5786 10.6018 14.4112 10.545 14.4871 10.4443C14.6514 10.2263 14.1053 9.78428 13.8126 9.89856C13.6965 9.94387 13.4671 9.87973 13.3028 9.75588C13.0824 9.58983 12.917 9.6396 12.6726 9.94533L12.3412 10.3599L12.4965 9.84765C12.6216 9.43512 12.5646 9.29268 12.2032 9.11527C11.9567 8.99395 11.6475 8.96199 11.5162 9.04415C11.385 9.12627 11.2454 9.11018 11.2059 9.00864C11.1663 8.9071 10.9376 8.79345 10.6975 8.75629C10.3981 8.70988 10.2992 8.63779 10.3826 8.52717C10.5328 8.3278 9.13851 7.54982 8.83046 7.66118C8.7141 7.70321 8.57212 7.61724 8.51478 7.47016C8.44788 7.298 8.4024 7.29368 8.38713 7.45803C8.35551 7.79871 6.88513 6.5303 6.82656 6.11176C6.76572 5.67701 6.21511 5.3063 6.12033 5.63634C6.0657 5.82635 5.91591 5.80164 5.60727 5.55167C5.36755 5.3575 5.23237 5.11747 5.3066 5.01832C5.3811 4.91914 5.47947 4.70727 5.52542 4.54768C5.58149 4.35225 5.8035 4.31953 6.20386 4.44779C6.84447 4.65297 7.02235 4.55971 6.95173 4.05503C6.91712 3.80768 7.0347 3.79604 7.46741 4.00399C7.77573 4.15226 8.1511 4.24357 8.30149 4.20665C8.78432 4.08907 10.0441 2.46919 9.7974 2.2833C9.54057 2.08976 8.55024 2.70055 8.49748 3.08497C8.43287 3.5578 8.23498 3.39202 8.24282 2.87157C8.24858 2.48677 8.20083 2.45441 7.4553 2.33852C6.91563 2.25457 6.52937 2.33235 6.24857 2.5814C5.99679 2.80474 5.7817 2.86126 5.69742 2.72625C5.51911 2.44067 4.96888 2.87052 5.02246 3.25342C5.07173 3.60554 4.36567 3.64283 3.68769 3.32397C3.14099 3.06684 2.22269 3.49784 2.24609 4.00052C2.25746 4.24702 2.21355 4.29824 2.07844 4.19642C1.9681 4.11328 1.84421 4.20374 1.76644 4.42413C1.69562 4.62536 1.53198 4.78008 1.40286 4.76829C1.03426 4.73427 0.830363 5.13837 1.12339 5.32198C1.42985 5.51402 1.43052 6.25369 1.12409 6.29694C1.00989 6.31306 0.929004 6.17578 0.944139 5.99177C0.964022 5.75119 0.929009 5.71248 0.819576 5.85418C0.498283 6.27031 0.663064 7.49018 1.11953 8.07643C1.3895 8.42287 1.51428 8.76956 1.41595 8.90006C1.22763 9.14996 1.42798 9.38548 1.72911 9.26794C1.83537 9.2265 1.8617 9.09199 1.78775 8.96888C1.69643 8.81696 1.73153 8.79824 1.89738 8.91017C2.03179 9.00107 2.21418 9.29915 2.30285 9.57274C2.40612 9.89066 2.51201 10.0069 2.59664 9.89461C2.66944 9.79801 2.79261 9.8145 2.87062 9.93126C2.94836 10.0481 2.91502 10.2348 2.79611 10.3461C2.53494 10.5909 2.62133 10.9741 3.0927 11.662C3.38139 12.0831 3.5125 12.1554 3.80788 12.0547C4.12957 11.9454 4.14423 11.9676 3.94059 12.2545C3.48239 12.9003 3.95572 13.7005 4.69251 13.5257C5.02453 13.4469 5.07762 13.5026 5.16697 14.0222C5.22219 14.344 5.35386 14.5736 5.4593 14.5323ZM6.51648 14.5724C6.70624 14.5876 6.79339 14.5158 6.74283 14.3857C6.69747 14.2692 6.54278 14.2478 6.39872 14.3378C6.09634 14.5271 6.1024 14.5389 6.51648 14.5724ZM8.03645 8.86727C8.15895 8.79339 8.12852 8.90645 7.96888 9.1183C7.80925 9.33014 7.70907 9.39041 7.7462 9.25244C7.7833 9.1142 7.91391 8.94088 8.03645 8.86727ZM11.0888 9.89296C11.172 9.88123 11.1936 10.0316 11.137 10.2271C11.0549 10.5095 11.024 10.514 10.9858 10.2484C10.9594 10.0645 11.0058 9.90455 11.0888 9.89296ZM17.0074 12.4268C17.152 12.3364 17.2975 12.283 17.3307 12.308C17.3639 12.3331 17.3128 12.4576 17.217 12.5847C17.1212 12.7118 16.9758 12.7653 16.8938 12.7035C16.8119 12.6418 16.863 12.5172 17.0074 12.4268ZM16.2685 11.7037C16.4101 11.6179 16.4191 11.6819 16.2912 11.867C16.1754 12.0344 16.0706 12.0979 16.0581 12.0083C16.0455 11.9186 16.1402 11.7815 16.2685 11.7037ZM51.6927 7.56931C51.8093 7.22257 52.0835 7.5205 51.9798 7.88153C51.9242 8.0747 51.8367 8.1194 51.7526 7.99704C51.6774 7.88773 51.6503 7.69535 51.6927 7.56931Z" fill="white"/>
</svg>
