<svg width="64" height="64" viewBox="0 0 64 64" fill="none" xmlns="http://www.w3.org/2000/svg">
<path fill-rule="evenodd" clip-rule="evenodd" d="M24.6133 0L39.3867 0C47.9453 0 51.0488 0.891126 54.1777 2.56447C57.3066 4.23782 59.7622 6.69339 61.4355 9.82228C63.1089 12.9512 64 16.0547 64 24.6133V39.3867C64 47.9453 63.1089 51.0488 61.4355 54.1777C59.7622 57.3066 57.3066 59.7622 54.1777 61.4355C51.0488 63.1089 47.9453 64 39.3867 64H24.6133C16.0547 64 12.9512 63.1089 9.82228 61.4355C6.69339 59.7622 4.23782 57.3066 2.56447 54.1777C0.891126 51.0488 0 47.9453 0 39.3867L0 24.6133C0 16.0547 0.891126 12.9512 2.56447 9.82228C4.23782 6.69339 6.69339 4.23782 9.82228 2.56447C12.9512 0.891126 16.0547 0 24.6133 0Z" fill="#2D5BFF"/>
<path d="M30.7332 35.7997H24.3999L33.2666 18.0664V28.1997H39.5999L30.7332 45.9331V35.7997Z" fill="white"/>
</svg>
