<svg width="34" height="25" viewBox="0 0 34 25" fill="none" xmlns="http://www.w3.org/2000/svg">
<path fill-rule="evenodd" clip-rule="evenodd" d="M13.4605 8.18306L10.7887 5.52704C8.98681 7.31057 7.87012 9.778 7.87012 12.5004C7.87012 15.223 8.98903 17.6847 10.7887 19.4765L13.4605 16.8169C12.7831 16.1421 12.2606 15.3092 11.9559 14.3808H22.0444C21.7397 15.3092 21.2172 16.1421 20.5376 16.8169L23.2116 19.4765C25.0149 17.6847 26.1277 15.223 26.1277 12.5004C26.1277 9.778 25.0149 7.31057 23.2116 5.52704L20.5376 8.18306C21.2172 8.8576 21.7397 9.6921 22.0444 10.6202H11.9559C12.2606 9.6921 12.7831 8.8576 13.4605 8.18306Z" fill="black"/>
<path fill-rule="evenodd" clip-rule="evenodd" d="M26.1003 2.65713C28.6429 5.17934 30.213 8.66106 30.213 12.5004C30.213 16.3398 28.6429 19.8229 26.1003 22.3382L28.7738 25C32.0033 21.7958 33.9998 17.3753 33.9998 12.5004C33.9998 7.62475 32.0033 3.20502 28.7738 0L26.1003 2.65713ZM7.8973 2.65713L5.22355 0C1.9988 3.20502 0 7.62475 0 12.5004C0 17.3753 1.9988 21.7958 5.22355 25L7.90201 22.3429C5.35943 19.8229 3.78684 16.3398 3.78684 12.5004C3.78684 8.66216 5.35943 5.17934 7.8973 2.65713Z" fill="black"/>
</svg>
