<svg width="129" height="70" viewBox="0 0 129 70" fill="none" xmlns="http://www.w3.org/2000/svg">
<mask id="mask0_22_621" style="mask-type:alpha" maskUnits="userSpaceOnUse" x="0" y="0" width="83" height="52">
<path fill-rule="evenodd" clip-rule="evenodd" d="M0 0H82.7264V51.8963H0V0Z" fill="white"/>
</mask>
<g mask="url(#mask0_22_621)">
<path fill-rule="evenodd" clip-rule="evenodd" d="M82.4568 0.00158455H62.6382C55.3437 0.00158455 51.3257 2.81816 51.3257 7.74839C51.3257 11.1777 54.5518 13.8889 58.8551 14.6696C54.4016 14.9445 49.6735 17.7857 49.6735 23.6026V27.4526C49.6735 30.1687 48.5474 30.4455 47.7698 30.4371C46.949 30.4283 46.2967 30.0283 45.8445 29.118L45.7182 28.8643L45.1564 29.1515L45.2919 29.4081C46.1787 31.0947 47.6841 31.3829 49.1846 31.4144C53.7639 31.5105 56.6582 28.5707 56.6582 23.4085V20.6042C56.6582 16.8759 58.5561 15.0642 62.5486 15.0642H62.9166C63.0865 15.0642 63.224 14.9258 63.224 14.7553C63.224 14.5844 63.0865 14.446 62.9166 14.446C59.2892 14.3642 57.8284 12.0624 57.8284 7.52328H57.8289C57.8768 2.94032 59.4023 0.616817 63.1178 0.616817H64.8302V30.1529H61.0584V30.7672H75.1394V30.1529H71.3676V15.0642H71.833C73.6981 15.0642 75.3679 15.5612 76.542 17.8069C77.4914 19.623 77.5149 22.0583 77.5164 22.0761H78.1399V7.43807H77.5164C77.5149 7.45629 77.4914 9.87289 76.542 11.6885C75.3679 13.9347 73.6981 14.4499 71.833 14.4499H71.3676V0.616817H72.7085C81.5539 0.616817 81.8657 8.26511 82.1059 11.3955H82.7265V0.000106812L82.4568 0.00158455" fill="black"/>
<path fill-rule="evenodd" clip-rule="evenodd" d="M1.29661 43.332C1.29661 42.7587 1.28143 42.3557 1.2506 42.169C1.22026 41.9986 0.988774 41.8429 0.941792 41.8277C0.726946 41.7503 0.233632 41.7503 0.0329788 41.7351L-0.0291748 41.6725V41.3784L0.0329788 41.3159C0.233632 41.3159 0.988774 41.3784 2.54506 41.3784C3.36236 41.3784 4.34849 41.3159 4.94996 41.3159C6.32175 41.3159 7.53937 42.0759 7.53937 43.6276C7.53937 45.5043 5.99777 46.0949 5.58178 46.219L4.82664 46.4515L4.76448 46.5441C5.2578 47.2579 8.00087 50.8724 8.44818 51.3537L9.04965 51.4773L9.11181 51.5399V51.8344L9.04965 51.897C8.92633 51.897 8.47902 51.8344 8.04786 51.8344C7.75422 51.8344 7.24573 51.8497 6.92273 51.897C6.25959 50.6242 4.05534 47.4909 3.00754 46.4515L3.1157 46.2033C4.67248 46.2033 6.19842 45.8466 6.19842 43.9537C6.19842 42.4478 5.31995 41.8592 3.93299 41.8592C3.3467 41.8592 2.88421 41.9208 2.65273 42.0144C2.59155 42.4478 2.54506 43.0379 2.54506 43.4724V49.8794C2.54506 50.4537 2.56023 50.8572 2.59155 51.0438C2.62239 51.2138 2.85387 51.369 2.89939 51.3842C3.1157 51.4621 3.60901 51.4621 3.80869 51.4773L3.87084 51.5399V51.8344L3.80869 51.897C3.60901 51.897 2.85387 51.8344 1.92842 51.8344C0.988774 51.8344 0.233632 51.897 0.0329788 51.897L-0.0291748 51.8344V51.5399L0.0329788 51.4773C0.233632 51.4621 0.726946 51.4621 0.941792 51.3842C0.988774 51.369 1.22026 51.2138 1.2506 51.0438C1.28143 50.8572 1.29661 50.4537 1.29661 49.8794V43.332" fill="#1A1919"/>
</g>
<path fill-rule="evenodd" clip-rule="evenodd" d="M17.882 51.4774C21.1654 51.4774 21.7052 48.3136 21.7052 46.6531C21.7052 44.1089 20.7494 41.7352 17.743 41.7352C15.4003 41.7352 13.8445 43.3016 13.8445 46.1408C13.8445 50.376 16.1554 51.4774 17.882 51.4774ZM17.6206 52.02C14.1679 52.02 12.3958 49.8024 12.3958 46.4361C12.3958 43.7668 14.1992 41.1916 17.9901 41.1916C19.1 41.1916 23.1537 41.5024 23.1537 46.2957C23.1537 48.8093 21.7207 52.02 17.6206 52.02V52.02Z" fill="#1A1919"/>
<path fill-rule="evenodd" clip-rule="evenodd" d="M35.1489 43.689C35.0868 42.7279 35.0868 42.6807 34.6087 42.3556C33.8232 41.8117 32.7744 41.7349 32.3281 41.7349C29.2913 41.7349 28.4589 44.1855 28.4589 46.2189C28.4589 48.5616 29.6613 51.4772 32.744 51.4772C33.4532 51.4772 35.056 51.0437 35.5341 50.4693L35.7186 50.6393L35.3638 51.4313C34.5313 51.8037 33.3759 52.02 32.4666 52.02C27.6426 52.02 27.0107 48.0025 27.0107 46.6528C27.0107 43.1461 29.0143 41.1916 32.5126 41.1916C33.7914 41.1916 35.0716 41.4551 35.8111 41.7659C35.7034 42.293 35.6105 43.1003 35.5644 43.689H35.1489" fill="#1A1919"/>
<path fill-rule="evenodd" clip-rule="evenodd" d="M47.7432 43.689C47.682 42.7279 47.682 42.6807 47.2044 42.3556C46.4184 41.8117 45.3701 41.7349 44.9238 41.7349C41.8866 41.7349 41.0541 44.1855 41.0541 46.2189C41.0541 48.5616 42.2565 51.4772 45.3393 51.4772C46.0484 51.4772 47.6517 51.0437 48.1293 50.4693L48.3138 50.6393L47.9595 51.4313C47.1275 51.8037 45.9711 52.02 45.0623 52.02C40.2378 52.02 39.605 48.0025 39.605 46.6528C39.605 43.1461 41.6096 41.1916 45.1083 41.1916C46.388 41.1916 47.6668 41.4551 48.4068 41.7659C48.2987 42.293 48.2062 43.1003 48.1602 43.689H47.7432" fill="#1A1919"/>
<path fill-rule="evenodd" clip-rule="evenodd" d="M57.3785 51.4774C60.6619 51.4774 61.2017 48.3136 61.2017 46.6531C61.2017 44.1089 60.2459 41.7352 57.24 41.7352C54.8967 41.7352 53.3409 43.3016 53.3409 46.1408C53.3409 50.376 55.6519 51.4774 57.3785 51.4774ZM57.1167 52.02C53.664 52.02 51.8918 49.8024 51.8918 46.4361C51.8918 43.7668 53.6953 41.1916 57.4862 41.1916C58.5961 41.1916 62.6498 41.5024 62.6498 46.2957C62.6498 48.8093 61.2168 52.02 57.1167 52.02V52.02Z" fill="#1A1919"/>
<path fill-rule="evenodd" clip-rule="evenodd" d="M73.6901 43.332C73.6901 42.7587 73.6749 42.3557 73.6436 42.169C73.6127 41.9986 73.3813 41.8429 73.3357 41.8277C73.1194 41.7503 72.7191 41.7503 72.5185 41.7351L72.4573 41.6725V41.3784L72.5185 41.3159C72.9036 41.3312 73.7512 41.3784 75.54 41.3784C76.7424 41.3784 77.9439 41.3312 78.7764 41.3159L79.0382 41.5026L78.9149 43.4409H78.6682L78.6071 43.3793C78.6071 43.0685 78.4372 42.3863 78.2527 42.169C77.7898 42.0144 77.0194 41.9681 76.511 41.9681C76.2022 41.9681 75.5092 41.9681 75.0315 42.1075C74.9845 42.7128 74.9385 43.9689 74.9385 44.6984C74.9385 45.3649 74.9537 46.389 74.9845 46.653C75.3389 46.7924 75.7245 46.7924 76.3407 46.7924C76.927 46.7924 78.0672 46.7151 78.5297 46.5757L78.5909 46.6372V47.4756L78.5297 47.5372C78.3291 47.4446 77.8979 47.3973 76.6803 47.3973C75.7867 47.3973 75.2933 47.4126 74.9845 47.4446C74.9537 48.2662 74.9385 49.0888 74.9385 49.8794C74.9385 50.4537 74.9537 50.8572 74.9845 51.0438C75.0158 51.2138 75.2464 51.369 75.2933 51.3842C75.5092 51.4621 76.2795 51.4621 76.4796 51.4773L76.5413 51.5399V51.8344L76.4796 51.897C76.2795 51.897 75.2464 51.8344 74.3219 51.8344C73.3813 51.8344 72.7191 51.897 72.5185 51.897L72.4573 51.8344V51.5399L72.5185 51.4773C72.7191 51.4621 73.1194 51.4621 73.3357 51.3842C73.3813 51.369 73.6127 51.2138 73.6436 51.0438C73.6749 50.8572 73.6901 50.4537 73.6901 49.8794V43.332" fill="#1A1919"/>
<path fill-rule="evenodd" clip-rule="evenodd" d="M87.8724 51.4774C91.1548 51.4774 91.6936 48.3136 91.6936 46.6531C91.6936 44.1089 90.7388 41.7352 87.7329 41.7352C85.3902 41.7352 83.8339 43.3016 83.8339 46.1408C83.8339 50.376 86.1458 51.4774 87.8724 51.4774ZM87.6097 52.02C84.157 52.02 82.3849 49.8024 82.3849 46.4361C82.3849 43.7668 84.1883 41.1916 87.9797 41.1916C89.0892 41.1916 93.1428 41.5024 93.1428 46.2957C93.1428 48.8093 91.7104 52.02 87.6097 52.02V52.02Z" fill="#1A1919"/>
<path fill-rule="evenodd" clip-rule="evenodd" d="M98.1856 43.332C98.1856 42.7587 98.1705 42.3557 98.1396 42.169C98.1093 41.9986 97.8778 41.8429 97.8308 41.8277C97.616 41.7503 97.1227 41.7503 96.922 41.7351L96.8599 41.6725V41.3784L96.922 41.3159C97.1227 41.3159 97.8778 41.3784 99.4341 41.3784C100.251 41.3784 101.238 41.3159 101.839 41.3159C103.211 41.3159 104.428 42.0759 104.428 43.6276C104.428 45.5043 102.887 46.0949 102.471 46.219L101.716 46.4515L101.654 46.5441C102.147 47.2579 104.89 50.8724 105.337 51.3537L105.939 51.4773L106.001 51.5399V51.8344L105.939 51.897C105.815 51.897 105.368 51.8344 104.937 51.8344C104.643 51.8344 104.135 51.8497 103.812 51.897C103.149 50.6242 100.944 47.4909 99.8966 46.4515L100.005 46.2033C101.562 46.2033 103.087 45.8466 103.087 43.9537C103.087 42.4478 102.209 41.8592 100.822 41.8592C100.236 41.8592 99.7733 41.9208 99.5423 42.0144C99.4811 42.4478 99.4341 43.0379 99.4341 43.4724V49.8794C99.4341 50.4537 99.4493 50.8572 99.4811 51.0438C99.5114 51.2138 99.7429 51.369 99.7884 51.3842C100.005 51.4621 100.498 51.4621 100.698 51.4773L100.76 51.5399V51.8344L100.698 51.897C100.498 51.897 99.7429 51.8344 98.8175 51.8344C97.8778 51.8344 97.1227 51.897 96.922 51.897L96.8599 51.8344V51.5399L96.922 51.4773C97.1227 51.4621 97.616 51.4621 97.8308 51.3842C97.8778 51.369 98.1093 51.2138 98.1396 51.0438C98.1705 50.8572 98.1856 50.4537 98.1856 49.8794V43.332" fill="#1A1919"/>
<path fill-rule="evenodd" clip-rule="evenodd" d="M116.979 43.3486L116.917 43.286C116.887 42.9604 116.856 42.4019 116.61 42.1383C116.208 42.06 115.823 41.9832 114.836 41.9832C114.529 41.9832 114.22 41.9984 113.819 42.0295C113.758 42.4477 113.727 42.8979 113.727 43.3318V49.8792C113.727 50.4536 113.742 50.857 113.774 51.0437C113.804 51.2136 114.036 51.3688 114.082 51.3841C114.297 51.4619 114.791 51.4619 114.991 51.4772L115.053 51.5397V51.8343L114.991 51.8968C114.359 51.8806 113.742 51.8343 113.11 51.8343C112.478 51.8343 111.847 51.8806 111.215 51.8968L111.153 51.8343V51.5397L111.215 51.4772C111.414 51.4619 111.908 51.4619 112.124 51.3841C112.17 51.3688 112.401 51.2136 112.432 51.0437C112.463 50.857 112.478 50.4536 112.478 49.8792V43.3318C112.478 42.8979 112.448 42.4477 112.386 42.0295C111.985 41.9984 111.677 41.9832 111.369 41.9832C110.382 41.9832 109.997 42.06 109.596 42.1383C109.35 42.4019 109.319 42.9604 109.288 43.286L109.227 43.3486H108.764C108.841 42.8673 108.857 42.5102 108.857 42.1994C108.857 41.8743 108.795 41.626 108.764 41.3783L108.948 41.1916C109.581 41.3463 111.045 41.3783 113.11 41.3783C115.161 41.3783 116.625 41.3463 117.257 41.1916L117.441 41.3783C117.41 41.626 117.349 41.8743 117.349 42.1994C117.349 42.5102 117.364 42.8673 117.441 43.3486H116.979" fill="#1A1919"/>
<path fill-rule="evenodd" clip-rule="evenodd" d="M122.005 43.332C122.005 42.7587 121.99 42.3557 121.959 42.169C121.929 41.9986 121.698 41.8429 121.651 41.8277C121.436 41.7503 121.034 41.7503 120.803 41.7351L120.742 41.6725V41.3784L120.803 41.3159C121.759 41.3312 122.761 41.3784 123.779 41.3784C124.98 41.3784 126.182 41.3312 127.385 41.3159L127.647 41.5026L127.523 43.2862H127.277L127.215 43.2246C127.215 42.9916 127.046 42.3863 126.861 42.169C126.429 42.0449 125.566 41.9681 124.888 41.9681C124.348 41.9681 123.716 41.9833 123.346 42.0602C123.3 42.5104 123.254 43.6123 123.254 44.1241C123.254 44.7442 123.285 45.3496 123.3 45.955C123.455 45.986 124.102 46.0171 124.718 46.0171C125.473 46.0171 126.615 45.9397 127.076 45.7994L127.138 45.8619V46.6998L127.076 46.7614C126.876 46.6683 126.444 46.622 125.057 46.622C124.333 46.622 123.701 46.653 123.47 46.6845L123.3 46.8549C123.285 47.2273 123.254 47.615 123.254 47.9874C123.254 48.7164 123.3 50.3296 123.346 51.1522C123.701 51.1985 124.519 51.2448 125.227 51.2448C125.875 51.2448 126.738 51.1985 127.262 51.0118C127.493 50.5473 127.554 50.4079 127.708 49.8336H128.079C128.048 50.2055 127.955 50.9813 127.955 51.7103L127.77 51.897C126.583 51.8497 125.381 51.8344 124.195 51.8344C123.039 51.8344 122.083 51.8497 121.358 51.897L121.296 51.8344V51.5399L121.358 51.4773C122.005 51.369 122.005 51.2921 122.005 49.8794V43.332" fill="#1A1919"/>
<path fill-rule="evenodd" clip-rule="evenodd" d="M31.7288 62.7929C32.5612 62.8249 33.4089 62.8554 34.2413 62.8554C35.3043 62.8554 36.4143 62.8249 37.4626 62.7929V60.326C37.4626 59.7527 37.4474 59.3497 37.4161 59.163C37.3852 58.9926 37.1542 58.837 37.1082 58.8217C36.8919 58.7443 36.3991 58.7443 36.1989 58.7291L36.1368 58.6665V58.3724L36.1989 58.3099C36.8308 58.3252 37.4474 58.3724 38.0792 58.3724C38.711 58.3724 39.3428 58.3252 39.9746 58.3099L40.0368 58.3724V58.6665L39.9746 58.7291C39.775 58.7443 39.2817 58.7443 39.0658 58.8217C39.0198 58.837 38.7883 58.9926 38.757 59.163C38.7262 59.3497 38.711 59.7527 38.711 60.326V66.8729C38.711 67.4473 38.7262 67.8507 38.757 68.0374C38.7883 68.2073 39.0198 68.3625 39.0658 68.3777C39.2817 68.4556 39.775 68.4556 39.9746 68.4708L40.0368 68.5334V68.828L39.9746 68.8905C39.3428 68.8743 38.711 68.828 38.0792 68.828C37.4474 68.828 36.8308 68.8743 36.1989 68.8905L36.1368 68.828V68.5334L36.1989 68.4708C36.3991 68.4556 36.8919 68.4556 37.1082 68.3777C37.1542 68.3625 37.3852 68.2073 37.4161 68.0374C37.4474 67.8507 37.4626 67.4473 37.4626 66.8729V63.445C36.5689 63.4135 35.6743 63.3982 34.7807 63.3982C33.7637 63.3982 32.7467 63.4135 31.7288 63.445V66.8729C31.7288 67.4473 31.7439 67.8507 31.7753 68.0374C31.8061 68.2073 32.0371 68.3625 32.0831 68.3777C32.2994 68.4556 32.7922 68.4556 32.9934 68.4708L33.0546 68.5334V68.828L32.9934 68.8905C32.3616 68.8743 31.7439 68.828 31.1121 68.828C30.4803 68.828 29.8485 68.8743 29.2167 68.8905L29.1555 68.828V68.5334L29.2167 68.4708C29.4173 68.4556 29.9107 68.4556 30.1255 68.3777C30.1725 68.3625 30.404 68.2073 30.4343 68.0374C30.4651 67.8507 30.4803 67.4473 30.4803 66.8729V60.326C30.4803 59.7527 30.4651 59.3497 30.4343 59.163C30.404 58.9926 30.1725 58.837 30.1255 58.8217C29.9107 58.7443 29.4173 58.7443 29.2167 58.7291L29.1555 58.6665V58.3724L29.2167 58.3099C29.8485 58.3252 30.4803 58.3724 31.1121 58.3724C31.7439 58.3724 32.3616 58.3252 32.9934 58.3099L33.0546 58.3724V58.6665L32.9934 58.7291C32.7922 58.7443 32.2994 58.7443 32.0831 58.8217C32.0371 58.837 31.8061 58.9926 31.7753 59.163C31.7439 59.3497 31.7288 59.7527 31.7288 60.326V62.7929" fill="#1A1919"/>
<path fill-rule="evenodd" clip-rule="evenodd" d="M49.0106 68.4708C52.293 68.4708 52.8323 65.307 52.8323 63.6465C52.8323 61.1023 51.8775 58.729 48.8711 58.729C46.5284 58.729 44.9721 60.2955 44.9721 63.1342C44.9721 67.3694 47.2845 68.4708 49.0106 68.4708ZM48.7479 69.0135C45.2952 69.0135 43.5231 66.7959 43.5231 63.4296C43.5231 60.7608 45.327 58.1856 49.1179 58.1856C50.2273 58.1856 54.2815 58.4959 54.2815 63.2892C54.2815 65.8029 52.8486 69.0135 48.7479 69.0135V69.0135Z" fill="#1A1919"/>
<path fill-rule="evenodd" clip-rule="evenodd" d="M65.7985 60.3426L65.7364 60.2801C65.7056 59.9545 65.6752 59.3959 65.4286 59.1319C65.0272 59.054 64.6421 58.9772 63.6555 58.9772C63.3476 58.9772 63.0388 58.9925 62.6385 59.0235C62.5763 59.4417 62.5455 59.8919 62.5455 60.3259V66.8727C62.5455 67.4471 62.5612 67.8505 62.5925 68.0372C62.6233 68.2071 62.8543 68.3623 62.9003 68.3776C63.1161 68.4554 63.6095 68.4554 63.8091 68.4707L63.8713 68.5332V68.8278L63.8091 68.8904C63.1773 68.8741 62.5612 68.8278 61.9294 68.8278C61.2975 68.8278 60.6657 68.8741 60.0339 68.8904L59.9718 68.8278V68.5332L60.0339 68.4707C60.2346 68.4554 60.7274 68.4554 60.9427 68.3776C60.9897 68.3623 61.2207 68.2071 61.2515 68.0372C61.2819 67.8505 61.2975 67.4471 61.2975 66.8727V60.3259C61.2975 59.8919 61.2667 59.4417 61.2046 59.0235C60.8042 58.9925 60.4964 58.9772 60.1876 58.9772C59.201 58.9772 58.8158 59.054 58.4155 59.1319C58.1688 59.3959 58.1375 59.9545 58.1067 60.2801L58.0455 60.3426H57.583C57.6603 59.8614 57.6755 59.5042 57.6755 59.1934C57.6755 58.8683 57.6134 58.6201 57.583 58.3723L57.7685 58.1856C58.4003 58.3403 59.8636 58.3723 61.9294 58.3723C63.9794 58.3723 65.4437 58.3403 66.0755 58.1856L66.26 58.3723C66.2297 58.6201 66.1685 58.8683 66.1685 59.1934C66.1685 59.5042 66.1837 59.8614 66.26 60.3426H65.7985" fill="#1A1919"/>
<path fill-rule="evenodd" clip-rule="evenodd" d="M70.8247 60.326C70.8247 59.7527 70.8095 59.3497 70.7787 59.163C70.7483 58.9926 70.5168 58.837 70.4698 58.8217C70.255 58.7443 69.8532 58.7443 69.6232 58.7291L69.561 58.6665V58.3724L69.6232 58.3099C70.578 58.3252 71.5798 58.3724 72.5978 58.3724C73.7992 58.3724 75.0017 58.3252 76.2041 58.3099L76.466 58.4961L76.3426 60.2802H76.096L76.0348 60.2186C76.0348 59.9856 75.865 59.3803 75.6805 59.163C75.2483 59.0389 74.385 58.9621 73.7072 58.9621C73.1674 58.9621 72.5356 58.9773 72.1656 59.0542C72.1196 59.5044 72.0731 60.6063 72.0731 61.1181C72.0731 61.7382 72.1044 62.3436 72.1196 62.949C72.2738 62.9795 72.9208 63.0106 73.5374 63.0106C74.2925 63.0106 75.4338 62.9332 75.8953 62.7929L75.9575 62.8554V63.6933L75.8953 63.7549C75.6956 63.6618 75.2635 63.6155 73.8766 63.6155C73.1522 63.6155 72.5204 63.6465 72.2889 63.678L72.1196 63.8485C72.1044 64.2209 72.0731 64.6085 72.0731 64.9809C72.0731 65.7099 72.1196 67.3231 72.1656 68.1457C72.5204 68.192 73.3377 68.2383 74.0459 68.2383C74.6938 68.2383 75.5571 68.192 76.0808 68.0053C76.3123 67.5408 76.3735 67.4014 76.5281 66.8271H76.8971C76.8668 67.199 76.7748 67.9748 76.7748 68.7038L76.5893 68.8905C75.402 68.8432 74.2005 68.828 73.0133 68.828C71.8578 68.828 70.902 68.8432 70.1777 68.8905L70.1165 68.828V68.5334L70.1777 68.4708C70.8247 68.3625 70.8247 68.2856 70.8247 66.8729V60.326" fill="#1A1919"/>
<path fill-rule="evenodd" clip-rule="evenodd" d="M81.7697 60.326C81.7697 59.7527 81.7546 59.3497 81.7228 59.163C81.6924 58.9926 81.4609 58.837 81.4149 58.8217C81.1991 58.7443 80.7058 58.7443 80.5061 58.7291L80.444 58.6665V58.3724L80.5061 58.3099C81.1379 58.3252 81.7697 58.3724 82.4016 58.3724C83.0334 58.3724 83.65 58.3252 84.3743 58.3099L84.4355 58.3724V58.6665L84.3743 58.7291C84.0812 58.7443 83.5879 58.7443 83.3725 58.8217C83.326 58.837 83.0946 58.9926 83.0642 59.163C83.0334 59.3497 83.0182 59.7527 83.0182 60.326V64.9809C83.0182 65.7099 83.0642 67.3231 83.1107 68.0989C83.4655 68.1457 84.2818 68.192 84.991 68.192C85.638 68.192 86.5013 68.1457 87.0249 67.959C87.2564 67.5408 87.3185 67.4014 87.5334 66.6094H87.8422L87.9044 66.6719C87.8119 67.199 87.7189 67.9748 87.7189 68.7038L87.5334 68.8905C86.3476 68.8432 85.1451 68.828 83.9588 68.828C82.8019 68.828 81.8461 68.8432 81.1218 68.8905L81.0606 68.828V68.5334L81.1218 68.4708C81.7697 68.3625 81.7697 68.2856 81.7697 66.8729V60.326" fill="#1A1919"/>
<path fill-rule="evenodd" clip-rule="evenodd" d="M92.3919 66.392L92.4531 66.4545L92.5461 67.4318C92.5612 67.5407 93.1622 68.4707 94.7655 68.4707C96.2298 68.4707 97.1856 67.6023 97.1856 66.0196C97.1856 63.041 91.5594 64.8409 91.5594 61.1485C91.5594 59.1166 93.4862 58.1856 95.4433 58.1856C96.1828 58.1856 97.0613 58.2787 97.7861 58.6816C97.6789 59.256 97.5394 59.9855 97.5394 60.5904H97.1856L97.1234 60.5278C97.0931 60.0623 97.0774 59.9382 96.9849 59.4264C96.5068 59.0851 96.0291 58.7289 94.8888 58.7289C93.4701 58.7289 92.8079 59.6131 92.8079 60.652C92.8079 63.9877 98.434 61.9558 98.434 65.4462C98.434 67.8973 96.4916 69.0135 94.2414 69.0135C93.9634 69.0135 92.6537 69.0135 91.8364 68.4091C91.9906 67.8973 92.0068 67.354 92.0831 66.392H92.3919" fill="#1A1919"/>
</svg>
