<svg width="172" height="102" viewBox="0 0 172 102" fill="none" xmlns="http://www.w3.org/2000/svg">
<path d="M107.446 34.873C106.399 34.873 104.928 36.515 104.928 37.2978C104.928 37.6892 105.218 37.861 105.574 37.861C106.645 37.861 108.102 36.4386 108.102 35.5031C108.102 35.2024 107.875 34.873 107.446 34.873" fill="black"/>
<path d="M151.843 34.873C150.796 34.873 149.325 36.515 149.325 37.2978C149.325 37.6892 149.614 37.861 149.971 37.861C151.042 37.861 152.499 36.4386 152.499 35.5031C152.499 35.2024 152.267 34.873 151.843 34.873" fill="black"/>
<path d="M79.5442 24C70.0957 24 55.3033 36.6774 47.2825 42.1474C49.5253 37.6702 51.6571 33.3553 53.9384 30.0762C54.9512 28.6204 54.6667 28.2003 54.2326 28.2003C53.7985 28.2003 52.1876 28.8208 45.9851 29.5989C39.8839 30.3626 36.5946 33.6322 36.5946 37.4363C36.5946 39.2358 37.3904 40.725 38.2827 41.4219C38.601 41.6653 38.9048 41.5221 38.5624 41.0353C38.1138 40.3957 37.482 39.2072 37.482 38.0425C37.482 35.551 39.1605 33.2503 42.0977 32.1716C44.6057 31.2456 46.8533 31.2313 50.5671 30.6967C45.3244 39.3886 36.6669 64.1564 25.352 64.1564C21.6044 64.1564 19.2315 61.9941 18.0787 59.9464C17.7267 59.3164 17.5627 59.0682 16.9887 59.0682C16.4003 59.0682 16 59.4691 16 60.0085C16 62.6576 21.2668 64.9296 25.0963 64.9296C35.355 64.9296 41.4418 53.7557 46.8002 43.1068C49.8966 51.4455 52.887 63.4213 62.9238 63.4213C66.9993 63.4213 71.1665 60.4429 73.0426 58.0658C73.5153 57.4596 73.3417 57.0969 72.8256 57.6363C71.2292 59.2925 67.5491 62.1755 63.5074 62.1755C57.5943 62.1755 53.5815 56.6291 49.5108 42.6391C56.1136 37.4698 72.0105 25.0978 79.6888 25.0978C81.4396 25.0978 82.6792 25.5894 82.6792 26.3961C82.6792 27.3173 81.6036 28.1669 81.6036 28.4008C81.6036 28.6299 81.8351 28.8065 82.1197 28.8065C83.1036 28.8065 84.0296 27.661 84.0296 26.5345C84.0296 25.0882 81.9702 24 79.5442 24" fill="black"/>
<path fill-rule="evenodd" clip-rule="evenodd" d="M155.378 43.8474C155.547 43.5706 155.696 43.4369 155.817 43.4369C155.889 43.4369 156 43.4799 156 43.6135C156 45.7519 150.27 52.2004 146.31 52.2004C144.386 52.2004 143.344 51.0214 143.388 48.9451C141.912 51.0262 140.373 52.2004 138.54 52.2004C135.854 52.2004 134.267 49.2792 133.785 44.8641C132.511 47.4941 131.503 49.6229 131.084 50.5203C130.433 51.9188 129.724 52.2004 128.841 52.2004C128.441 52.2004 128.18 52.1765 128.18 51.8138C128.18 51.5411 128.531 50.8144 128.994 49.8574L129.015 49.8138C130.38 46.9643 135.203 36.9073 138.116 31.4611C136.176 33.4086 134.152 34.891 132.455 36.1338C130.105 37.8548 128.383 39.1161 128.383 40.5158C128.383 41.5468 129.116 42.0241 129.955 42.0241C130.63 42.0241 131.156 41.8618 131.393 41.7329C131.73 41.5468 131.928 41.8427 131.576 42.215C131.185 42.6303 130.028 43.2365 129.111 43.2365C128.33 43.2365 127.64 42.9692 127.182 42.5253C126.68 42.2389 126.241 42.11 125.87 42.11C124.804 42.11 124.24 42.6732 124.24 43.4322C124.24 44.1763 124.774 44.8895 125.344 45.652C126 46.5279 126.704 47.4688 126.704 48.5967C126.704 50.716 124.553 52.1956 122.523 52.1956C121.312 52.1956 119.533 51.4128 119.6 50.5632C119.624 50.2005 120.01 49.8377 120.642 49.8377C120.939 49.8377 121.143 50.0539 121.387 50.3121C121.748 50.6946 122.197 51.1694 123.164 51.1694C123.936 51.1694 124.746 50.6157 124.746 49.6563C124.746 48.8441 124.145 47.9997 123.534 47.1429C123.147 46.5998 122.756 46.0518 122.513 45.5037C120.483 48.9594 117.015 52.2004 114.136 52.2004C113.123 52.2004 112.467 51.6945 112.467 50.7589C112.467 49.8445 113.363 48.1125 114.134 46.6234C114.716 45.5007 115.226 44.5162 115.226 44.1243C115.226 43.8952 115.086 43.8045 114.845 43.8045C113.783 43.8045 111.005 46.0908 109.814 48.506C109.687 48.7635 109.569 49.0076 109.457 49.2385C108.508 51.1985 108.025 52.1956 106.592 52.1956C106.269 52.1956 105.917 52.1956 105.917 51.8424C105.917 51.5052 106.399 50.5307 107.021 49.2734C107.429 48.4489 107.897 47.5026 108.329 46.5347C105.883 49.4368 102.975 52.2004 100.776 52.2004C99.8833 52.2004 99.0682 51.7183 99.0682 50.6157C99.0682 49.7184 99.6421 48.3294 100.327 46.9881C97.1534 49.9141 93.0731 52.2004 90.1696 52.2004C89.7982 52.2004 89.422 51.9952 89.422 51.661C89.422 51.3253 89.7561 51.0972 90.3862 50.6668C90.6161 50.5099 90.8853 50.326 91.1921 50.1002C93.1406 48.6635 95.1325 45.7805 95.1325 44.5013C95.1325 44.0097 94.93 43.499 94.3367 43.499C92.229 43.499 90.1792 47.055 87.9751 51.6849C84.8256 58.3148 82.2597 62.9161 75.6714 66.1141C75.0106 66.4339 74.3402 66.6582 74.0074 66.6582C73.747 66.6582 73.747 66.4959 73.9495 66.3909C80.4721 63.0775 82.4778 58.4503 85.3769 51.7622C85.6184 51.2051 85.866 50.6338 86.123 50.0477C84.4639 51.5656 82.6359 52.2004 81.5507 52.2004C80.5379 52.2004 79.8819 51.6945 79.8819 50.7589C79.8819 49.8445 80.7787 48.1125 81.5497 46.6234C82.131 45.5007 82.6407 44.5162 82.6407 44.1243C82.6407 43.8952 82.5588 43.8045 82.3176 43.8045C81.2613 43.8045 78.599 46.0669 77.398 48.506C77.2733 48.7588 77.157 48.9988 77.0469 49.2259C76.0929 51.1943 75.6075 52.1956 74.1762 52.1956C73.8531 52.1956 73.501 52.1956 73.501 51.8424C73.501 51.5218 74.0086 50.4956 74.6104 49.2787C75.487 47.5064 76.5637 45.3296 76.5637 44.3391C76.5637 44.024 76.4527 43.8045 76.1199 43.8045C74.4319 43.8045 71.321 48.3151 70.5541 49.8759C69.7631 51.5035 69.3339 52.1956 68.0075 52.1956C67.6844 52.1956 67.3323 52.1956 67.3323 51.8424C67.3323 51.5444 67.9012 50.2399 68.5316 48.7945C69.3146 46.9992 70.1924 44.9866 70.1924 44.4154C70.1924 44.2484 70.1296 44.2054 70.038 44.2054C69.6811 44.2054 68.62 45.1457 67.366 46.8068C65.35 49.4893 62.5237 52.6348 59.0944 52.6348C57.2954 52.6348 55.8485 51.4033 55.8485 49.3699C55.8485 46.086 60.4594 41.3415 64.2214 41.3415C65.2535 41.3415 66.059 41.8093 66.059 42.7019C66.059 45.3223 61.3082 48.0955 58.2649 48.4249C58.2214 48.6922 58.1925 48.9547 58.1925 49.222C58.1925 50.315 58.7954 51.198 60.0832 51.198C62.4883 51.198 64.3987 48.8267 66.2368 46.5451C67.9408 44.4298 69.5828 42.3916 71.4994 42.3916C72.2084 42.3916 72.7052 42.7735 72.7052 43.5944C72.7052 44.2816 72.5288 44.7531 72.2931 45.383C72.2505 45.4969 72.206 45.6159 72.1602 45.7424C73.6361 43.9429 75.4302 42.3916 77.2196 42.3916C78.5363 42.3916 79.1199 43.4417 78.6713 45.1505C80.5668 43.3462 81.8739 42.3916 83.6054 42.3916C84.3674 42.3916 84.9751 42.8451 84.9751 43.6135C84.9751 44.245 84.3657 45.4111 83.7332 46.6213C83.0509 47.9268 82.3417 49.2837 82.3417 50.0764C82.3417 50.4916 82.5105 50.7112 82.8096 50.7112C83.5812 50.7112 85.7082 49.7422 87.1166 47.8091C87.9944 45.8951 89.3931 42.9453 90.4638 41.0074C90.8496 40.3058 91.8625 39.943 92.4654 39.943C92.7355 39.943 93.2274 40.0528 92.9911 40.5635C92.9346 40.6868 92.7413 41.0234 92.4738 41.4892C92.0787 42.1772 91.5216 43.1472 91.004 44.129C92.3496 43.0885 93.8592 42.3916 95.2483 42.3916C96.4975 42.3916 97.4331 43.0789 97.4331 44.2865C97.4331 46.3629 95.4702 48.8592 93.2129 50.5394C96.5119 49.1838 100.481 46.024 102.338 43.5515C102.376 43.4972 102.41 43.4469 102.441 43.401C102.479 43.3459 102.512 43.2972 102.541 43.2556C102.97 42.6446 103.722 42.3916 104.301 42.3916C104.571 42.3916 105.063 42.5014 104.832 43.0121C104.776 43.1313 104.591 43.4521 104.333 43.8974C103.384 45.539 101.456 48.8722 101.456 50.0286C101.456 50.5059 101.61 50.7541 101.914 50.7541C103.419 50.7541 107.518 46.549 109.486 43.4417C109.684 42.8737 110.489 42.3916 111.319 42.3916C111.632 42.3916 112.057 42.5157 111.854 43.0217C111.719 43.3415 111.102 44.8164 110.923 45.3366C112.828 43.5085 114.319 42.3916 116.132 42.3916C116.967 42.3916 117.55 42.8355 117.55 43.6183C117.55 44.253 116.946 45.409 116.317 46.6112C115.636 47.9134 114.926 49.2698 114.926 50.0764C114.926 50.3866 115.023 50.716 115.409 50.716C117.116 50.716 120.627 47.5084 122.407 43.5992C122.846 42.215 124.336 41.0647 126.627 41.017C126.798 38.9884 129.199 37.363 130.392 36.5546C130.51 36.4747 130.617 36.4028 130.708 36.3393C135.422 33.0654 138.524 29.6984 140.667 27.3725C142.345 25.5512 143.435 24.3683 144.251 24.3683C144.516 24.3683 144.642 24.521 144.642 24.8169C144.642 25.4051 143.91 26.3046 143.247 27.119C142.915 27.5273 142.6 27.9142 142.404 28.2297C140.397 31.4707 136.732 38.807 134.074 44.277C134.281 44.131 134.563 43.9306 134.898 43.693C137.057 42.1591 141.4 39.0743 141.806 39.0743C142.481 39.0743 142.785 40.0241 142.182 40.2532C141 40.7115 136.852 43.5228 135.994 44.2913C136.283 47.3461 137.431 50.8496 139.298 50.8496C141.274 50.8496 143.194 47.721 144.648 45.3525C145.053 44.692 145.422 44.0906 145.746 43.6326C146.503 42.573 146.831 42.3916 147.926 42.3916C148.244 42.3916 148.534 42.5587 148.534 42.8021C148.534 43.1258 148.145 43.7744 147.655 44.5934C146.814 45.9965 145.674 47.9 145.674 49.5274C145.674 50.2625 146.055 50.9307 146.769 50.9307C149.479 50.9307 154.201 45.7328 155.378 43.8474ZM63.8308 43.2316C63.8308 42.7829 63.6234 42.6015 63.2761 42.6015C62.1234 42.6015 59.3212 44.9881 58.4531 47.6658C60.8453 47.1408 63.8308 44.4201 63.8308 43.2316Z" fill="black"/>
<path d="M47.1475 77.9034C46.9642 77.9034 46.7761 77.8986 46.6845 77.784C46.6362 77.7315 46.6169 77.5406 46.6169 77.2065V77.1778C46.6169 76.7339 46.6218 76.2805 46.6268 75.8318C46.6317 75.3784 46.6367 74.9297 46.6367 74.4858V74.3856C46.6367 74.2137 46.6268 73.746 46.6897 73.6553C46.7765 73.5216 47.0322 73.5168 47.2203 73.5121C47.2541 73.5121 47.2878 73.5121 47.3167 73.5121L47.3842 73.5073V73.1445H44.9052V73.4357L44.915 73.5121H44.9874C45.6915 73.5359 45.735 73.5359 45.735 74.2233C45.735 74.6147 45.7301 75.0013 45.7205 75.3975H43.0148V75.3879C43.0246 74.9202 43.0292 74.4476 43.0389 73.9798V73.956C43.0389 73.7698 43.0438 73.6791 43.1739 73.6028C43.2896 73.5264 43.4922 73.5216 43.6562 73.5121L43.8154 73.5073V73.1445H41.3556V73.5073L41.5437 73.5216C41.9729 73.5503 42.1176 73.555 42.1176 74.0467C42.1176 74.5431 42.1127 75.0442 42.1078 75.5454C42.0979 76.0466 42.0933 76.543 42.0933 77.0394V77.111C42.0933 77.2876 42.0982 77.6217 42.0162 77.7458C41.9197 77.8843 41.6834 77.8986 41.4953 77.9081L41.3458 77.9129L41.3602 78.29H43.8537V77.9129L43.7138 77.9081C43.1833 77.8986 43.0097 77.8938 43.0097 77.3258C43.0097 77.0633 43.0097 76.8008 43.0097 76.5382C43.0146 76.3043 43.0146 76.0657 43.0146 75.827H45.7203C45.7203 75.9941 45.7203 76.1564 45.7252 76.3234C45.7252 76.5096 45.7301 76.7005 45.7301 76.8867C45.7301 77.6026 45.6578 77.7363 45.6385 77.7602C45.518 77.8986 45.2816 77.9033 45.0791 77.9081C45.0259 77.9081 44.9778 77.9081 44.9295 77.9129H44.8572V78.29H47.3941V77.9177L47.3266 77.9129C47.2735 77.9034 47.2109 77.9034 47.1481 77.9034" fill="black"/>
<path fill-rule="evenodd" clip-rule="evenodd" d="M48.1843 75.7224C48.1843 74.2332 49.4238 73.0686 51.0106 73.0686C51.8739 73.0686 52.5974 73.3979 53.1569 74.0423C53.6151 74.5817 53.7115 75.2642 53.7115 75.7463C53.7115 76.3716 53.4318 77.0398 52.9736 77.4885C52.3707 78.0899 51.7196 78.3668 50.9141 78.3668C50.2678 78.3668 49.7228 78.1902 49.2357 77.8369C48.4785 77.2928 48.1843 76.7009 48.1843 75.7224ZM51.0689 77.9704C51.45 77.9704 51.8889 77.7508 52.1879 77.4119C52.5833 76.949 52.6316 76.2378 52.6316 75.7461C52.6316 75.3356 52.4628 74.6244 52.2217 74.2664C51.8406 73.7128 51.4162 73.4502 50.876 73.4502C49.6847 73.4502 49.241 74.7915 49.241 75.6316C49.241 76.7676 49.8824 77.9704 51.0689 77.9704Z" fill="black"/>
<path d="M59.0319 72.9436L58.8197 72.915L58.7956 72.9532C58.6751 73.125 58.5786 73.1727 58.3809 73.1727H55.3327C55.0963 73.1727 54.9372 73.1584 54.8262 72.9675L54.8118 72.9388L54.59 72.9007L54.1945 74.4567L54.3055 74.4901C54.3682 74.5092 54.426 74.5283 54.4936 74.5378L54.5563 74.5426L54.5804 74.4901C54.7492 74.0939 54.9614 73.6023 55.4292 73.5737C55.5546 73.5641 55.6945 73.5641 55.8199 73.5641H56.2154V75.0581C56.2154 75.3922 56.2154 75.7311 56.2105 76.07C56.2056 76.4041 56.2006 76.743 56.2006 77.0772C56.2006 77.2347 56.2006 77.5974 56.1138 77.7311C56.0222 77.8695 55.81 77.8838 55.6219 77.8981C55.564 77.8981 55.5062 77.9029 55.4579 77.9125L55.3952 77.922L55.3853 78.2895H58.0283V77.9172L57.8788 77.9029C57.3386 77.8504 57.1361 77.8313 57.1361 77.2394C57.1361 76.008 57.1553 74.7622 57.1699 73.5546C57.2711 73.5498 57.3628 73.5498 57.4737 73.5498C57.7534 73.5498 58.2309 73.5498 58.4721 73.7837C58.5541 73.8648 58.6409 74.1417 58.6988 74.4853L58.7087 74.5474H58.7714C58.8534 74.5474 58.9402 74.5378 59.0222 74.5235L59.0849 74.514V74.4519C59.0849 73.9746 59.0849 73.4878 59.0414 73.0009L59.0319 72.9436Z" fill="black"/>
<path d="M64.1589 76.7338C64.0142 77.1586 63.72 77.6979 63.3727 77.8316C63.1942 77.8984 62.9579 77.9366 62.7216 77.9366C62.4081 77.9366 61.9017 77.9079 61.7859 77.865C61.776 77.7886 61.7715 77.5452 61.7715 77.1252V76.0369C61.7715 75.9223 61.7764 75.8507 61.7764 75.8125C61.7908 75.8125 61.8053 75.8125 61.8295 75.8125H62.0369C62.4903 75.8125 62.7604 75.8555 62.8472 75.9366C62.9629 76.0464 62.9822 76.2278 63.0015 76.4044L63.0159 76.5381H63.3584L63.3633 74.71H63.0353L63.0112 74.8388C62.9581 75.1491 62.9196 75.3543 62.5965 75.4307C62.4373 75.4641 62.2637 75.4689 62.1093 75.4689H61.8441C61.8248 75.4689 61.8007 75.4689 61.7813 75.4641C61.7813 75.445 61.7813 75.4307 61.7813 75.4116C61.7813 75.1395 61.7813 74.8675 61.7862 74.5954C61.7911 74.3233 61.7961 74.0513 61.7961 73.7792C61.7961 73.7505 61.7961 73.7219 61.7961 73.6933C61.7912 73.6169 61.7862 73.5453 61.801 73.4737C61.8347 73.4642 61.9071 73.4498 62.0904 73.4498C63.0357 73.4498 63.4746 73.488 63.9714 74.3806L64.0003 74.4331L64.3186 74.3233L64.3042 74.2565C64.2222 73.9415 64.092 73.6408 63.9714 73.3544C63.9328 73.2732 63.9038 73.1921 63.8701 73.1157L63.8509 73.0728L63.8076 73.068C63.6436 73.0489 63.4651 73.0441 63.2577 73.0441C62.9491 73.0441 62.6356 73.0632 62.3365 73.0823C62.0375 73.1014 61.724 73.1205 61.4201 73.1205C61.2272 73.1205 61.0295 73.1157 60.8317 73.1109C60.634 73.1062 60.4411 73.1062 60.2433 73.1062H60.171L60.1565 73.4642L60.253 73.4689C60.7739 73.488 60.8848 73.4928 60.8848 74.0226C60.8848 74.519 60.8848 75.0154 60.8897 75.5118C60.8897 76.013 60.8897 76.5094 60.8897 77.0011C60.8897 77.1824 60.8897 77.655 60.774 77.8029C60.7113 77.8841 60.475 77.927 60.0698 77.927H59.819V78.2898H59.8962C60.2531 78.2803 60.6052 78.2755 60.9573 78.2755H61.4589C61.9219 78.2755 62.3801 78.2803 62.8431 78.2803C63.3061 78.285 63.7691 78.2898 64.2273 78.2898H64.29L64.3045 78.2277C64.3768 77.8507 64.4105 77.4593 64.4492 77.0774C64.4541 76.982 64.4636 76.8817 64.4732 76.7815L64.4831 76.7051L64.1793 76.6813L64.1589 76.7338Z" fill="black"/>
<path d="M69.9322 76.8533C69.7682 77.1062 69.5415 77.4547 69.3389 77.6217C69.0881 77.827 68.6106 77.9368 68.2682 77.9368H68.0994C67.6701 77.9368 67.5544 77.8938 67.5254 77.8699C67.5156 77.8556 67.4724 77.7745 67.4724 77.3497V77.3258C67.4724 76.7721 67.4773 76.2137 67.4822 75.66C67.4871 75.1015 67.4921 74.5431 67.4921 73.9942C67.4921 73.8271 67.4921 73.6553 67.6272 73.5789C67.7236 73.5264 68.0227 73.5121 68.2445 73.5121H68.3458V73.1445H65.7847V73.5025L65.8523 73.512C65.9535 73.5216 66.0403 73.5311 66.1175 73.5407C66.5227 73.5741 66.5564 73.5789 66.5564 74.1517V77.0299C66.5564 77.2399 66.5564 77.6313 66.4407 77.7888C66.3539 77.8986 65.8861 77.9129 65.7076 77.9177L65.5533 77.9224V78.29H65.6305C66.1176 78.2804 66.5951 78.2804 67.0774 78.2804H67.8539C68.4857 78.2804 69.1224 78.29 69.7542 78.2948L69.8025 78.2995L69.8217 78.2518C70.0147 77.8652 70.1835 77.4022 70.3185 76.8819L70.3378 76.8199L70.0243 76.7053L69.9322 76.8533Z" fill="black"/>
<path d="M71.1665 73.5025L71.2293 73.5121C71.3016 73.5168 71.3643 73.5264 71.427 73.5264C71.7887 73.5598 71.9141 73.5693 71.9141 74.018C71.9141 74.0944 71.9092 74.166 71.9043 74.2424C71.9043 74.3235 71.9043 74.3999 71.9043 74.4762C71.9043 74.9058 71.8994 75.3449 71.8944 75.7888C71.8944 76.228 71.8895 76.6671 71.8895 77.1015C71.8895 77.1731 71.8895 77.2351 71.8895 77.2972C71.8994 77.8317 71.8994 77.8986 71.2384 77.9177L71.166 77.9224V78.29H73.5679V77.9224L73.5004 77.9177C72.8058 77.8747 72.8058 77.8461 72.8058 77.1969V77.1015C72.8058 76.7148 72.8058 76.3282 72.8058 75.9416C72.8009 75.555 72.8009 75.1731 72.8009 74.7865V74.6958C72.796 73.9464 72.825 73.7364 72.8541 73.6934C72.9312 73.555 73.1531 73.5407 73.346 73.5264C73.4087 73.5216 73.4667 73.5168 73.5148 73.5121L73.5776 73.4977V73.1445H71.166L71.1665 73.5025Z" fill="black"/>
<path d="M79.0185 76.7338C78.8738 77.1586 78.5796 77.7027 78.2324 77.8316C78.0539 77.8984 77.8224 77.9318 77.5813 77.9318C77.2726 77.9318 76.7613 77.908 76.6504 77.865C76.6405 77.7886 76.636 77.5452 76.636 77.1252V76.0369C76.636 75.9223 76.636 75.8507 76.6409 75.8173C76.6507 75.8173 76.6698 75.8125 76.6892 75.8125H76.9014C77.3499 75.8125 77.6248 75.8555 77.7068 75.9366C77.8275 76.0464 77.8419 76.2278 77.8612 76.4044L77.8756 76.5381H78.218L78.2279 74.71H77.8951L77.8759 74.8388C77.8228 75.1491 77.7842 75.3543 77.4611 75.4307C77.3019 75.4641 77.1234 75.4689 76.9739 75.4689H76.7038C76.6846 75.4641 76.6604 75.4689 76.6411 75.4641C76.6411 75.445 76.6411 75.4307 76.6411 75.4116C76.6411 75.1395 76.646 74.8675 76.651 74.5954C76.651 74.3233 76.6559 74.0513 76.6559 73.7792C76.6559 73.7505 76.6559 73.7267 76.6559 73.6933C76.651 73.6169 76.651 73.5453 76.6658 73.4737C76.6947 73.4642 76.7718 73.4498 76.9552 73.4498C77.8956 73.4498 78.3345 73.488 78.8313 74.3806L78.865 74.4331L79.1833 74.3233L79.1641 74.2565C79.0869 73.9415 78.9567 73.6408 78.8313 73.3496C78.7975 73.2732 78.7637 73.1921 78.73 73.1157L78.7108 73.0728L78.6673 73.068C78.5082 73.0489 78.3297 73.0441 78.1223 73.0441C77.8136 73.0441 77.5001 73.0632 77.1963 73.0823C76.7043 73.1109 76.1979 73.1205 75.6915 73.1109C75.4986 73.1062 75.3008 73.1062 75.1031 73.1062H75.0307L75.0208 73.4641L75.1125 73.4689C75.6382 73.488 75.7443 73.4928 75.7443 74.0274C75.7443 74.519 75.7492 75.0154 75.7492 75.5166C75.7541 76.013 75.7541 76.5094 75.7541 77.001C75.7541 77.1824 75.7541 77.655 75.6384 77.8029C75.5708 77.8841 75.3345 77.927 74.9342 77.927H74.6834V78.2898H74.7606C75.1127 78.2803 75.4696 78.2755 75.8217 78.2755H76.3233C76.7815 78.2755 77.2445 78.2803 77.7075 78.2803C78.1657 78.285 78.6287 78.2898 79.0917 78.2898H79.1544L79.1643 78.2277C79.2415 77.8459 79.2752 77.4545 79.309 77.0726C79.3189 76.9724 79.3282 76.8769 79.3379 76.7815L79.3428 76.7051L79.039 76.6812L79.0185 76.7338Z" fill="black"/>
<path fill-rule="evenodd" clip-rule="evenodd" d="M83.2437 75.8553C83.5572 76.3278 83.9334 76.8147 84.4591 77.4209L84.4593 77.4208C84.7969 77.8122 84.9898 77.922 85.5011 78.0127L85.5734 78.0222L85.5203 78.3707L84.0782 78.2752C83.7519 78.0723 83.2635 77.33 82.8567 76.7117C82.8426 76.6901 82.8285 76.6688 82.8145 76.6476C82.6602 76.4041 82.5203 76.1941 82.4142 76.0509C82.284 76.0462 82.149 76.0414 82.0139 76.0414H81.9512C81.874 76.0414 81.8354 76.0462 81.821 76.0557V77.2967C81.821 77.4304 81.821 77.6786 81.8837 77.7741C81.9367 77.8552 82.1586 77.9029 82.5444 77.9172L82.6168 77.922L82.6312 77.9936V78.2896H82.554C81.7824 78.2705 81.0251 78.2705 80.2534 78.2896H80.1763V77.922L80.2534 77.9172C80.8708 77.9077 80.948 77.8218 80.948 77.1679V74.2419C80.948 73.5928 80.9287 73.5307 80.2534 73.4735L80.1859 73.4639V73.1203L80.2679 73.125C80.4512 73.1441 80.6248 73.1441 80.8081 73.1441C81.5653 73.1441 81.8981 73.1203 82.1441 73.0964C82.2694 73.0869 82.366 73.0821 82.4865 73.0821C83.3595 73.0821 84.2469 73.5403 84.2469 74.5618C84.2469 75.125 83.7453 75.6357 83.2437 75.8553ZM81.8406 75.7019H81.8792L81.879 75.7019C82.4095 75.7019 83.3018 75.5444 83.3018 74.5134C83.3018 74.1411 83.1089 73.7831 82.8243 73.616C82.6362 73.5062 82.3951 73.4585 82.0623 73.4585C82.0092 73.4585 81.8983 73.4585 81.8308 73.468V73.4728L81.8357 74.8332V75.0623C81.8357 75.2723 81.8357 75.4871 81.8406 75.7019Z" fill="black"/>
<path d="M88.0905 75.2782C87.9795 75.2209 87.8686 75.1636 87.7529 75.1016C87.4201 74.9202 86.9571 74.672 86.9571 74.2281C86.9571 73.7603 87.2995 73.4214 87.7722 73.4214C88.4329 73.4214 88.7609 74.0037 88.9731 74.5145L88.9972 74.5717L89.33 74.481L89.2239 73.6076L89.2141 73.5216C89.2042 73.4071 89.1948 73.2925 89.161 73.178L89.1321 73.0968L89.0549 73.135C88.9729 73.1732 88.8716 73.1875 88.7704 73.1589L88.6594 73.135C88.3989 73.0682 88.1336 73.0061 87.8587 73.0061C87.0533 73.0061 86.1948 73.6123 86.1948 74.5192C86.1948 75.092 86.542 75.5693 87.1931 75.9034C87.2799 75.9464 87.3716 75.9941 87.4681 76.0371C87.9841 76.2757 88.5725 76.5526 88.5725 77.1588C88.5725 77.6552 88.1674 78.0466 87.6513 78.0466C87.5163 78.0466 87.3716 78.0132 87.2028 77.9463C86.8218 77.7936 86.6626 77.407 86.5083 77.0299C86.4842 76.9678 86.4552 76.9106 86.4311 76.8533L86.407 76.8008L86.0646 76.858L86.0744 76.9249C86.1131 77.321 86.1709 77.7888 86.2674 78.247L86.2772 78.2948L86.3255 78.3043C86.6921 78.3711 87.0779 78.4332 87.4734 78.4332C87.6133 78.4332 87.7435 78.4236 87.8882 78.4093C88.6358 78.3186 89.4268 77.7649 89.4268 76.9201C89.4268 75.9559 88.7757 75.6266 88.0908 75.2781" fill="black"/>
<path d="M95.9958 75.2781C95.8849 75.2209 95.7739 75.1636 95.6582 75.1015C95.3206 74.9202 94.8575 74.672 94.8575 74.2281C94.8575 73.7603 95.2048 73.4214 95.6775 73.4214C96.3382 73.4214 96.6662 74.0037 96.8784 74.5097L96.9025 74.5717L97.2353 74.4858L97.1292 73.6076L97.1243 73.536C97.1099 73.4166 97.1002 73.2925 97.0664 73.178L97.0424 73.0968L96.9604 73.1302C96.8688 73.1732 96.7771 73.1827 96.671 73.1589L96.5698 73.135C96.3093 73.073 96.044 73.0061 95.7595 73.0061C94.9637 73.0061 94.1003 73.6123 94.1003 74.5192C94.1003 75.092 94.4428 75.5693 95.0987 75.9034C95.1855 75.9464 95.2772 75.9893 95.3785 76.0371C95.8945 76.2805 96.4781 76.5526 96.4781 77.154C96.4781 77.6552 96.073 78.0466 95.5521 78.0466C95.4267 78.0466 95.2772 78.0132 95.1035 77.9463C94.7273 77.7936 94.5682 77.407 94.4138 77.0299C94.3898 76.9726 94.3655 76.9106 94.3367 76.8533L94.3126 76.796L93.9702 76.8581L93.98 76.9249C94.0332 77.4165 94.0813 77.827 94.173 78.2423L94.1828 78.2948L94.2311 78.3043C94.5977 78.3711 94.9883 78.4332 95.379 78.4332C95.5141 78.4332 95.6539 78.4237 95.7938 78.4093C96.5414 78.3186 97.3324 77.7602 97.3324 76.9201C97.3324 75.9607 96.6861 75.6314 95.9964 75.2781" fill="black"/>
<path d="M98.88 73.5025L98.9427 73.5121C99.015 73.5168 99.0777 73.5264 99.1404 73.5264C99.5022 73.5598 99.6276 73.5693 99.6276 74.018C99.6276 74.0944 99.6227 74.166 99.6227 74.2423C99.6178 74.3235 99.6178 74.3999 99.6178 74.4762C99.6178 74.9058 99.6129 75.3449 99.6129 75.7888C99.608 76.228 99.603 76.6671 99.603 77.1015C99.603 77.173 99.603 77.2351 99.603 77.2972C99.6129 77.8317 99.6129 77.8986 98.9519 77.9177L98.8795 77.9224V78.29H101.286V77.9224L101.214 77.9177C100.524 77.8747 100.524 77.8461 100.524 77.1969V77.1015C100.524 76.7148 100.524 76.3282 100.519 75.9416C100.519 75.555 100.519 75.1731 100.519 74.7865V74.7006C100.509 73.9464 100.543 73.7364 100.568 73.6934C100.65 73.555 100.867 73.5407 101.064 73.5264C101.122 73.5216 101.18 73.5168 101.233 73.5121L101.296 73.4977V73.1445H98.8795L98.88 73.5025Z" fill="black"/>
<path d="M106.37 73.5028L106.443 73.5076C107.325 73.5458 107.325 73.794 107.325 74.6293V76.8011L107.065 76.529C106.486 75.918 105.907 75.3071 105.343 74.6961C105.121 74.4622 104.904 74.2236 104.687 73.9897C104.547 73.8322 104.407 73.6794 104.268 73.5267C104.176 73.4312 104.075 73.3167 104.002 73.1878L103.978 73.1496H102.44V73.5028L102.507 73.5076C103.11 73.5458 103.322 73.6747 103.322 74.3143C103.322 74.825 103.298 75.3548 103.279 75.8608C103.265 76.1472 103.255 76.4336 103.245 76.7199C103.245 76.7581 103.245 76.8059 103.245 76.8584C103.24 77.1113 103.24 77.5839 103.139 77.7318C103.048 77.875 102.797 77.8941 102.594 77.9085C102.56 77.9132 102.522 77.918 102.493 77.918L102.421 77.9275V78.2903H104.658V77.9371L104.523 77.918C104.292 77.8893 103.94 77.8511 103.843 77.6698C103.742 77.4788 103.742 76.9108 103.742 76.696C103.732 75.9085 103.732 75.1066 103.732 74.3286C104.171 74.7868 104.615 75.2641 105.039 75.7223C105.232 75.9276 105.42 76.1328 105.613 76.3381C105.777 76.5194 105.941 76.696 106.105 76.8726C106.274 77.054 106.438 77.2354 106.607 77.412C106.771 77.5886 106.988 77.8273 107.181 78.0707C107.253 78.1662 107.335 78.2759 107.383 78.381L107.412 78.443L107.784 78.3284L107.774 78.2664C107.735 77.9752 107.735 77.6745 107.735 77.3834C107.735 76.4383 107.764 75.498 107.788 74.7056L107.793 74.6006C107.803 74.3858 107.817 73.8751 107.89 73.7606C108.049 73.5267 108.319 73.498 108.56 73.498H108.637V73.1496H106.37L106.37 73.5028Z" fill="black"/>
<path d="M114.044 76.7624C113.566 77.3972 113.113 78.0034 112.259 78.0034C110.986 78.0034 110.311 76.8435 110.311 75.7027C110.311 74.6001 110.966 73.4355 112.177 73.4355C113.021 73.4355 113.556 73.8937 113.812 74.8436L113.831 74.9008L114.188 74.8817L114.145 73.3305L113.947 73.235L113.913 73.2875C113.875 73.3352 113.827 73.3543 113.749 73.3543C113.648 73.3543 113.518 73.3066 113.402 73.2684C113.363 73.2541 113.325 73.2398 113.286 73.2255C112.857 73.0918 112.486 73.0298 112.11 73.0298C111.097 73.0298 110.147 73.5214 109.631 74.3137C109.37 74.7004 109.211 75.2397 109.211 75.7075C109.211 77.2444 110.46 78.3995 112.124 78.3995C112.346 78.3995 112.549 78.3852 112.732 78.347C112.799 78.3375 112.872 78.3232 112.934 78.3041C113.079 78.2754 113.214 78.242 113.354 78.242C113.46 78.242 113.576 78.2611 113.687 78.2993L113.749 78.3232L113.778 78.2611C114.01 77.7838 114.203 77.3113 114.357 76.9151L114.381 76.8483L114.077 76.7146L114.044 76.7624Z" fill="black"/>
<path d="M119.455 76.7338C119.315 77.1586 119.021 77.6979 118.669 77.8316C118.495 77.8984 118.264 77.9318 118.018 77.9318C117.7 77.9318 117.174 77.908 117.087 77.8698C117.077 77.803 117.073 77.5595 117.073 77.1252V76.0369C117.073 75.9223 117.077 75.8507 117.077 75.8173C117.092 75.8173 117.106 75.8126 117.126 75.8126H117.338C117.791 75.8126 118.061 75.8555 118.143 75.9367C118.264 76.0464 118.283 76.223 118.303 76.3996L118.317 76.5381H118.659L118.669 74.71H118.337L118.312 74.8436C118.259 75.1539 118.221 75.3543 117.898 75.4307C117.739 75.4641 117.565 75.4689 117.411 75.4689H117.145C117.116 75.4689 117.102 75.4689 117.078 75.4641C117.078 75.445 117.078 75.4307 117.078 75.4116C117.078 75.1395 117.083 74.8675 117.088 74.5954C117.092 74.3233 117.097 74.0513 117.097 73.7792C117.097 73.7505 117.097 73.7267 117.093 73.698C117.093 73.6217 117.088 73.5453 117.102 73.4737C117.131 73.4642 117.208 73.4498 117.392 73.4498C118.337 73.4498 118.776 73.488 119.273 74.3806L119.302 74.4331L119.62 74.3233L119.601 74.2565C119.528 73.9462 119.398 73.6503 119.278 73.3639C119.239 73.278 119.205 73.1969 119.167 73.1157L119.152 73.0728L119.109 73.068C118.945 73.0489 118.766 73.0441 118.559 73.0441C118.25 73.0441 117.937 73.0632 117.638 73.0823C117.339 73.1014 117.025 73.1205 116.721 73.1205C116.524 73.1205 116.331 73.1157 116.133 73.1109C115.935 73.1062 115.738 73.1062 115.545 73.1062H115.472L115.458 73.4642L115.554 73.4689C116.075 73.488 116.186 73.4928 116.186 74.0274C116.186 74.519 116.186 75.0154 116.191 75.5166C116.191 76.013 116.196 76.5094 116.196 77.0011C116.196 77.1824 116.196 77.655 116.075 77.8029C116.013 77.8841 115.776 77.927 115.371 77.927H115.12V78.2134L115.13 78.2898H115.207C115.559 78.2803 115.912 78.2755 116.259 78.2755H116.76C117.223 78.2755 117.682 78.2803 118.145 78.2803C118.608 78.285 119.071 78.2898 119.529 78.2898H119.592L119.601 78.2277C119.679 77.8554 119.712 77.4688 119.746 77.0917C119.756 76.9867 119.765 76.8865 119.775 76.7815L119.785 76.7051L119.476 76.6813L119.455 76.7338Z" fill="black"/>
<path d="M127.274 77.9412C127.129 77.9269 126.738 77.8983 126.627 77.8076C126.526 77.7217 126.483 77.6262 126.483 77.4687C126.483 77.1966 126.483 76.9246 126.483 76.6573C126.478 76.3852 126.478 76.1131 126.478 75.8458V75.211C126.478 74.6144 126.478 73.9938 126.492 73.3829V73.3256L126.347 73.2922L126.323 73.297C125.648 73.5404 125.06 73.76 124.529 73.97L124.481 73.9891L124.466 74.3184H124.548C124.674 74.3137 124.794 74.3137 124.915 74.3137C125.166 74.3137 125.407 74.3184 125.648 74.3184V77.3398C125.648 77.5164 125.556 77.6978 125.421 77.8028C125.267 77.9174 124.896 77.9269 124.741 77.9317L124.669 77.9365V78.2897H124.741C125.585 78.2802 126.425 78.2802 127.273 78.2897H127.346V78.0129L127.341 77.946L127.274 77.9412Z" fill="black"/>
<path fill-rule="evenodd" clip-rule="evenodd" d="M130.77 75.6744C131.195 75.3975 131.59 75.135 131.59 74.5336C131.59 73.8128 130.886 73.326 130.23 73.326C129.463 73.326 128.841 73.9131 128.841 74.6338C128.841 75.1732 129.285 75.5837 129.7 75.8844C129.683 75.8952 129.667 75.9054 129.651 75.9154L129.651 75.9154C129.624 75.9318 129.598 75.9477 129.574 75.9655C129.169 76.2328 128.754 76.5144 128.754 77.1015C128.754 77.8986 129.507 78.3855 130.211 78.3855C130.949 78.3855 131.745 77.8414 131.745 77.0252C131.745 76.3426 131.243 75.9846 130.77 75.6744V75.6744ZM129.555 74.4001C129.555 74.0087 129.883 73.6937 130.283 73.6937C130.611 73.6937 130.958 74.0565 130.958 74.4001C130.958 74.9061 130.833 75.1018 130.418 75.4264C129.974 75.1782 129.555 74.9395 129.555 74.4001ZM129.395 77.1107C129.395 77.6453 129.723 77.9938 130.23 77.9938C130.674 77.9938 130.973 77.5881 130.973 77.211C130.973 76.6143 130.539 76.3805 130.037 76.1132C129.738 76.3136 129.395 76.6382 129.395 77.1107Z" fill="black"/>
<path fill-rule="evenodd" clip-rule="evenodd" d="M132.969 75.0679C132.969 74.0894 133.703 73.3209 134.638 73.3209L134.638 73.3209C135.67 73.3209 136.215 74.1992 136.215 75.0679C136.215 75.9032 135.603 76.7814 135.039 77.3303C134.45 77.8984 133.982 78.1991 133.196 78.5332L133.143 78.557L132.974 78.3327L133.023 78.2897C133.143 78.1752 133.269 78.0654 133.394 77.9556C133.438 77.9152 133.483 77.8748 133.528 77.8343C133.784 77.6022 134.043 77.3675 134.281 77.1155C134.421 76.9724 134.561 76.8196 134.691 76.6621C134.214 76.6526 133.804 76.5141 133.5 76.2707C133.153 75.9891 132.969 75.5738 132.969 75.0679ZM134.908 76.3092H134.946C135.289 75.9464 135.443 75.3546 135.443 74.9154C135.443 74.462 135.27 73.6935 134.638 73.6935C134.045 73.6935 133.828 74.3904 133.828 74.8582C133.828 75.1971 133.905 76.3092 134.908 76.3092Z" fill="black"/>
<path d="M138.131 73.4354C137.933 73.4354 137.904 73.3399 137.899 73.2445V73.1824L137.653 73.1395L137.629 73.2015C137.465 73.6931 137.33 74.1132 137.219 74.5141L137.2 74.5905L137.499 74.6669L137.591 74.5141C137.764 74.2421 137.764 74.2421 138.179 74.2421C138.724 74.2421 139.269 74.2516 139.814 74.2516C139.674 74.5237 139.52 74.7862 139.385 75.0057L139.366 75.0392C139.129 75.4353 138.888 75.8506 138.657 76.2659L138.454 76.6334C138.174 77.1537 137.88 77.6835 137.61 78.2181L137.571 78.2992L138.126 78.4472L138.189 78.4615L138.213 78.4042C138.57 77.6548 138.951 76.9007 139.312 76.1704C139.467 75.8649 139.616 75.5594 139.771 75.254C139.954 74.8912 140.142 74.5189 140.316 74.1561C140.349 74.0893 140.383 74.0225 140.407 73.9557C140.451 73.8602 140.489 73.7743 140.537 73.6884L140.653 73.4784L138.131 73.4354Z" fill="black"/>
</svg>
