<svg width="172" height="102" viewBox="0 0 172 102" fill="none" xmlns="http://www.w3.org/2000/svg">
<path fill-rule="evenodd" clip-rule="evenodd" d="M131.747 34.8307L124.697 41.4002C121.371 38.2152 117.691 36.6227 113.656 36.6227C111.152 36.5685 108.684 37.2243 106.539 38.514C104.515 39.759 102.888 41.5546 101.851 43.69C100.729 46.0405 100.171 48.6193 100.221 51.2222C100.158 53.9155 100.763 56.5826 101.984 58.9858C103.063 61.0983 104.724 62.8593 106.772 64.0619C111.714 66.7354 117.757 66.3355 122.302 63.0341C124.563 61.3402 125.971 58.7476 126.16 55.9333H112.591V46.5098H136.735C137.074 48.2598 137.252 50.037 137.266 51.8193C137.266 56.5538 136.213 60.7011 134.108 64.2611C132.084 67.7425 129.139 70.6009 125.595 72.5233C121.929 74.4935 117.82 75.4984 113.656 75.443C109.246 75.5171 104.896 74.4176 101.053 72.2576C97.4554 70.242 94.5039 67.2511 92.5398 63.6312C90.5187 59.8106 89.5002 55.5416 89.5792 51.2222C89.58 46.3112 90.6442 42.0309 92.7718 38.3812C94.8148 34.8149 97.8227 31.8945 101.451 29.9539C108.432 26.3568 116.652 26.0289 123.898 29.0583C126.93 30.3451 129.618 32.322 131.747 34.8307ZM35.1763 27.9964H25V74.4475H35.1763V27.9964ZM43.1573 74.4475H53.3335V55.9334H73.4192V74.4475H83.5941V27.9964H73.4192V46.5099H53.3335V27.9964H43.1573V74.4475ZM147.404 33.6239C147.412 35.5213 146.273 37.2368 144.519 37.9689C142.764 38.701 140.741 38.3053 139.393 36.9666C138.045 35.628 137.639 33.6105 138.365 31.8566C139.091 30.1027 140.805 28.9586 142.707 28.9586C143.954 28.9403 145.156 29.4252 146.041 30.3035C146.925 31.1818 147.416 32.379 147.404 33.6239ZM144.643 30.2405C145.848 30.9399 146.579 32.2338 146.557 33.6239C146.58 35.009 145.854 36.2992 144.656 37.0006C143.459 37.7021 141.976 37.7062 140.775 37.0114C139.573 36.3166 138.84 35.0304 138.855 33.6452C138.825 32.2552 139.549 30.9573 140.75 30.2513C141.95 29.5452 143.439 29.5411 144.643 30.2405ZM144.779 35.8828H143.721L142.6 34.0889H142.114V35.8828H141.098V31.2594H142.728C143.806 31.2594 144.505 31.7031 144.505 32.6535V32.6742C144.531 33.2647 144.13 33.7893 143.552 33.9206L144.779 35.8828ZM142.706 32.0417C143.214 32.0417 143.51 32.2106 143.51 32.6955V32.7175C143.51 33.1611 143.236 33.3926 142.706 33.3926H142.114V32.0417H142.706Z" fill="black"/>
</svg>
