<svg width="172" height="102" viewBox="0 0 172 102" fill="none" xmlns="http://www.w3.org/2000/svg">
<path fill-rule="evenodd" clip-rule="evenodd" d="M75.2292 44.2488C75.2292 44.2488 75.5811 45.6618 77.3716 45.6618C77.6867 45.6597 94.2713 45.6618 94.2768 45.6618C95.9031 45.6618 96.316 44.2488 96.316 44.2488H75.2292" fill="black"/>
<mask id="mask0_1_2453" style="mask-type:alpha" maskUnits="userSpaceOnUse" x="75" y="18" width="11" height="25">
<path fill-rule="evenodd" clip-rule="evenodd" d="M75.9769 18H85.1542V42.9894H75.9769V18Z" fill="white"/>
</mask>
<g mask="url(#mask0_1_2453)">
<path fill-rule="evenodd" clip-rule="evenodd" d="M78.3354 25.9182C79.3665 25.9296 80.5854 26.8136 80.6052 28.6552L80.6019 42.9891H82.2485L82.2474 28.6077C82.2474 24.4412 79.081 24.5565 77.9659 24.8688C76.6251 25.2444 75.9767 26.314 75.9767 26.9533C75.9767 26.9533 76.49 25.9182 78.3354 25.9182" fill="black"/>
<path fill-rule="evenodd" clip-rule="evenodd" d="M80.3191 21.5099C81.1405 21.5673 81.5215 22.4392 80.8533 22.8645C80.474 23.1064 79.6839 23.078 79.2677 22.3895C78.8318 21.7436 78.9591 20.7226 79.5861 20.1035C80.1874 19.4543 81.208 19.332 82.0733 19.7377C82.9309 20.1269 83.5091 21.0535 83.5091 21.9795C83.5091 22.906 83.5091 42.9892 83.5091 42.9892H85.153C85.153 42.9892 85.154 24.485 85.154 21.9795C85.154 20.2826 84.1268 18.9116 82.7086 18.3246C81.3371 17.6913 79.5021 17.9905 78.5424 19.16C77.5497 20.2547 77.4306 21.9724 78.2854 23.0818C79.1123 24.2028 80.6919 24.2279 81.3475 23.6644C82.6954 22.5031 81.5018 20.9749 80.3191 21.5099" fill="black"/>
</g>
<path fill-rule="evenodd" clip-rule="evenodd" d="M76.3745 28.764C77.1163 28.6052 77.7114 29.1462 77.7114 30.3136C77.7114 30.7798 77.7098 42.9898 77.7098 42.9898H79.3542V30.4102C79.3542 28.0242 78.0431 27.3123 76.6359 27.737C75.4071 28.1067 75.2292 29.4416 75.2292 29.4547C75.2292 29.4547 75.5471 28.9415 76.3745 28.764" fill="black"/>
<mask id="mask1_1_2453" style="mask-type:alpha" maskUnits="userSpaceOnUse" x="86" y="18" width="10" height="25">
<path fill-rule="evenodd" clip-rule="evenodd" d="M86.3916 18H95.569V42.9894H86.3916V18Z" fill="white"/>
</mask>
<g mask="url(#mask1_1_2453)">
<path fill-rule="evenodd" clip-rule="evenodd" d="M93.2099 25.9182C92.1793 25.9296 90.9599 26.8136 90.9407 28.6552L90.9429 42.9891H89.2979V28.6077C89.2979 24.4412 92.4659 24.5565 93.5799 24.8688C94.9202 25.2444 95.5691 26.314 95.5691 26.9533C95.5691 26.9533 95.0563 25.9182 93.2099 25.9182" fill="black"/>
<path fill-rule="evenodd" clip-rule="evenodd" d="M91.2271 21.5102C90.4057 21.5675 90.0247 22.4395 90.6929 22.8648C91.0717 23.1067 91.8618 23.0783 92.278 22.3898C92.7134 21.7439 92.5854 20.7229 91.9595 20.1037C91.3588 19.4545 90.3382 19.3322 89.4729 19.7379C88.6147 20.1272 88.0355 21.0537 88.0355 21.9797C88.0355 22.9063 88.0355 42.9894 88.0355 42.9894H86.3927C86.3927 42.9894 86.3916 24.4853 86.3916 21.9797C86.3916 20.2828 87.4189 18.9118 88.8365 18.3249C90.2091 17.6915 92.0441 17.9907 93.0038 19.1602C93.9959 20.2549 94.1151 21.9726 93.2602 23.0821C92.4333 24.203 90.8537 24.2281 90.1976 23.6647C88.8497 22.5033 90.0444 20.9751 91.2271 21.5102" fill="black"/>
</g>
<path fill-rule="evenodd" clip-rule="evenodd" d="M95.171 28.764C94.4292 28.6052 93.834 29.1462 93.834 30.3136C93.834 30.7798 93.8362 42.9898 93.8362 42.9898H92.1913V30.4102C92.1913 28.0242 93.5024 27.3123 94.9096 27.737C96.1373 28.1067 96.3163 29.4416 96.3163 29.4547C96.3163 29.4547 95.9989 28.9415 95.171 28.764" fill="black"/>
<mask id="mask2_1_2453" style="mask-type:alpha" maskUnits="userSpaceOnUse" x="14" y="53" width="53" height="18">
<path fill-rule="evenodd" clip-rule="evenodd" d="M14 53.0564H66.0378V70.189H14V53.0564Z" fill="white"/>
</mask>
<g mask="url(#mask2_1_2453)">
<path fill-rule="evenodd" clip-rule="evenodd" d="M56.9513 61.3316C55.9965 61.3316 55.3684 61.1623 55.3695 61.1656L55.364 54.0994C55.8922 54.0994 56.3364 54.1065 56.8953 54.1065C60.1413 54.1065 60.7436 56.451 60.7804 57.9661C60.8386 60.3794 59.0536 61.3316 56.9513 61.3316ZM66.0375 69.0515C65.405 69.0515 63.8336 68.9898 62.7267 67.3152C61.9948 66.2467 59.6131 61.8662 59.6131 61.8662C60.7803 61.495 62.9282 60.5668 62.9282 57.5251C62.9282 56.4571 62.2403 53.5634 58.1092 53.5634H51.7551V53.8385C52.8296 53.8385 53.3111 54.2327 53.3111 55.7419L53.3127 61.5397V67.1481C53.3127 68.6567 52.8471 69.0515 51.7732 69.0515V69.3245H56.909V69.0515C55.835 69.0515 55.3684 68.6567 55.3684 67.1481V62.1245C57.0786 62.1245 57.4657 62.3074 58.0027 63.1673L61.0258 68.0681C61.7005 69.171 63.1319 69.444 64.2926 69.4653C65.2584 69.4822 66.0375 69.3245 66.0375 69.3245V69.0515V69.0515Z" fill="#302C2D"/>
<path fill-rule="evenodd" clip-rule="evenodd" d="M28.9187 54.5233C28.284 54.0936 24.9622 53.0562 22.6518 53.0562C17.1191 53.0562 13.9664 57.7228 13.9664 62.2037C13.9664 66.8692 17.5616 70.1889 22.861 70.1889C26.4798 70.1889 28.4635 68.309 29.2811 67.5419V65.7783H29.118C28.021 67.1477 26.3403 69.2132 22.6743 69.2132C20.2476 69.2132 16.301 67.3104 16.301 61.7844C16.301 58.3731 17.8197 54.0319 22.5579 54.0319C26.9701 54.0319 28.0902 56.3054 28.698 57.5131H28.9154L28.9187 54.5233" fill="#302C2D"/>
</g>
<path fill-rule="evenodd" clip-rule="evenodd" d="M46.9945 61.878C46.9945 66.1498 45.0097 69.3062 40.692 69.3062C36.6763 69.3062 34.2011 65.1741 34.2011 61.4139C34.2011 56.0277 37.283 54.0327 40.5509 54.0327C44.6364 54.0327 46.9945 58.1401 46.9945 61.878M49.3277 61.6229C49.3277 56.7942 45.2659 53.0564 40.6209 53.0564C36.0226 53.0564 31.8674 56.632 31.8674 61.808C31.8674 66.4042 35.5082 70.189 40.5506 70.189C46.1542 70.189 49.3277 65.708 49.3277 61.6229" fill="#302C2D"/>
<path fill-rule="evenodd" clip-rule="evenodd" d="M113.349 53.5579V53.838C114.42 53.838 114.889 54.2322 114.889 55.7408V67.1465C114.889 68.6562 114.42 69.0499 113.349 69.0499V69.3228H118.187V69.0499C117.253 69.0499 116.857 68.7949 116.857 66.5891V61.3323H126.499V66.7321C126.499 68.9379 126.102 69.0499 125.168 69.0499V69.3228H130.008V69.0499C128.933 69.0499 128.468 68.7992 128.468 67.2896V55.7408C128.468 54.2317 128.933 53.838 130.008 53.838V53.5579H125.168V53.838C126.102 53.838 126.499 54.093 126.499 56.2972V60.6427H116.857V56.2972C116.857 54.093 117.253 53.838 118.187 53.838V53.5579H113.349" fill="#302C2D"/>
<path fill-rule="evenodd" clip-rule="evenodd" d="M133.648 69.3239H138.784V69.0509C137.711 69.0509 137.244 68.6573 137.244 67.1476V55.7408C137.244 54.2311 137.711 53.8375 138.784 53.8375V53.5579H133.648V53.8375C134.723 53.8375 135.188 54.2311 135.188 55.7408V67.1476C135.188 68.6573 134.723 69.0509 133.648 69.0509V69.3239" fill="#302C2D"/>
<path fill-rule="evenodd" clip-rule="evenodd" d="M68.8119 69.3239H73.8604V69.0509C72.787 69.0509 72.3203 68.6573 72.3203 67.1476V55.7408C72.3203 54.2317 72.787 53.838 73.8604 53.838V53.5579H68.8119V53.838C69.8858 53.838 70.3514 54.2317 70.3514 55.7408V67.1476C70.3514 68.6573 69.8858 69.0509 68.8119 69.0509V69.3239" fill="#302C2D"/>
<path fill-rule="evenodd" clip-rule="evenodd" d="M107.593 54.0646C109.656 54.0646 110.221 55.0474 110.434 56.4091H110.747V53.5579H97.0316V56.4173H97.3726C97.5862 55.0507 98.1478 54.0646 100.216 54.0646H102.877V66.8462C102.877 68.749 102.645 69.0509 101.382 69.0509V69.3239H106.425V69.0509C105.164 69.0509 104.931 68.749 104.931 66.8462V54.0646H107.593" fill="#302C2D"/>
<path fill-rule="evenodd" clip-rule="evenodd" d="M92.6125 56.9207C92.6125 54.5647 92.9107 53.8375 94.4304 53.8375V53.5579C94.4261 53.5579 90.1429 53.5579 90.1385 53.5579V53.8375C91.3997 53.8375 91.8757 54.3376 91.9229 57.0069V66.0212L81.0463 53.5579C80.6213 53.5579 77.825 53.5585 77.8245 53.5579V53.8375C78.9934 53.8375 79.5051 54.1858 79.5051 55.8571C79.5051 58.5505 79.5133 63.3776 79.5133 66.6344C79.5133 68.8582 79.0044 69.0515 77.8486 69.0515V69.3228H81.838V69.0515C80.7399 69.0515 80.2035 68.9412 80.2035 66.6142C80.2051 66.6131 80.2051 55.8866 80.2051 55.8866L92.6147 69.9829L92.6125 56.9207" fill="#302C2D"/>
<path fill-rule="evenodd" clip-rule="evenodd" d="M151.016 62.2794H146.76L148.805 56.9287L151.016 62.2794ZM152.071 69.0498V69.3239H157.412L157.394 69.0498C156.32 69.0498 155.597 68.1456 155.038 66.7997L149.461 53.5737L149.204 52.9627L148.968 53.6239L143.969 66.5442C143.246 68.471 142.731 69.0498 141.448 69.0498V69.3239H145.842L145.837 69.0498C145.114 69.0498 144.648 68.7478 144.6 68.406C144.533 67.9463 144.684 67.7066 144.872 67.1623C145.446 65.6384 146.489 62.968 146.489 62.968H151.233L152.936 67.1481C153.029 67.3566 153.262 67.9834 153.262 68.3078C153.262 68.7959 152.819 69.0498 152.071 69.0498V69.0498Z" fill="#302C2D"/>
<path fill-rule="evenodd" clip-rule="evenodd" d="M156.948 53.7679H156.928L156.286 55.2787C156.272 55.3153 156.246 55.3409 156.215 55.3409C156.183 55.3409 156.162 55.3306 156.141 55.2989L155.531 53.7778H155.5V54.4155C155.5 54.457 155.5 54.9194 155.511 55.0324C155.522 55.1766 155.584 55.2372 155.676 55.2372H155.734C155.754 55.2372 155.76 55.253 155.76 55.2738V55.3611C155.76 55.3819 155.754 55.3917 155.734 55.3917C155.702 55.3917 155.517 55.3868 155.408 55.3868C155.294 55.3868 155.113 55.3917 155.071 55.3917C155.051 55.3917 155.036 55.3819 155.036 55.3611V55.2689C155.036 55.2481 155.046 55.2372 155.062 55.2372H155.119C155.211 55.2372 155.284 55.1558 155.294 55.0625C155.315 54.8676 155.326 54.3025 155.326 54.2298V53.8193C155.326 53.7166 155.274 53.6751 155.181 53.6751H155.119C155.097 53.6751 155.087 53.6653 155.087 53.6495V53.5621C155.087 53.5419 155.097 53.5315 155.119 53.5315C155.139 53.5315 155.315 53.5419 155.428 53.5419C155.594 53.5419 155.738 53.5315 155.812 53.5315C155.872 53.5315 155.888 53.5419 155.905 53.5828L156.348 54.7136L156.814 53.5828C156.834 53.5523 156.855 53.5419 156.896 53.5419H157.501C157.527 53.5419 157.538 53.5523 157.538 53.5621V53.644C157.538 53.6653 157.527 53.6751 157.507 53.6751H157.465C157.372 53.6751 157.362 53.7264 157.362 53.7881C157.362 53.8291 157.351 54.4155 157.351 54.4663C157.351 54.5187 157.362 55.0423 157.362 55.0941C157.362 55.1766 157.393 55.2372 157.455 55.2372H157.553C157.569 55.2372 157.578 55.2481 157.578 55.2689V55.3611C157.578 55.3819 157.573 55.3917 157.553 55.3917C157.516 55.3917 157.3 55.3819 157.144 55.3819C157.01 55.3819 156.772 55.3917 156.742 55.3917C156.721 55.3917 156.71 55.3868 156.71 55.3611V55.2689C156.71 55.2481 156.715 55.2372 156.736 55.2372H156.834C156.906 55.2372 156.938 55.1968 156.948 55.1449V53.7679ZM154.261 54.3741C154.261 54.6619 154.25 55.0943 154.261 55.1353C154.27 55.1969 154.29 55.2374 154.352 55.2374H154.467C154.488 55.2374 154.497 55.2483 154.497 55.269V55.3613C154.497 55.387 154.483 55.3919 154.461 55.3919C154.431 55.3919 154.198 55.382 154.043 55.382C153.909 55.382 153.65 55.3919 153.619 55.3919C153.594 55.3919 153.588 55.387 153.588 55.3717V55.269C153.588 55.2483 153.594 55.2374 153.614 55.2374H153.744C153.795 55.2374 153.836 55.1969 153.836 55.0839V53.6955C153.764 53.6955 153.608 53.6955 153.515 53.7266C153.401 53.7626 153.33 53.8909 153.268 54.0149C153.258 54.0296 153.247 54.0504 153.227 54.0455L153.154 54.0247C153.139 54.0198 153.134 54.004 153.139 53.9832C153.163 53.8609 153.231 53.5366 153.236 53.5006C153.242 53.47 153.258 53.4591 153.273 53.4591C153.293 53.4591 153.304 53.47 153.314 53.4798C153.335 53.5006 153.387 53.5421 153.506 53.5421C153.65 53.5421 153.826 53.5524 154.043 53.5524C154.239 53.5524 154.477 53.5421 154.632 53.5421C154.772 53.5421 154.803 53.4956 154.818 53.4798C154.829 53.47 154.844 53.4591 154.86 53.4591C154.875 53.4591 154.891 53.47 154.891 53.5006C154.897 53.5317 154.933 53.85 154.952 53.9887C154.952 54.0089 154.948 54.0198 154.933 54.0247L154.871 54.0455C154.849 54.0504 154.844 54.0455 154.829 54.0149C154.798 53.9532 154.704 53.7883 154.611 53.737C154.519 53.6955 154.338 53.6955 154.261 53.6955V54.3741V54.3741Z" fill="#302C2D"/>
<mask id="mask3_1_2453" style="mask-type:alpha" maskUnits="userSpaceOnUse" x="66" y="77" width="15" height="8">
<path fill-rule="evenodd" clip-rule="evenodd" d="M66.2286 77.0918H80.6373V84.0106H66.2286V77.0918Z" fill="white"/>
</mask>
<g mask="url(#mask3_1_2453)">
<path fill-rule="evenodd" clip-rule="evenodd" d="M70.72 83.9167V80.9913H67.2511V83.9167H66.2288V77.2278H67.2511V80.121H70.72V77.2278H71.7429V83.9167H70.72" fill="#302C2D"/>
<path fill-rule="evenodd" clip-rule="evenodd" d="M77.0735 77.9714C75.8293 77.9714 74.5429 78.9045 74.5429 80.561C74.5429 82.2175 75.8293 83.1615 77.0735 83.1615C78.2968 83.1615 79.6041 82.2175 79.6041 80.561C79.6041 78.9045 78.2968 77.9714 77.0735 77.9714ZM77.0736 84.043C75.281 84.043 73.5098 82.7321 73.5098 80.5617C73.5098 78.4122 75.281 77.0914 77.0736 77.0914C78.8657 77.0914 80.6375 78.4122 80.6375 80.5617C80.6375 82.7321 78.8657 84.043 77.0736 84.043V84.043Z" fill="#302C2D"/>
</g>
<path fill-rule="evenodd" clip-rule="evenodd" d="M84.9018 78.0979V83.9171H83.8789V78.0979H81.7173V77.2282H87.0628V78.0979H84.9018" fill="#302C2D"/>
<path fill-rule="evenodd" clip-rule="evenodd" d="M89.121 83.9171V77.2282H92.7475V78.0979H90.1428V80.1214H92.3264V80.9917H90.1428V83.0468H93.1165V83.9171H89.121" fill="#302C2D"/>
<mask id="mask4_1_2453" style="mask-type:alpha" maskUnits="userSpaceOnUse" x="95" y="77" width="11" height="8">
<path fill-rule="evenodd" clip-rule="evenodd" d="M95.3417 77.0918H105.317V84.0106H95.3417V77.0918Z" fill="white"/>
</mask>
<g mask="url(#mask4_1_2453)">
<path fill-rule="evenodd" clip-rule="evenodd" d="M95.3416 83.9167V77.2278H96.3644V83.0464H99.3276V83.9167H95.3416" fill="#302C2D"/>
<path fill-rule="evenodd" clip-rule="evenodd" d="M102.997 84.043C102.27 84.043 101.606 83.8224 101.257 83.592L101.026 82.4809C101.668 82.9313 102.323 83.1623 103.051 83.1623C103.799 83.1623 104.295 82.7424 104.295 82.1238C104.295 81.5478 103.935 81.1596 103.124 80.897C101.921 80.5088 101.29 79.8383 101.29 78.915C101.29 77.9825 101.985 77.0914 103.42 77.0914C104.083 77.0914 104.642 77.3011 104.884 77.4791L104.684 78.3183C104.452 78.1501 103.926 77.9306 103.377 77.9306C102.692 77.9306 102.27 78.3494 102.27 78.8424C102.27 79.2825 102.65 79.639 103.356 79.8803C104.526 80.2784 105.317 80.897 105.317 82.0294C105.317 83.2251 104.516 84.043 102.997 84.043" fill="#302C2D"/>
</g>
</svg>
