<svg width="172" height="102" viewBox="0 0 172 102" fill="none" xmlns="http://www.w3.org/2000/svg">
<path fill-rule="evenodd" clip-rule="evenodd" d="M105.013 71.3776H108.402V73.6759H102.668V63.2646H105.013V71.3776" fill="black"/>
<path fill-rule="evenodd" clip-rule="evenodd" d="M98.7902 65.5629V67.3035H101.445V69.5857H98.7902V71.3776H101.593V73.6759H96.461V63.2646H101.593V65.5629H98.7902" fill="black"/>
<path fill-rule="evenodd" clip-rule="evenodd" d="M93.544 73.6759H91.1993V65.5629H89.2606V63.2646H95.4834V65.5629H93.544V73.6759" fill="black"/>
<path fill-rule="evenodd" clip-rule="evenodd" d="M81.2772 68.2815C81.2772 69.194 81.5546 69.9603 82.0266 70.5131C82.4818 71.0673 83.1189 71.394 83.8192 71.394C84.5188 71.394 85.1559 71.0673 85.6111 70.5131C86.0831 69.9603 86.3606 69.194 86.3606 68.2815C86.3606 67.5658 86.0831 66.8809 85.6111 66.3759C85.1559 65.8722 84.5188 65.5449 83.8192 65.5449C83.1189 65.5449 82.4818 65.8722 82.0266 66.3759C81.5546 66.8809 81.2772 67.5658 81.2772 68.2815ZM88.7871 68.2821C88.7871 69.9609 88.2666 71.3945 87.402 72.4053C86.5064 73.414 85.2687 74.0174 83.8189 74.0174C82.3684 74.0174 81.1314 73.414 80.2351 72.4053C79.3543 71.3945 78.8338 69.9609 78.8338 68.2821C78.8338 66.7016 79.4196 65.3663 80.3496 64.4209C81.2768 63.4761 82.5159 62.9226 83.8189 62.9226C85.1219 62.9226 86.3603 63.4761 87.2896 64.4209C88.2013 65.3663 88.7871 66.7016 88.7871 68.2821V68.2821Z" fill="black"/>
<path fill-rule="evenodd" clip-rule="evenodd" d="M75.4783 67.2895V63.2646H77.8237V73.6759H75.4783V69.4073H72.3813V73.6759H70.0359V63.2646H72.3813V67.2895H75.4783" fill="black"/>
<path fill-rule="evenodd" clip-rule="evenodd" d="M123.754 55.6776C123.946 55.7416 124.057 55.7683 124.251 55.8006L124.212 56.0569C123.07 64.1756 119.276 71.4702 113.731 77.0137C107.035 83.6952 97.8132 87.8486 87.6309 87.8486C77.4816 87.8486 68.2447 83.6952 61.5647 77.0137C56.0106 71.4597 52.2126 64.1706 51.074 56.0492C51.0522 55.8778 51.0108 55.7078 50.9806 55.266C51.14 55.4142 51.3227 55.4999 51.532 55.5688C51.5418 55.6453 51.5657 55.9811 51.5812 56.0513C52.7121 64.0344 56.456 71.2047 61.9068 76.6555C68.5046 83.2716 77.6115 87.3597 87.6309 87.3597C97.6664 87.3597 106.773 83.2716 113.387 76.6555C118.831 71.211 122.574 64.0386 123.705 56.0562C123.709 56.0218 123.743 55.7907 123.754 55.6776" fill="black"/>
<path fill-rule="evenodd" clip-rule="evenodd" d="M87.6309 14.4882C77.6115 14.4882 68.5046 18.577 61.9067 25.1762C58.802 28.281 56.2501 31.9511 54.4238 35.9992H53.8893C55.7458 31.805 58.3567 28.0274 61.5647 24.8335C68.2447 18.1373 77.4815 14 87.6309 14C97.8132 14 107.035 18.1373 113.731 24.8335C117.369 28.4727 120.258 32.8622 122.132 37.7412C121.988 37.8437 121.88 37.9463 121.738 38.0938C119.89 33.2309 116.998 28.7881 113.387 25.1762C106.773 18.577 97.6664 14.4882 87.6309 14.4882" fill="black"/>
<path fill-rule="evenodd" clip-rule="evenodd" d="M121.821 56.0536C120.699 63.5253 117.171 70.2327 112.053 75.3365C105.795 81.6099 97.1613 85.4872 87.6308 85.4872C78.1334 85.4872 69.4999 81.6099 63.2259 75.3365C58.1165 70.2271 54.5847 63.526 53.4734 56.0536C53.4538 55.9391 53.4517 55.911 53.4355 55.7874C53.2768 55.7705 53.0752 55.7347 52.9129 55.7017L52.9698 56.0466C54.0888 63.663 57.6817 70.4926 62.8852 75.6948C69.2379 82.0489 78.0027 85.9747 87.6308 85.9747C97.292 85.9747 106.056 82.0489 112.41 75.6948C117.61 70.4947 121.199 63.6594 122.325 56.0522C122.363 55.7972 122.399 55.5935 122.443 55.3175C122.279 55.2578 122.131 55.2016 121.979 55.1369L121.821 56.0536" fill="black"/>
<path fill-rule="evenodd" clip-rule="evenodd" d="M87.6309 16.3614C97.1613 16.3614 105.796 20.2395 112.053 26.4953C115.73 30.1563 118.578 34.6384 120.31 39.639C120.441 39.4557 120.53 39.3496 120.664 39.1852C118.899 34.2381 116.047 29.7903 112.41 26.1518C106.056 19.7998 97.292 15.8557 87.6309 15.8557C78.0028 15.8557 69.2379 19.7998 62.8852 26.1518C60.0362 29.0001 57.6754 32.3268 55.9319 36.0004H56.4721C58.1776 32.4595 60.478 29.2424 63.2259 26.4953C69.4999 20.2395 78.1334 16.3614 87.6309 16.3614" fill="black"/>
<path fill-rule="evenodd" clip-rule="evenodd" d="M129.615 60.4781C130.645 60.4781 131.473 59.6443 131.473 58.6103C131.473 57.5862 130.645 56.751 129.615 56.751C128.582 56.751 127.747 57.5862 127.747 58.6103C127.747 59.6443 128.582 60.4781 129.615 60.4781ZM129.614 60.253C128.708 60.253 127.976 59.5218 127.976 58.6108C127.976 57.7074 128.708 56.9762 129.614 56.9762C130.518 56.9762 131.248 57.7074 131.248 58.6108C131.248 59.5218 130.518 60.253 129.614 60.253V60.253Z" fill="black"/>
<path fill-rule="evenodd" clip-rule="evenodd" d="M129.178 58.4918V57.7556H129.772C130.03 57.7556 130.313 57.7949 130.313 58.1167C130.313 58.5409 129.86 58.4918 129.567 58.4918H129.178ZM129.914 58.6925C130.284 58.6833 130.572 58.5316 130.572 58.1228C130.572 57.9465 130.494 57.7611 130.338 57.6733C130.182 57.5805 130.005 57.5707 129.83 57.5707H128.924V59.6534H129.177V58.6925H129.645L130.24 59.6534H130.543L129.914 58.6925V58.6925Z" fill="black"/>
<path fill-rule="evenodd" clip-rule="evenodd" d="M105.863 53.6371L106.84 57.237C106.84 57.237 105.212 59.1596 101.856 59.1596C98.4847 59.1596 96.9352 56.8458 97.0658 54.0284C97.1958 51.4694 98.4503 49.6783 98.5486 45.3443C98.5816 44.0905 98.1574 42.6386 97.3763 41.9881L98.2712 38.5343C100.471 38.7141 103.289 36.0913 103.761 33.8421C104.234 31.6752 103.029 30.3392 100.813 30.2584H99.6409L93.5965 52.8377H87.9097L93.482 32.0833C93.482 32.0833 92.1784 32.5061 91.4942 32.5061C90.7946 32.5061 90.0451 32.2308 90.0451 32.2308L90.8761 29.1176C90.8761 29.1176 92.4228 29.2813 93.6605 28.5803C94.9318 27.8638 96.0887 26.9198 96.0887 26.9198L101.481 26.886C105.212 26.8706 108.763 30.1607 108.437 34.0381C108.128 37.5727 105.064 41.108 101.497 41.4346C102.915 42.477 103.241 45.4096 103.192 46.8594C103.093 49.5631 102.882 50.7846 102.719 52.1543C102.571 53.3105 103.077 54.2883 104.234 54.2883C105.032 54.2883 105.863 53.6371 105.863 53.6371" fill="black"/>
<path fill-rule="evenodd" clip-rule="evenodd" d="M113.031 36.8064C108.862 36.8064 105.914 40.9612 105.001 44.6258C104.072 48.2601 105.392 52.9846 110.018 52.9846C114.612 52.9846 117.773 48.7982 118.327 44.6258C118.814 40.995 117.414 36.8064 113.031 36.8064ZM114.042 44.6924C113.552 46.3705 112.054 49.4155 110.002 49.4155C107.787 49.4155 108.958 45.4089 109.22 44.6749C110.065 42.3779 111.55 40.1955 112.967 40.1955C114.71 40.1955 114.693 42.4109 114.042 44.6924V44.6924Z" fill="black"/>
<path fill-rule="evenodd" clip-rule="evenodd" d="M78.7393 37.8668C78.7393 37.8668 77.6147 36.8237 75.9521 36.8237C72.8088 36.8237 69.7125 40.6035 68.5401 44.5785C67.6769 47.4788 67.5139 52.9521 71.8478 52.9521C73.5105 52.9521 75.0073 51.8942 75.0073 51.8942L74.8128 52.8706H79.8793L86.2981 28.7108H81.15L78.7393 37.8668ZM77.013 44.7076C76.5571 46.3379 75.5779 49.385 73.4608 49.385C71.5544 49.385 72.3201 45.6053 72.6292 44.6114C73.3793 42.2498 74.9436 40.2121 76.3281 40.2121C78.2015 40.2121 77.4021 43.307 77.013 44.7076V44.7076Z" fill="black"/>
<path fill-rule="evenodd" clip-rule="evenodd" d="M145.354 57.5141C145.354 57.5141 143.399 59.2245 141.086 59.2245C138.772 59.2245 136.835 57.4319 137.11 54.7929C137.24 53.5552 137.354 53.2131 137.388 51.5027C137.42 50.3458 137.24 48.228 135.954 47.6731L136.688 44.8388C137.567 44.8711 138.772 44.4799 139.767 43.8288C140.484 43.3715 141.086 42.7702 141.379 42.086C141.819 41.0429 141.346 40.0982 140.092 40.3096C139.717 40.3574 139.049 40.5709 138.348 40.9952C137.486 41.5311 136.475 42.5258 136.084 43.9756L133.787 52.8703H129.519L135.858 28.7913H140.125L137.567 38.3716C138.039 38.0127 139.733 36.8881 141.476 36.8881C143.546 36.8881 145.207 37.8504 145.207 40.1958C145.207 43.5527 142.406 46.1741 139.571 47.0704C140.94 48.0967 141.298 51.3889 141.298 52.7088C141.313 54.3707 141.982 55.0851 142.698 55.0851C143.708 55.0851 144.36 54.2878 144.36 54.2878L145.354 57.5141" fill="black"/>
<path fill-rule="evenodd" clip-rule="evenodd" d="M125.136 49.5142C126.799 49.5142 128.948 47.7223 128.948 47.7223L128.003 51.6987C128.003 51.6987 126.44 52.9694 124.192 52.9694C119.582 52.9694 118.472 48.2288 119.238 44.5951C120.2 40.1804 123.8 36.9057 127.254 36.9057C130.056 36.9057 131.311 38.6814 131.311 38.6814L130.415 42.1683C130.415 42.1683 129.503 40.1643 127.709 40.1643C126.066 40.1643 124.453 42.3628 123.769 44.7251C123.328 46.1917 122.79 49.5142 125.136 49.5142" fill="black"/>
<path fill-rule="evenodd" clip-rule="evenodd" d="M46.0097 27.0327L39.0852 52.8053H33.4167L36.6738 40.6197H32.8786L29.6201 52.8053H24L29.5063 32.0171C29.5063 32.0171 29.0673 32.5559 27.2916 32.5559C26.8673 32.5559 26.3946 32.4084 26.3946 32.4084L27.1932 29.5902C27.1932 29.5902 28.8875 29.6057 29.9467 28.8084C31.1682 27.8637 31.7547 27.0327 31.7547 27.0327H36.5284L33.9372 36.6615H37.7499L40.3236 27.0327H46.0097" fill="black"/>
<path fill-rule="evenodd" clip-rule="evenodd" d="M68.9798 41.4016C68.9798 41.4016 68.1819 41.0272 67.5307 40.9956C67.0742 40.978 65.087 41.304 64.3705 43.8123L61.9584 52.8539H57.2178L61.4049 36.9532H66.1786L65.7873 38.306C65.7873 38.306 67.5307 36.9855 69.2088 36.9855C69.7616 36.9855 70.0391 37.1997 70.0391 37.1997L68.9798 41.4016" fill="black"/>
<path fill-rule="evenodd" clip-rule="evenodd" d="M55.5879 49.3034L58.7987 36.9696H53.8775L53.454 38.3063C53.3079 37.9326 52.054 36.8572 50.5712 36.8572C47.1652 36.8572 44.1349 40.5393 43.0441 44.595C42.7673 45.6388 42.6212 46.696 42.6212 47.7222C42.6212 50.7047 44.1848 53.2454 46.7915 53.2454C48.8103 53.2454 50.3753 51.8609 50.3753 51.8609C50.3753 51.8609 51.2547 53.2946 53.2749 53.2946C55.3112 53.2946 56.7778 52.04 56.7778 52.04L57.625 48.5876C57.1199 48.9768 56.2735 49.368 55.5879 49.3034ZM52.0693 44.6605C51.8417 45.8813 50.538 49.385 48.7461 49.385C46.7267 49.385 46.9381 46.0449 47.2963 44.5783C47.6707 43.0632 48.9751 40.212 50.9454 40.212C52.672 40.212 52.313 43.4537 52.0693 44.6605V44.6605Z" fill="black"/>
<path fill-rule="evenodd" clip-rule="evenodd" d="M129.665 48.2157L128.735 52.1711C127.434 53.1804 125.886 53.833 124.191 53.8007C122.796 53.767 121.626 53.3954 120.696 52.7063C121.722 54.1596 123.29 54.9393 125.341 54.9899C127.037 55.0215 128.584 54.371 129.889 53.3588L131.468 46.7125C130.985 47.1136 130.354 47.6762 129.665 48.2157" fill="black"/>
<path fill-rule="evenodd" clip-rule="evenodd" d="M80.5151 53.6842H73.8027L73.8673 53.3906C73.1993 53.6034 72.5974 53.8001 71.8324 53.784C70.7914 53.7566 69.9647 53.4967 69.3177 53.0703C70.0209 54.1731 71.1834 54.9247 72.9991 54.9725C73.7648 54.9893 74.3675 54.7927 75.0193 54.5819L74.9701 54.8741H81.6649L88.3625 29.622H86.9099L80.5151 53.6842" fill="black"/>
<path fill-rule="evenodd" clip-rule="evenodd" d="M35.6153 41.4511H33.5144L30.2397 53.6374H24.7601L24.4545 54.7894L31.4071 54.8266L34.6649 42.6389H35.2971L35.6153 41.4511" fill="black"/>
<path fill-rule="evenodd" clip-rule="evenodd" d="M28.0178 34.4353L28.317 33.3058C27.9201 33.369 27.4924 33.3859 27.1088 33.3718L26.8988 34.1157C27.2908 34.2351 27.6462 34.3545 28.0178 34.4353" fill="black"/>
<path fill-rule="evenodd" clip-rule="evenodd" d="M68.6052 42.1339C68.3123 41.9555 67.7743 41.8262 67.5474 41.8262C66.2598 41.8262 65.4942 42.9494 65.1507 44.041L62.5777 53.6698H56.1583L56.2405 53.3593C55.3112 53.8334 54.318 54.0933 53.2749 54.1249C52.1187 54.0933 51.1578 53.7681 50.2608 52.9694C49.153 53.6852 47.8339 54.1095 46.4972 54.061C45.584 53.9746 44.8177 53.6761 44.1862 53.2251C44.9434 54.3223 46.0736 55.1013 47.6492 55.2495C48.9845 55.298 50.305 54.8751 51.412 54.1587C52.3083 54.9566 53.2699 55.2825 54.4261 55.3148C55.4685 55.2825 56.4793 55.0219 57.3918 54.5499L57.3103 54.859H63.7445L66.3189 45.2316C66.6005 44.303 67.2208 43.3392 68.202 43.0807C68.3271 42.7632 68.4612 42.4479 68.6052 42.1339" fill="black"/>
<path fill-rule="evenodd" clip-rule="evenodd" d="M56.7131 48.2112C57.1036 47.9836 57.4949 47.7553 57.8039 47.4624L60.3636 37.6868H59.4715L56.7131 48.2112" fill="black"/>
<path fill-rule="evenodd" clip-rule="evenodd" d="M118.262 47.8864C116.812 51.2102 113.815 53.7017 110.018 53.8008C108.683 53.8485 107.574 53.4903 106.466 52.7092L107.753 57.4492C106.189 59.2087 104.202 59.9912 101.856 59.9751C100.436 59.9681 99.2477 59.6042 98.336 58.9509C99.2772 60.3396 100.886 61.1544 103.007 61.1636C105.353 61.1804 107.341 60.3965 108.905 58.6559L107.617 53.8977C108.724 54.6788 109.833 55.0385 111.17 54.99C114.532 54.9036 117.262 52.9523 118.843 50.2107C118.568 49.5293 118.373 48.7532 118.262 47.8864" fill="black"/>
<path fill-rule="evenodd" clip-rule="evenodd" d="M97.718 45.7673C97.718 44.8387 97.6197 43.3713 97.0985 43.063L94.2326 53.6688H88.7291L88.4095 54.858H95.3831L97.7039 46.2723L97.718 45.7673" fill="black"/>
<path fill-rule="evenodd" clip-rule="evenodd" d="M92.3092 33.2396C91.9187 33.3211 91.5605 33.3534 91.1523 33.3211L90.7843 33.2684L90.6094 33.9238C91.1025 34.1099 91.538 34.275 92.003 34.3867L92.3092 33.2396" fill="black"/>
<path fill-rule="evenodd" clip-rule="evenodd" d="M108.437 30.2578C109.84 32.8806 109.449 35.6018 107.818 38.1593C108.563 37.4956 109.356 36.9526 110.212 36.5768C110.652 34.8741 110.499 33.1448 109.605 31.4632C109.105 30.5261 108.456 29.7338 107.691 29.1002C107.968 29.457 108.218 29.8434 108.437 30.2578" fill="black"/>
<path fill-rule="evenodd" clip-rule="evenodd" d="M119.189 42.1336C119.367 41.7129 119.554 41.3209 119.756 40.9501C119.322 39.8494 118.678 38.946 117.813 38.2991C118.541 39.3155 118.994 40.6241 119.189 42.1336" fill="black"/>
<path fill-rule="evenodd" clip-rule="evenodd" d="M130.876 43.6617C131.313 44.3964 131.611 45.2351 131.809 45.7514L133.358 39.6909C133.003 39.2189 132.627 38.8333 132.206 38.501L130.876 43.6617" fill="black"/>
<path fill-rule="evenodd" clip-rule="evenodd" d="M127.629 40.995C126.049 41.1242 124.973 43.6649 124.615 44.741C124.256 45.7996 123.639 48.6675 125.136 48.6837L125.354 48.6739C125.28 47.7565 125.568 46.5476 125.766 45.9464C126.126 44.8548 127.201 42.3134 128.78 42.1835C129.1 42.1589 129.391 42.2298 129.657 42.3682C129.161 41.5717 128.498 40.9261 127.629 40.995" fill="black"/>
<path fill-rule="evenodd" clip-rule="evenodd" d="M71.5338 38.0173C71.3006 37.8782 71.0716 37.7897 70.7464 37.742L70.3481 39.3006C70.7268 38.8441 71.1187 38.4107 71.5338 38.0173" fill="black"/>
<path fill-rule="evenodd" clip-rule="evenodd" d="M35.0132 35.8464H36.4827L38.5766 28.0411H37.0994L35.0132 35.8464" fill="black"/>
<path fill-rule="evenodd" clip-rule="evenodd" d="M39.7209 53.6367H34.131L33.8542 54.7886L40.8722 54.8259L48.0579 28.0411H46.5793L39.7209 53.6367" fill="black"/>
<path fill-rule="evenodd" clip-rule="evenodd" d="M135.758 48.5042L134.423 53.6846H129.925L129.612 54.8745H135.574L136.57 51.0561C136.543 50.1317 136.37 48.755 135.758 48.5042" fill="black"/>
<path fill-rule="evenodd" clip-rule="evenodd" d="M138.871 36.6769C139.405 36.4395 139.933 36.2618 140.485 36.1585L142.154 30.006H140.64L138.871 36.6769" fill="black"/>
<path fill-rule="evenodd" clip-rule="evenodd" d="M146.038 40.1959C145.94 43.4214 143.806 46.1265 140.939 47.4133C141.785 48.9123 142.096 50.9479 142.127 52.692C142.127 53.1472 142.176 54.3202 142.812 54.2549C142.979 54.2402 143.136 54.1924 143.285 54.1229L143.279 53.8819C143.247 52.1371 142.937 50.1008 142.089 48.6018C144.956 47.3157 147.107 44.6113 147.189 41.3851C147.151 39.8054 146.53 38.6646 145.461 37.9847C145.817 38.5853 146.016 39.3242 146.038 40.1959" fill="black"/>
<path fill-rule="evenodd" clip-rule="evenodd" d="M145.315 54.5845L146.299 57.7911C144.784 59.0779 143.138 60.0564 141.086 60.0388C139.977 60.0332 138.986 59.7101 138.195 59.1509C139.033 60.4216 140.488 61.2182 142.237 61.2287C144.289 61.2435 145.934 60.2678 147.449 58.9796L145.87 53.8329C145.708 54.0661 145.525 54.3337 145.315 54.5845" fill="black"/>
<path fill-rule="evenodd" clip-rule="evenodd" d="M103.012 41.9706C103.615 43.0797 103.876 44.3673 103.974 45.605C104.092 44.9363 104.239 44.3034 104.425 43.6972C104.345 43.5138 104.259 43.3354 104.163 43.1605C104.33 43.1114 104.496 43.0552 104.662 42.9919L104.739 42.7861C105.065 41.9067 105.506 41.0589 106.092 40.1956C105.228 40.9774 104.121 41.6454 103.012 41.9706" fill="black"/>
<path fill-rule="evenodd" clip-rule="evenodd" d="M104.698 53.3734L104.703 53.327C104.799 52.5656 104.89 51.8091 104.968 51.0526C104.843 50.8411 104.73 50.6213 104.626 50.3958C104.284 49.6133 104.072 48.7655 103.958 47.9338C103.893 49.3513 103.729 50.7379 103.55 52.1378C103.469 52.7412 103.484 53.4577 104.234 53.4577C104.388 53.4612 104.543 53.4296 104.698 53.3734" fill="black"/>
<path fill-rule="evenodd" clip-rule="evenodd" d="M100.1 37.2354L101.427 32.2791H101.917C102.311 32.2749 102.668 32.3226 102.978 32.4245C102.746 31.5036 101.913 31.0772 100.764 31.0885H100.275L98.5004 37.7193C99.0328 37.7004 99.5786 37.5227 100.1 37.2354" fill="black"/>
<path fill-rule="evenodd" clip-rule="evenodd" d="M74.6279 45.8496C74.9433 44.9547 75.6731 43.146 76.6987 42.4745C76.8103 41.7018 76.7794 41.0275 76.3278 41.0275C74.8941 41.0436 73.8517 43.5534 73.4766 44.6428C73.2814 45.2132 72.4827 48.5385 73.4766 48.5532C73.7176 48.556 73.9417 48.4886 74.1503 48.3678C74.2093 47.3774 74.5162 46.1657 74.6279 45.8496" fill="black"/>
<path fill-rule="evenodd" clip-rule="evenodd" d="M49.2772 45.8334C49.5743 44.8044 50.3441 42.8643 51.5158 42.3473C51.5123 41.6259 51.3718 41.0275 50.93 41.0275C49.4464 41.0275 48.4532 43.4543 48.1273 44.6428C47.9159 45.4099 47.427 48.4886 48.7461 48.5532C48.848 48.5476 48.9463 48.5237 49.044 48.4851C48.9435 47.5207 49.1641 46.2809 49.2772 45.8334" fill="black"/>
<path fill-rule="evenodd" clip-rule="evenodd" d="M111.234 45.9474C111.665 44.8607 112.61 42.9297 113.617 42.3615C113.655 41.612 113.521 40.9904 112.967 41.0114C111.793 41.0599 110.571 43.4889 110.066 44.7589C109.922 45.1487 108.763 48.6025 110.002 48.5878C110.214 48.5878 110.419 48.5435 110.613 48.4634C110.712 47.4449 111.14 46.1763 111.234 45.9474" fill="black"/>
<path fill-rule="evenodd" clip-rule="evenodd" d="M140.58 41.8915C140.336 42.412 139.799 42.8362 139.309 43.146C138.642 43.585 137.697 43.9763 136.882 44.0247C137.208 42.9985 137.844 42.2989 138.625 41.7777C139.049 41.4834 139.522 41.2073 140.011 41.0921C140.726 40.9292 140.873 41.2565 140.58 41.8915" fill="black"/>
</svg>
