<svg width="172" height="102" viewBox="0 0 172 102" fill="none" xmlns="http://www.w3.org/2000/svg">
<path d="M41.2701 62.7H42.4722V65.5458H45.6492V62.7H46.8513V69.5127H45.6492V66.6669H42.3864V69.5127H41.1843V62.7H41.2701Z" fill="black"/>
<path fill-rule="evenodd" clip-rule="evenodd" d="M53.892 62.6137C51.7454 62.6137 50.2858 64.1659 50.2858 66.1494C50.2858 68.0466 51.7454 69.5989 53.8062 69.6851C55.9528 69.6851 57.4124 68.0466 57.4124 66.1494C57.4124 64.1659 55.9528 62.6137 53.892 62.6137ZM53.8061 63.7346C55.1799 63.7346 56.1244 64.7695 56.1244 66.1493C56.1244 67.4428 55.1799 68.5639 53.8061 68.5639C52.4323 68.5639 51.4878 67.4428 51.4878 66.1493C51.4878 64.8557 52.4323 63.7346 53.8061 63.7346Z" fill="black"/>
<path d="M62.0491 63.8211H59.9025V62.7H65.3978V63.8211H63.2512V69.5127H62.0491V63.8211Z" fill="black"/>
<path d="M68.6603 62.7H73.7263V63.7349H69.8624V65.5458H73.297V66.5807H69.8624V68.4779H73.7263V69.5127H68.6603V62.7Z" fill="black"/>
<path d="M77.0751 62.7H78.2772V68.4779H81.8834V69.599H77.0751V62.7H77.0751Z" fill="black"/>
<path d="M89.6111 66.1494V66.1494C89.6111 64.2522 91.0708 62.6137 93.1315 62.6137C94.3336 62.6137 95.0205 62.9586 95.7074 63.5623L94.9346 64.5109C94.4194 64.0797 93.9043 63.821 93.0456 63.821C91.7577 63.821 90.8132 64.9421 90.8132 66.2356V66.2356C90.8132 67.6154 91.7577 68.6503 93.1315 68.6503C93.7325 68.6503 94.3336 68.4778 94.7629 68.1328V66.7531H93.0456V65.7182H95.965V68.564C95.2781 69.1677 94.3336 69.5989 93.1315 69.5989C90.9849 69.5989 89.6111 68.1328 89.6111 66.1494Z" fill="black"/>
<path fill-rule="evenodd" clip-rule="evenodd" d="M102.491 62.7001H99.5717V69.5128H100.774V67.0982H102.233L103.865 69.5128H105.239L103.436 66.9257C104.38 66.667 105.067 65.9771 105.067 64.856C105.067 64.2524 104.809 63.735 104.466 63.39C104.037 62.9588 103.35 62.7001 102.491 62.7001ZM103.779 64.9424C103.779 65.6323 103.264 66.0635 102.405 66.0635V66.1497H100.688V63.8213H102.405C103.264 63.8213 103.779 64.2525 103.779 64.9424Z" fill="black"/>
<path fill-rule="evenodd" clip-rule="evenodd" d="M111.764 62.6137C109.617 62.6137 108.158 64.1659 108.158 66.1494C108.158 68.0466 109.617 69.5989 111.678 69.6851C113.825 69.6851 115.284 68.0466 115.284 66.1494C115.284 64.1659 113.825 62.6137 111.764 62.6137ZM111.678 63.7346C113.052 63.7346 113.996 64.7695 113.996 66.1493C113.996 67.4428 113.052 68.5639 111.678 68.5639C110.304 68.5639 109.36 67.4428 109.36 66.1493C109.36 64.8557 110.304 63.7346 111.678 63.7346Z" fill="black"/>
<path d="M118.548 66.5806V62.6137H119.75V66.4943C119.75 67.7879 120.437 68.4778 121.467 68.4778C122.497 68.4778 123.184 67.8741 123.184 66.5806V62.6137H124.386V66.4943C124.386 68.564 123.27 69.5989 121.467 69.5989C119.664 69.5989 118.548 68.564 118.548 66.5806Z" fill="black"/>
<path fill-rule="evenodd" clip-rule="evenodd" d="M130.569 62.7011H127.907H127.821V69.4276H129.023V67.2717H130.397C131.942 67.2717 133.145 66.4955 133.145 64.9433C133.145 63.6497 132.114 62.7011 130.569 62.7011ZM131.942 65.0287C131.942 65.7186 131.427 66.236 130.482 66.236V66.3222H129.108V63.8213H130.482C131.341 63.8213 131.942 64.2525 131.942 65.0287Z" fill="black"/>
<path d="M29.7641 32L25.5568 44.8493L21.4354 32.0862H18.1725L24.183 49.4199H26.7589L30.9662 37.088L35.1735 49.4199H37.7495L43.7599 32.0862H40.583L36.4615 44.8493L32.2542 32H29.7641Z" fill="black"/>
<path d="M57.7558 32.0863L52.9475 39.6752L48.1391 32.0863H44.6187L51.4019 42.521V49.3337H54.4072V42.4348L61.2763 32.0863H57.7558Z" fill="black"/>
<path d="M74.9284 32.0863V43.987L65.741 32.0863H62.9075V49.3337H65.9128V37.0881L75.3578 49.3337H77.8478V32.0863H74.9284Z" fill="black"/>
<path fill-rule="evenodd" clip-rule="evenodd" d="M88.1518 32.0863H81.7979V49.3337H88.1518C93.5612 49.3337 97.2534 45.5393 97.2534 40.71V40.6238C97.2534 35.7945 93.5612 32.0863 88.1518 32.0863ZM94.0762 40.7964C94.0762 44.1597 91.7579 46.5743 88.1516 46.5743H84.8029V34.8461H88.1516C91.7579 34.8461 94.0762 37.3469 94.0762 40.7102V40.7964Z" fill="black"/>
<path d="M100.43 32.0863H103.521V39.244H111.678V32.0863H114.683V49.3337H111.678V42.0898H103.521V49.3337H100.43V32.0863Z" fill="black"/>
<path fill-rule="evenodd" clip-rule="evenodd" d="M127.477 32H124.644L117.173 49.3336H120.265L122.068 45.1943H130.139L131.856 49.3336H135.033L127.477 32ZM126.017 35.5352L129.022 42.4342H123.098L126.017 35.5352Z" fill="black"/>
<path d="M137.008 32.0863H140.185L145.423 40.1926L150.66 32.0863H153.837V49.3337H150.832V37.0018L145.423 45.1081H145.337L139.927 37.0018V49.3337H137.008V32.0863Z" fill="black"/>
<path fill-rule="evenodd" clip-rule="evenodd" d="M1 59.5953C1 59.5953 24.0973 52.3514 85.8333 52.3514C147.999 52.3514 171.01 59.5091 171.01 59.5091C171.01 59.5091 142.847 54.5936 85.8333 54.5936C28.8198 54.5936 1 59.5953 1 59.5953" fill="black"/>
</svg>
