<svg width="172" height="102" viewBox="0 0 172 102" fill="none" xmlns="http://www.w3.org/2000/svg">
<path d="M43.4741 29.9653H41.7971V30.9968H43.4096V31.5771H41.7971V32.8666H43.4741V33.4468H41.1522V29.2561H43.4741V29.9653Z" fill="black"/>
<path d="M48.2467 30.2873C48.1822 30.2228 48.1822 30.0939 48.0532 30.0294C47.9242 29.9005 47.7952 29.9005 47.6018 29.9005C47.2148 29.9005 47.0213 30.1584 47.0213 30.4163C47.0213 30.5452 47.0858 30.7386 47.4728 30.932L47.9242 31.1255C48.6982 31.4478 48.8917 31.8992 48.8917 32.3505C48.8917 33.1242 48.3112 33.7044 47.5373 33.7044C47.0858 33.7044 46.7633 33.511 46.5698 33.2531C46.3118 32.9952 46.2473 32.7373 46.2473 32.4149L46.8923 32.286C46.8923 32.4794 46.9568 32.6728 47.0858 32.8018C47.2148 32.9307 47.4083 33.0597 47.6018 33.0597C47.9887 33.0597 48.3112 32.8018 48.3112 32.3505C48.3112 31.8992 47.9887 31.7702 47.7307 31.6413L47.3438 31.4478C47.0213 31.3189 46.5053 30.9965 46.5053 30.4163C46.5053 29.836 46.9568 29.3202 47.7307 29.3202C48.1822 29.3202 48.4402 29.5136 48.5692 29.5781C48.6982 29.707 48.8272 29.836 48.8917 30.0294L48.2467 30.2873Z" fill="black"/>
<path d="M53.0196 29.9656V33.5117H52.3746V29.9656H51.4072V29.3854H53.987V29.9656H53.0196Z" fill="black"/>
<path d="M60.9529 29.9656H60.2434L60.5659 29.3854H61.5979V33.5762H60.9529V29.9656Z" fill="black"/>
<path d="M67.5957 31.7057C67.7247 31.8992 67.7892 32.157 67.7892 32.3505C67.7892 32.8018 67.6602 33.0597 67.4667 33.2531C67.2732 33.4465 66.9507 33.6399 66.4992 33.6399C66.0477 33.6399 65.7253 33.4465 65.5318 33.2531C65.3383 33.0597 65.2093 32.8018 65.2093 32.3505C65.2093 32.157 65.2738 31.8992 65.4028 31.7057C65.4673 31.5768 65.6608 31.4478 65.8543 31.3834C65.6608 31.3189 65.5318 31.1899 65.4673 31.061C65.3383 30.8676 65.3383 30.6742 65.3383 30.4807C65.3383 30.1584 65.4673 29.836 65.6608 29.6426C65.7898 29.5136 66.0477 29.3202 66.4992 29.3202C66.9507 29.3202 67.2087 29.5136 67.3377 29.6426C67.5957 29.9005 67.6602 30.1584 67.6602 30.4807C67.6602 30.6742 67.5957 30.8676 67.5312 31.061C67.4667 31.1899 67.3377 31.3189 67.1442 31.3834C67.3377 31.4478 67.5312 31.5768 67.5957 31.7057ZM65.9833 31.8347C65.8543 31.9636 65.7898 32.157 65.7898 32.3505C65.7898 32.4794 65.8543 32.6728 65.9833 32.8663C66.0477 32.9952 66.2412 33.0597 66.4992 33.0597C66.7572 33.0597 66.8862 32.9307 67.0152 32.8663C67.1442 32.7373 67.2087 32.5439 67.2087 32.3505C67.2087 32.157 67.1442 31.9636 67.0152 31.8347C66.8862 31.7057 66.6927 31.6413 66.4992 31.6413C66.3057 31.6413 66.1122 31.7057 65.9833 31.8347ZM66.0478 30.0294C65.9188 30.1584 65.8543 30.2873 65.8543 30.4807C65.8543 30.6742 65.9188 30.8031 66.0478 30.932C66.1767 31.061 66.3702 31.1255 66.4992 31.1255C66.6282 31.1255 66.8217 31.061 66.9507 30.932C67.0152 30.8676 67.1442 30.6742 67.1442 30.4807C67.1442 30.2873 67.0797 30.1584 66.9507 30.0294C66.8217 29.9005 66.6927 29.836 66.4992 29.836C66.3057 29.836 66.1122 29.9005 66.0478 30.0294Z" fill="black"/>
<path d="M72.9489 29.5788L71.917 30.8038C71.9815 30.8038 72.1105 30.8038 72.175 30.8038C72.691 30.8038 72.9489 30.9972 73.1424 31.1906C73.4004 31.4485 73.5294 31.7709 73.5294 32.1577C73.5294 32.5446 73.4004 32.9314 73.1424 33.1893C72.8199 33.5117 72.3685 33.5761 72.046 33.5761C71.659 33.5761 71.272 33.5117 70.9495 33.1893C70.7561 32.9314 70.5626 32.6735 70.5626 32.2222C70.5626 31.8998 70.6271 31.7064 70.7561 31.4485C70.885 31.1261 71.0785 30.9327 71.272 30.6748L72.433 29.1919L72.9489 29.5788ZM71.4655 31.5775C71.3365 31.7064 71.2075 31.8998 71.2075 32.2222C71.2075 32.4156 71.272 32.6735 71.4655 32.8669C71.5945 32.9959 71.8525 33.1248 72.046 33.1248C72.2395 33.1248 72.4975 33.0603 72.6265 32.8669C72.7555 32.738 72.8844 32.4801 72.8844 32.2222C72.8844 32.0288 72.8199 31.7709 72.6265 31.5775C72.4975 31.4485 72.2395 31.3196 72.046 31.3196C71.8525 31.3196 71.659 31.384 71.4655 31.5775Z" fill="black"/>
<path d="M78.9471 29.9653H77.6572L77.4637 30.6745C77.5282 30.6745 77.5927 30.6745 77.6572 30.6745C77.9797 30.6745 78.3666 30.8035 78.6246 31.0614C78.8181 31.2548 79.0116 31.5771 79.0116 32.1574C79.0116 32.6087 78.8826 32.9956 78.5601 33.2535C78.2377 33.5758 77.8507 33.7048 77.3992 33.7048C77.1412 33.7048 76.8832 33.6403 76.6252 33.5114C76.5607 33.4469 76.3027 33.3179 76.1093 33.06L76.5607 32.6732C76.5607 32.7377 76.6897 32.9311 76.8832 33.06C77.0122 33.1245 77.2057 33.189 77.3992 33.189C77.7217 33.189 77.9152 33.06 78.0442 32.9311C78.1732 32.8021 78.3022 32.6087 78.3022 32.2219C78.3022 31.8995 78.1732 31.7061 78.0442 31.5771C77.8507 31.3837 77.5927 31.3192 77.3347 31.3192C77.1412 31.3192 77.0122 31.3192 76.8187 31.3837C76.6897 31.4482 76.5607 31.5127 76.4317 31.5771L77.0767 29.4495H78.8181L78.9471 29.9653Z" fill="black"/>
<path d="M96.3616 29.3205V32.8666H97.5871V33.4468H95.7167V29.2561C95.7167 29.3205 96.3616 29.3205 96.3616 29.3205Z" fill="black"/>
<path d="M104.295 31.4482C104.295 32.6732 103.392 33.6403 102.102 33.6403C100.876 33.6403 99.9088 32.6732 99.9088 31.4482C99.9088 30.2232 100.812 29.2561 102.102 29.2561C103.392 29.2561 104.295 30.2232 104.295 31.4482ZM103.65 31.4482C103.65 30.5455 103.005 29.9008 102.102 29.9008C101.199 29.9008 100.554 30.5455 100.554 31.4482C100.554 32.3508 101.199 32.9955 102.102 32.9955C103.005 32.9955 103.65 32.3508 103.65 31.4482Z" fill="black"/>
<path d="M107.262 33.5113V29.0626L110.293 32.2218V29.3205H110.938V33.7692L107.907 30.61V33.5113H107.262Z" fill="black"/>
<path d="M115.001 29.3205C115.582 29.3205 116.098 29.385 116.549 29.7074C117.065 30.0942 117.323 30.6745 117.323 31.3837C117.323 32.0929 117.065 32.6732 116.485 33.06C115.969 33.3824 115.517 33.4468 114.937 33.4468H114.098V29.2561C114.098 29.3205 115.001 29.3205 115.001 29.3205ZM114.743 32.9311H115.001C115.324 32.9311 115.775 32.9311 116.098 32.6087C116.356 32.4153 116.678 31.964 116.678 31.4482C116.678 30.9324 116.42 30.4811 116.098 30.2232C115.711 29.9653 115.259 29.9653 115.001 29.9653H114.743V32.9311Z" fill="black"/>
<path d="M124.418 31.4482C124.418 32.6732 123.515 33.6403 122.225 33.6403C120.999 33.6403 120.032 32.6732 120.032 31.4482C120.032 30.2232 120.935 29.2561 122.225 29.2561C123.515 29.2561 124.418 30.2232 124.418 31.4482ZM123.773 31.4482C123.773 30.5455 123.128 29.9008 122.225 29.9008C121.322 29.9008 120.677 30.5455 120.677 31.4482C120.677 32.3508 121.322 32.9955 122.225 32.9955C123.128 32.9955 123.773 32.3508 123.773 31.4482Z" fill="black"/>
<path d="M127.385 33.5113V29.0626L130.416 32.2218V29.3205H131.061V33.7692L128.03 30.61V33.5113H127.385Z" fill="black"/>
<path d="M86.945 27.4507H87.59V36.4126H86.945V27.4507Z" fill="black"/>
<path d="M41.539 72.5189H43.6029V70.5847H44.3768V75.4203H43.6029V73.1637H41.539V75.4203H40.765V70.5847H41.539V72.5189Z" fill="black"/>
<path d="M52.5678 73.034C52.5678 74.4525 51.4714 75.5485 50.0524 75.5485C48.569 75.5485 47.537 74.4525 47.537 73.034C47.537 71.6156 48.6335 70.5196 50.0524 70.5196C51.4714 70.5196 52.5678 71.6156 52.5678 73.034ZM51.7938 73.034C51.7938 71.938 51.0199 71.1643 49.9879 71.1643C48.956 71.1643 48.182 71.938 48.182 73.034C48.182 74.1301 48.956 74.9038 49.9879 74.9038C51.0199 74.8393 51.7938 74.1301 51.7938 73.034Z" fill="black"/>
<path d="M56.8891 71.2939V75.4847H56.1151V71.2939H55.0187V70.5847H57.9855V71.2939H56.8891Z" fill="black"/>
<path d="M63.5324 71.2936H61.5974V72.5186H63.4679V73.2278H61.5974V74.7752H63.5324V75.4844H60.8235V70.6489H63.5324V71.2936Z" fill="black"/>
<path d="M67.4669 70.5847V74.7755H68.8858V75.4847H66.6929V70.6492L67.4669 70.5847Z" fill="black"/>
<path d="M73.9166 71.6804C73.8521 71.5515 73.7876 71.487 73.7231 71.3581C73.5941 71.2291 73.4006 71.1646 73.2071 71.1646C72.7556 71.1646 72.4976 71.4225 72.4976 71.7449C72.4976 71.8738 72.5621 72.1317 73.0136 72.3252L73.5296 72.5186C74.4325 72.9054 74.6905 73.4212 74.6905 73.937C74.6905 74.8396 74.0456 75.4844 73.1426 75.4844C72.5621 75.4844 72.2396 75.2909 71.9816 74.9686C71.7237 74.6462 71.5947 74.3238 71.5947 74.0015L72.3041 73.8725C72.3041 74.1304 72.3686 74.3238 72.4976 74.5173C72.6266 74.7107 72.8201 74.8396 73.1426 74.8396C73.5941 74.8396 73.9166 74.5173 73.9166 74.0015C73.9166 73.4857 73.5296 73.2923 73.2071 73.1633L72.7556 72.9699C72.3686 72.7765 71.7882 72.4541 71.7882 71.7449C71.7882 71.1002 72.3041 70.4554 73.2071 70.4554C73.7231 70.4554 74.0456 70.6488 74.1745 70.7778C74.3035 70.9067 74.4325 71.0357 74.5615 71.2936L73.9166 71.6804Z" fill="black"/>
<path d="M85.0097 73.6791L84.4292 74.3238L85.3322 75.4199H84.4292L83.9777 74.8396C83.8488 74.9686 83.7198 75.0975 83.5908 75.162C83.2683 75.3554 83.0103 75.4844 82.5588 75.4844C81.6559 75.4844 81.0754 74.9041 81.0754 74.0659C81.0754 73.4212 81.3979 73.0988 81.7848 72.8409C81.9138 72.7765 82.1073 72.5831 82.1718 72.5831C81.9783 72.3896 81.7203 72.0673 81.7203 71.5515C81.7203 70.9712 82.0428 70.4554 82.8813 70.4554C83.6553 70.4554 84.0422 70.9712 84.0422 71.487C84.0422 71.8094 83.9132 72.0028 83.8488 72.1317C83.7198 72.2607 83.5908 72.4541 83.2683 72.712L84.1067 73.7436L84.6872 73.0988L85.0097 73.6791ZM82.5588 73.1633C82.4298 73.2278 82.1718 73.4212 82.0428 73.5502C81.8493 73.7436 81.7848 74.0015 81.7848 74.1949C81.7848 74.5817 82.1073 74.9041 82.5588 74.9041C82.7523 74.9041 82.9458 74.8396 83.0748 74.7107C83.2038 74.5817 83.4618 74.3883 83.5263 74.3238L82.5588 73.1633ZM82.9458 72.0028C83.1393 71.8738 83.2683 71.6804 83.2683 71.5515C83.2683 71.3581 83.1393 71.1002 82.8168 71.1002C82.4943 71.1002 82.3653 71.2936 82.3653 71.5515C82.3653 71.7449 82.4298 71.8738 82.5588 72.0028L82.7523 72.2607L82.9458 72.0028Z" fill="black"/>
<path d="M92.4272 70.5847C93.0077 70.5847 93.3947 70.6492 93.7172 70.8426C94.2332 71.165 94.2976 71.8097 94.2976 72.0031C94.2976 72.7124 93.8462 73.2281 93.2012 73.3571L94.7491 75.4203H93.8462L92.4272 73.4216H92.2983V75.4203H91.5243V70.5847H92.4272ZM92.2983 72.8413H92.5562C92.7497 72.8413 93.5882 72.8413 93.5882 72.0676C93.5882 71.3584 92.9432 71.2939 92.5562 71.2939H92.2983V72.8413Z" fill="black"/>
<path d="M100.296 71.2936H98.3607V72.5186H100.231V73.2278H98.3607V74.7752H100.296V75.4844H97.5867V70.6489H100.296V71.2936Z" fill="black"/>
<path d="M105.52 71.6804C105.455 71.5515 105.391 71.487 105.326 71.3581C105.197 71.2291 105.004 71.1646 104.81 71.1646C104.359 71.1646 104.101 71.4225 104.101 71.7449C104.101 71.8738 104.166 72.1317 104.617 72.3252L105.133 72.5186C106.036 72.9054 106.294 73.4212 106.294 73.937C106.294 74.8396 105.649 75.4844 104.746 75.4844C104.166 75.4844 103.843 75.2909 103.585 74.9686C103.327 74.6462 103.198 74.3238 103.198 74.0015L103.908 73.8725C103.908 74.1304 103.972 74.3238 104.101 74.5173C104.23 74.7107 104.423 74.8396 104.746 74.8396C105.197 74.8396 105.52 74.5173 105.52 74.0015C105.52 73.4857 105.133 73.2923 104.81 73.1633L104.359 72.9699C103.972 72.7765 103.392 72.4541 103.392 71.7449C103.392 71.1002 103.908 70.4554 104.81 70.4554C105.326 70.4554 105.649 70.6488 105.778 70.7778C105.907 70.9067 106.036 71.0357 106.165 71.2936L105.52 71.6804Z" fill="black"/>
<path d="M114.162 73.034C114.162 74.4525 113.066 75.5485 111.647 75.5485C110.228 75.5485 109.132 74.4525 109.132 73.034C109.132 71.6156 110.228 70.5196 111.647 70.5196C113.066 70.5196 114.162 71.6156 114.162 73.034ZM113.388 73.034C113.388 71.938 112.614 71.1643 111.583 71.1643C110.551 71.1643 109.777 71.938 109.777 73.034C109.777 74.1301 110.551 74.9038 111.583 74.9038C112.614 74.9038 113.388 74.1301 113.388 73.034Z" fill="black"/>
<path d="M118.161 70.5847C118.742 70.5847 119.129 70.6492 119.451 70.8426C119.967 71.165 120.032 71.8097 120.032 72.0031C120.032 72.7124 119.58 73.2281 118.935 73.3571L120.483 75.4203H119.58L118.161 73.4216H118.032V75.4203H117.258V70.5847H118.161ZM118.032 72.8413H118.29C118.484 72.8413 119.322 72.8413 119.322 72.0676C119.322 71.3584 118.677 71.2939 118.29 71.2939H118.032V72.8413Z" fill="black"/>
<path d="M124.675 71.2939V75.4847H123.901V71.2939H122.805V70.5847H125.772V71.2939H124.675Z" fill="black"/>
<path d="M130.674 71.6804C130.609 71.5515 130.545 71.487 130.48 71.3581C130.351 71.2291 130.158 71.1646 129.964 71.1646C129.513 71.1646 129.255 71.4225 129.255 71.7449C129.255 71.8738 129.319 72.1317 129.771 72.3252L130.287 72.5186C131.19 72.9054 131.448 73.4212 131.448 73.937C131.448 74.8396 130.803 75.4844 129.9 75.4844C129.319 75.4844 128.997 75.2909 128.739 74.9686C128.481 74.6462 128.352 74.3238 128.352 74.0015L129.061 73.8725C129.061 74.1304 129.126 74.3238 129.255 74.5173C129.384 74.7107 129.577 74.8396 129.9 74.8396C130.351 74.8396 130.674 74.5173 130.674 74.0015C130.674 73.4857 130.287 73.2923 129.964 73.1633L129.513 72.9699C129.126 72.7765 128.545 72.4541 128.545 71.7449C128.545 71.1002 129.061 70.4554 129.964 70.4554C130.48 70.4554 130.803 70.6488 130.932 70.7778C131.061 70.9067 131.19 71.0357 131.319 71.2936L130.674 71.6804Z" fill="black"/>
<path d="M22.6413 48.7921H22.2543L22.1253 48.4053C22.0608 48.1474 21.9963 47.8895 21.9318 47.6961C21.8673 47.5027 21.7383 47.3737 21.6094 47.2448C21.4804 47.1158 21.2224 47.0513 20.9644 46.9869C20.7064 46.9224 20.3194 46.9224 19.8679 46.9224H17.2881V55.304C17.2881 55.8198 17.2881 56.2066 17.3526 56.4645C17.417 56.7869 17.4815 56.9803 17.6105 57.1737C17.7395 57.3671 17.933 57.4316 18.191 57.4961C18.449 57.5606 18.7715 57.5606 19.1585 57.5606V57.9474H13.8052V57.5606C14.1922 57.5606 14.5147 57.5606 14.7727 57.4961C15.0307 57.4316 15.2242 57.3027 15.3531 57.1737C15.4821 56.9803 15.5466 56.7869 15.6111 56.4645C15.6756 56.1421 15.6756 55.7553 15.6756 55.304V46.9224H13.0958C12.6443 46.9224 12.2573 46.9224 11.9993 46.9869C11.7413 47.0513 11.5478 47.1158 11.3543 47.2448C11.2253 47.3737 11.0964 47.5027 11.0319 47.6961C10.9674 47.8895 10.9029 48.1474 10.8384 48.4053L10.7094 48.7921H10.3224L10.5159 46.1487H22.5123L22.6413 48.7921Z" fill="black"/>
<path d="M28.3169 55.2395C28.3169 55.7553 28.3169 56.1421 28.3814 56.4C28.4459 56.7224 28.5104 56.9158 28.6394 57.1092C28.7684 57.3027 28.9619 57.3671 29.2199 57.4316C29.4779 57.4961 29.8004 57.4961 30.1874 57.4961V57.9474H24.8341V57.5606C25.2211 57.5606 25.5436 57.5606 25.8016 57.4961C26.0595 57.4316 26.253 57.3027 26.382 57.1737C26.511 56.9803 26.5755 56.7869 26.64 56.4645C26.7045 56.1421 26.7045 55.7553 26.7045 55.304V48.8566C26.7045 48.3408 26.7045 47.954 26.64 47.6316C26.5755 47.3092 26.511 47.1158 26.382 46.9224C26.253 46.729 26.0595 46.6645 25.8016 46.6C25.5436 46.5356 25.2211 46.5356 24.8341 46.5356V46.1487H30.1874V46.5356C29.8004 46.5356 29.4779 46.5356 29.2199 46.6C28.9619 46.6645 28.7684 46.729 28.6394 46.9224C28.5104 47.1158 28.4459 47.3092 28.3814 47.6316C28.3169 47.954 28.3169 48.3408 28.3169 48.8566V51.3711H35.0246V48.8566C35.0246 48.3408 35.0246 47.954 34.9601 47.6316C34.8956 47.3092 34.8311 47.1158 34.7021 46.9224C34.5731 46.729 34.3797 46.6645 34.1217 46.6C33.8637 46.5356 33.5412 46.5356 33.1542 46.5356V46.1487H38.5075V46.5356C38.1205 46.5356 37.798 46.5356 37.54 46.6C37.282 46.6645 37.0885 46.729 36.9595 46.9224C36.8305 47.1158 36.7015 47.3092 36.7015 47.6316C36.637 47.954 36.637 48.3408 36.637 48.8566V55.304C36.637 55.8198 36.637 56.2066 36.7015 56.4645C36.766 56.7869 36.8305 56.9803 36.9595 57.1737C37.0885 57.3671 37.282 57.4316 37.54 57.4961C37.798 57.5606 38.1205 57.5606 38.5075 57.5606V57.9474H33.1542V57.5606C33.5412 57.5606 33.8637 57.5606 34.1217 57.4961C34.3797 57.4316 34.5731 57.3027 34.7021 57.1737C34.8311 56.9803 34.8956 56.7869 34.9601 56.4645C35.0246 56.1421 35.0246 55.7553 35.0246 55.304V52.0803H28.3169V55.2395Z" fill="black"/>
<path d="M41.0227 57.5606C41.4097 57.5606 41.7322 57.5606 41.9902 57.4961C42.2481 57.4316 42.4416 57.3027 42.5706 57.1737C42.6996 56.9803 42.7641 56.7869 42.8286 56.4645C42.8931 56.1421 42.8931 55.7553 42.8931 55.304V48.8566C42.8931 48.3408 42.8931 47.954 42.8286 47.6316C42.7641 47.3092 42.6996 47.1158 42.5706 46.9224C42.4416 46.729 42.2481 46.6645 41.9902 46.6C41.7322 46.5356 41.4097 46.5356 41.0227 46.5356V46.1487H50.0523L50.2458 48.7277H49.8588L49.7298 48.3408C49.6653 48.0829 49.6008 47.825 49.5363 47.6961C49.4718 47.5671 49.3428 47.3737 49.2138 47.2448C49.0848 47.1158 48.8268 47.0513 48.5688 46.9869C48.3109 46.9224 47.9239 46.9224 47.4724 46.9224H44.57V51.4356H45.473C45.989 51.4356 46.3759 51.4356 46.6984 51.3711C47.0209 51.3066 47.2144 51.2421 47.4079 51.1132C47.6014 50.9842 47.6659 50.7908 47.7304 50.5329C47.7949 50.275 47.7949 49.9527 47.7949 49.5658H48.1819V54.079H47.7949C47.7949 53.6277 47.7949 53.3053 47.7304 53.1119C47.6659 52.9185 47.6014 52.6606 47.4079 52.5316C47.2144 52.4027 47.0209 52.2737 46.6984 52.2737C46.3759 52.2092 45.989 52.2092 45.473 52.2092H44.5055V55.1106C44.5055 55.6263 44.5055 56.0132 44.57 56.2711C44.6345 56.5935 44.699 56.7869 44.828 56.9803C44.957 57.1737 45.1505 57.2382 45.4085 57.3027C45.6665 57.3671 45.989 57.3671 46.3759 57.3671H48.0529C48.5043 57.3671 48.8913 57.3671 49.1493 57.3027C49.4073 57.2382 49.6008 57.1737 49.7943 57.0448C49.9878 56.9158 50.0523 56.7869 50.1168 56.5934C50.1813 56.4 50.2458 56.1421 50.3103 55.8842L50.4393 55.4974H50.8262L50.6972 57.9474H41.0227V57.5606Z" fill="black"/>
<path d="M59.1467 57.5606C59.5337 57.5606 59.8562 57.5606 60.1142 57.4961C60.3722 57.4316 60.5657 57.3027 60.6947 57.1737C60.8236 56.9803 60.8881 56.7869 60.9526 56.4645C61.0171 56.1421 61.0171 55.7553 61.0171 55.304V48.8566C61.0171 48.3408 61.0171 47.954 60.9526 47.6316C60.8881 47.3092 60.8236 47.1158 60.6947 46.9224C60.5657 46.729 60.3722 46.6645 60.1142 46.6C59.8562 46.5356 59.5337 46.5356 59.1467 46.5356V46.1487H64.5V46.5356C64.113 46.5356 63.7905 46.5356 63.5325 46.6C63.2745 46.6645 63.081 46.729 62.952 46.9224C62.8231 47.1158 62.7586 47.3092 62.6941 47.6316C62.6296 47.954 62.6296 48.3408 62.6296 48.8566V54.9816C62.6296 55.4974 62.6296 55.8842 62.6941 56.1421C62.7586 56.4645 62.8231 56.6579 62.952 56.8513C63.081 57.0448 63.2745 57.1092 63.5325 57.1737C63.7905 57.2382 64.113 57.2382 64.5 57.2382H66.8864C67.3378 57.2382 67.7248 57.2382 67.9828 57.1737C68.2408 57.1092 68.4343 57.0448 68.6278 56.9158C68.8213 56.7869 68.8858 56.6579 68.9503 56.4645C69.0148 56.2711 69.0793 56.0132 69.1438 55.7553L69.2728 55.3685H69.6597L69.5307 58.0119H59.2112V57.5606H59.1467Z" fill="black"/>
<path d="M74.2391 56.0773C73.9811 56.5931 73.9811 56.9799 74.2391 57.2378C74.4326 57.4957 75.0131 57.5602 75.787 57.5602V57.947H71.1432V57.5602C71.5302 57.5602 71.8527 57.5602 72.1107 57.4957C72.3687 57.4312 72.5622 57.3667 72.6912 57.2378C72.8202 57.1089 72.9492 56.9154 73.0782 56.722C73.2072 56.5286 73.3361 56.2062 73.4651 55.8839L77.7864 45.826H78.0444L82.4302 55.8839C82.5592 56.2062 82.6882 56.5286 82.8172 56.722C82.9462 56.9799 83.0752 57.1089 83.2042 57.2378C83.3332 57.3667 83.5267 57.4312 83.7846 57.4957C84.0426 57.5602 84.3651 57.5602 84.7521 57.5602V57.947H79.2699V57.5602C80.1083 57.5602 80.6243 57.4312 80.8178 57.2378C81.0113 56.9799 81.0113 56.5931 80.8178 56.0773L79.8503 53.8852H75.1421L74.2391 56.0773ZM77.5284 48.3404L75.4645 53.1115H79.5923L77.5284 48.3404Z" fill="black"/>
<path d="M97.0708 48.8566C97.0708 48.3408 97.0708 47.954 97.0063 47.6316C96.9418 47.3092 96.8773 47.1158 96.7483 46.9224C96.6193 46.729 96.4259 46.6645 96.1679 46.6C95.9099 46.5356 95.5874 46.5356 95.2004 46.5356V46.1487H99.7152V46.5356C99.3282 46.5356 99.0057 46.5356 98.7478 46.6C98.4898 46.6645 98.2963 46.729 98.1673 46.9224C98.0383 47.1158 97.9738 47.3092 97.9093 47.6316C97.8448 47.954 97.8448 48.3408 97.8448 48.8566V58.3342H97.3933L89.3312 48.4053V55.304C89.3312 55.8198 89.3312 56.2066 89.3957 56.4645C89.4602 56.7869 89.5247 56.9803 89.6537 57.1737C89.7827 57.3671 89.9762 57.4316 90.2342 57.4961C90.4921 57.5606 90.8146 57.5606 91.2016 57.5606V57.9474H86.6868V57.5606C87.0738 57.5606 87.3963 57.5606 87.6543 57.4961C87.9123 57.4316 88.1058 57.3027 88.2348 57.1737C88.3637 56.9803 88.4282 56.7869 88.4927 56.4645C88.5572 56.1421 88.5572 55.7553 88.5572 55.304V48.8566C88.5572 48.3408 88.5572 47.954 88.4927 47.6316C88.4282 47.3092 88.3637 47.1158 88.2348 46.9224C88.1058 46.729 87.9123 46.6645 87.6543 46.6C87.3963 46.5356 87.0738 46.5356 86.6868 46.5356V46.1487H89.4602L97.0708 55.5619V48.8566Z" fill="black"/>
<path d="M111.518 54.7881C111.518 54.3368 111.389 54.0144 111.131 53.821C110.873 53.6276 110.357 53.4986 109.712 53.4986V53.1118H114.872V53.4986C114.485 53.4986 114.163 53.4986 113.905 53.5631C113.647 53.6276 113.453 53.7565 113.324 53.8855C113.195 54.0789 113.131 54.2723 113.066 54.5947C113.002 54.9171 113.002 55.3039 113.002 55.8197V57.3026C112.421 57.3026 111.97 57.3671 111.583 57.4315C111.196 57.5605 110.809 57.6894 110.422 57.7539C110.035 57.8829 109.648 58.0118 109.261 58.0763C108.874 58.2052 108.422 58.2052 107.906 58.2052C107.068 58.2052 106.294 58.0118 105.585 57.6894C104.875 57.3671 104.23 56.9157 103.65 56.3355C103.069 55.7552 102.682 55.1105 102.36 54.3368C102.037 53.5631 101.908 52.7894 101.908 51.8868C101.908 51.0486 102.037 50.2105 102.36 49.4368C102.682 48.6631 103.134 48.0184 103.65 47.4381C104.23 46.8578 104.875 46.4065 105.585 46.0842C106.294 45.7618 107.132 45.5684 107.906 45.5684C108.616 45.5684 109.261 45.6973 109.906 46.0197C110.551 46.2776 111.067 46.7289 111.583 47.2447C111.712 47.1157 111.841 46.9868 111.97 46.7934C112.099 46.6 112.228 46.3421 112.228 46.1486H112.615V50.4684H112.228C111.97 49.1789 111.454 48.1473 110.744 47.4381C110.035 46.7289 109.067 46.3421 107.971 46.3421C107.197 46.3421 106.487 46.5355 105.972 46.8578C105.456 47.1802 105.004 47.6315 104.617 48.1473C104.295 48.6631 104.037 49.2434 103.843 49.8881C103.65 50.5328 103.585 51.1776 103.585 51.7578C103.585 52.3381 103.65 52.9828 103.779 53.6276C103.908 54.2723 104.166 54.8526 104.553 55.3684C104.94 55.8842 105.391 56.3355 105.972 56.6578C106.552 56.9802 107.326 57.1736 108.229 57.1736C108.68 57.1736 109.067 57.1092 109.454 56.9802C109.841 56.8513 110.164 56.7223 110.486 56.4644C110.809 56.271 111.002 55.9486 111.196 55.6263C111.454 55.6263 111.518 55.2394 111.518 54.7881Z" fill="black"/>
<path d="M119.516 55.2395C119.516 55.7553 119.516 56.1421 119.58 56.4C119.645 56.7224 119.709 56.9158 119.838 57.1092C119.967 57.3027 120.161 57.3671 120.419 57.4316C120.677 57.4961 120.999 57.4961 121.386 57.4961V57.9474H116.033V57.5606C116.42 57.5606 116.743 57.5606 117.001 57.4961C117.259 57.4316 117.452 57.3027 117.581 57.1737C117.71 56.9803 117.774 56.7869 117.839 56.4645C117.903 56.1421 117.903 55.7553 117.903 55.304V48.8566C117.903 48.3408 117.903 47.954 117.839 47.6316C117.774 47.3092 117.71 47.1158 117.581 46.9224C117.452 46.729 117.259 46.6645 117.001 46.6C116.743 46.5356 116.42 46.5356 116.033 46.5356V46.1487H121.386V46.5356C120.999 46.5356 120.677 46.5356 120.419 46.6C120.161 46.6645 119.967 46.729 119.838 46.9224C119.709 47.1158 119.645 47.3092 119.58 47.6316C119.516 47.954 119.516 48.3408 119.516 48.8566V51.3711H126.224V48.8566C126.224 48.3408 126.224 47.954 126.159 47.6316C126.095 47.3092 126.03 47.1158 125.901 46.9224C125.772 46.729 125.579 46.6645 125.321 46.6C125.063 46.5356 124.74 46.5356 124.353 46.5356V46.1487H129.706V46.5356C129.319 46.5356 128.997 46.5356 128.739 46.6C128.481 46.6645 128.287 46.729 128.158 46.9224C128.03 47.1158 127.901 47.3092 127.901 47.6316C127.836 47.954 127.836 48.3408 127.836 48.8566V55.304C127.836 55.8198 127.836 56.2066 127.901 56.4645C127.965 56.7869 128.03 56.9803 128.158 57.1737C128.287 57.3671 128.481 57.4316 128.739 57.4961C128.997 57.5606 129.319 57.5606 129.706 57.5606V57.9474H124.353V57.5606C124.74 57.5606 125.063 57.5606 125.321 57.4961C125.579 57.4316 125.772 57.3027 125.901 57.1737C126.03 56.9803 126.095 56.7869 126.159 56.4645C126.224 56.1421 126.224 55.7553 126.224 55.304V52.0803H119.516V55.2395Z" fill="black"/>
<path d="M134.608 56.0773C134.35 56.5931 134.35 56.9799 134.608 57.2378C134.801 57.4957 135.382 57.5602 136.156 57.5602V57.947H131.512V57.5602C131.899 57.5602 132.221 57.5602 132.479 57.4957C132.737 57.4312 132.931 57.3667 133.06 57.2378C133.189 57.1089 133.318 56.9154 133.447 56.722C133.576 56.5286 133.705 56.2062 133.834 55.8839L138.155 45.826H138.413L142.799 55.8839C142.928 56.2062 143.057 56.5286 143.186 56.722C143.315 56.9799 143.444 57.1089 143.573 57.2378C143.702 57.3667 143.895 57.4312 144.153 57.4957C144.411 57.5602 144.734 57.5602 145.121 57.5602V57.947H139.639V57.5602C140.477 57.5602 140.993 57.4312 141.187 57.2378C141.38 56.9799 141.38 56.5931 141.187 56.0773L140.219 53.8852H135.446L134.608 56.0773ZM137.962 48.3404L135.898 53.1115H140.026L137.962 48.3404Z" fill="black"/>
<path d="M149.7 55.2395C149.7 55.7553 149.7 56.1421 149.765 56.4C149.829 56.7224 149.894 56.9158 150.023 57.1092C150.152 57.3027 150.345 57.3671 150.603 57.4316C150.861 57.4961 151.183 57.4961 151.57 57.4961V57.9474H147.056V57.5606C147.443 57.5606 147.765 57.5606 148.023 57.4961C148.281 57.4316 148.475 57.3027 148.604 57.1737C148.733 56.9803 148.797 56.7869 148.862 56.4645C148.926 56.1421 148.926 55.7553 148.926 55.304V48.8566C148.926 48.3408 148.926 47.954 148.862 47.6316C148.797 47.3092 148.733 47.1158 148.604 46.9224C148.475 46.729 148.281 46.6645 148.023 46.6C147.765 46.5356 147.443 46.5356 147.056 46.5356V46.1487H150.41L154.602 55.7553L158.794 46.1487H161.89V46.5356C161.503 46.5356 161.181 46.5356 160.923 46.6C160.665 46.6645 160.471 46.729 160.342 46.9224C160.213 47.1158 160.084 47.3092 160.084 47.6316C160.02 47.954 160.02 48.3408 160.02 48.8566V55.304C160.02 55.8198 160.02 56.2066 160.084 56.4645C160.149 56.7869 160.213 56.9803 160.342 57.1737C160.471 57.3671 160.665 57.4316 160.923 57.4961C161.181 57.5606 161.503 57.5606 161.89 57.5606V57.9474H156.537V57.5606C156.924 57.5606 157.246 57.5606 157.504 57.4961C157.762 57.4316 157.956 57.3027 158.085 57.1737C158.214 56.9803 158.278 56.7869 158.343 56.4645C158.407 56.1421 158.407 55.7553 158.407 55.304V48.8566L154.279 58.3342H154.021L149.636 48.2119L149.7 55.2395Z" fill="black"/>
</svg>
