<svg width="172" height="102" viewBox="0 0 172 102" fill="none" xmlns="http://www.w3.org/2000/svg">
<path fill-rule="evenodd" clip-rule="evenodd" d="M169.302 61.1922H169.673V60.0352L170.153 60.7861H170.187L170.667 60.0352V61.1922H171.038V59.4799H170.633L170.175 60.2022L169.718 59.4799H169.302V61.1922ZM168.022 61.1923H168.415V59.8243H168.935V59.48H167.503V59.8243H168.022V61.1923Z" fill="black"/>
<path fill-rule="evenodd" clip-rule="evenodd" d="M50.3259 66.8369V63.8842H47.438V66.8369H45.8724V59.4808H47.438V62.392H50.3259V59.4808H51.8916V66.8369H50.3259Z" fill="black"/>
<path fill-rule="evenodd" clip-rule="evenodd" d="M63.296 63.1593C63.296 61.8981 62.4014 60.8476 61.1405 60.8476C59.8801 60.8476 59.0056 61.8769 59.0056 63.1381V63.1593C59.0056 64.4205 59.8998 65.4711 61.1611 65.4711C62.422 65.4711 63.296 64.4413 63.296 63.1801V63.1593ZM61.1404 66.9633C58.9441 66.9633 57.3679 65.2713 57.3679 63.1797V63.1589C57.3679 61.0677 58.9647 59.355 61.161 59.355C63.3569 59.355 64.9326 61.0469 64.9326 63.1377V63.1589C64.9326 65.2501 63.3367 66.9633 61.1404 66.9633V66.9633Z" fill="black"/>
<path fill-rule="evenodd" clip-rule="evenodd" d="M73.3268 60.9741V66.838H71.7616V60.9741H69.5956V59.4819H75.4924V60.9741H73.3268Z" fill="black"/>
<path fill-rule="evenodd" clip-rule="evenodd" d="M81.3556 66.8369V59.4808H86.7244V60.9202H82.9112V62.4128H86.2666V63.8526H82.9112V65.3971H86.7749V66.8369H81.3556Z" fill="black"/>
<path fill-rule="evenodd" clip-rule="evenodd" d="M92.8311 66.8369V59.4808H94.3971V65.366H97.9455V66.8369H92.8311Z" fill="black"/>
<path fill-rule="evenodd" clip-rule="evenodd" d="M113.767 66.9632C111.551 66.9632 110.026 65.3551 110.026 63.1796V63.1588C110.026 61.0681 111.602 59.3553 113.757 59.3553C115.038 59.3553 115.811 59.7121 116.553 60.3639L115.567 61.5931C115.018 61.12 114.53 60.847 113.706 60.847C112.568 60.847 111.663 61.8877 111.663 63.1381V63.1588C111.663 64.5039 112.557 65.4922 113.819 65.4922C114.388 65.4922 114.896 65.3452 115.293 65.0506V63.9996H113.717V62.6022H116.808V65.7967C116.076 66.4377 115.069 66.9632 113.767 66.9632" fill="black"/>
<path fill-rule="evenodd" clip-rule="evenodd" d="M127.618 61.9936C127.618 61.3002 127.15 60.9426 126.388 60.9426H124.832V63.0549H126.418C127.181 63.0549 127.618 62.635 127.618 62.0147V61.9936ZM127.587 66.8374L126.062 64.4833H124.832V66.8374H123.266V59.4813H126.52C128.197 59.4813 129.204 60.3956 129.204 61.909V61.9297C129.204 63.1174 128.584 63.8635 127.679 64.2103L129.418 66.8374H127.587Z" fill="black"/>
<path fill-rule="evenodd" clip-rule="evenodd" d="M140.603 63.1598C140.603 61.8986 139.708 60.8481 138.447 60.8481C137.187 60.8481 136.312 61.8774 136.312 63.1386V63.1598C136.312 64.421 137.206 65.4716 138.468 65.4716C139.729 65.4716 140.603 64.4418 140.603 63.1806V63.1598ZM138.447 66.9637C136.251 66.9637 134.675 65.2718 134.675 63.1801V63.1594C134.675 61.0682 136.272 59.3555 138.468 59.3555C140.664 59.3555 142.24 61.0474 142.24 63.1382V63.1594C142.24 65.2506 140.644 66.9637 138.447 66.9637V66.9637Z" fill="black"/>
<path fill-rule="evenodd" clip-rule="evenodd" d="M150.975 66.9529C149.064 66.9529 147.895 65.8496 147.895 63.6848V59.4813H149.46V63.6429C149.46 64.8409 150.039 65.4607 150.996 65.4607C151.951 65.4607 152.531 64.8617 152.531 63.6952V59.4813H154.096V63.6321C154.096 65.8604 152.887 66.9529 150.975 66.9529" fill="black"/>
<path fill-rule="evenodd" clip-rule="evenodd" d="M164.113 62.0567C164.113 61.3318 163.625 60.9426 162.842 60.9426H161.632V63.1916H162.873C163.655 63.1916 164.113 62.7081 164.113 62.0775V62.0567ZM162.821 64.6303H161.632V66.8374H160.066V59.4813H162.974C164.672 59.4813 165.699 60.5219 165.699 62.0249V62.0456C165.699 63.7476 164.417 64.6303 162.821 64.6303V64.6303Z" fill="black"/>
<path fill-rule="evenodd" clip-rule="evenodd" d="M45.8724 55.7992H165.36V55.3396H45.8724V55.7992Z" fill="black"/>
<path fill-rule="evenodd" clip-rule="evenodd" d="M67.7432 34.4876L60.4908 51.6449H63.7909L65.4509 47.6182H72.8354L74.4729 51.6449H77.8661L70.614 34.4876H67.7432ZM71.649 44.662H66.6376L69.133 38.6436L71.649 44.662Z" fill="black"/>
<path fill-rule="evenodd" clip-rule="evenodd" d="M85.8015 34.6058H79.6011V51.6441H85.8015C90.8756 51.6441 94.5591 48.0513 94.5591 43.1012C94.5591 38.1788 90.8756 34.6058 85.8015 34.6058M91.2203 43.1497C91.2203 46.4195 89.0432 48.6167 85.8014 48.6167H82.8021V37.6348H85.8014C88.9919 37.6348 91.2203 39.9024 91.2203 43.1497" fill="black"/>
<path fill-rule="evenodd" clip-rule="evenodd" d="M139.841 34.3196C134.914 34.3196 131.198 38.1153 131.198 43.1489C131.198 48.1552 134.894 51.9301 139.795 51.9301C144.722 51.9301 148.438 48.1344 148.438 43.1013C148.438 38.095 144.742 34.3196 139.841 34.3196M145.099 43.149C145.099 46.4153 142.839 48.8785 139.841 48.8785C136.817 48.8785 134.536 46.395 134.536 43.1014C134.536 39.8351 136.797 37.372 139.795 37.372C142.819 37.372 145.099 39.8554 145.099 43.149" fill="black"/>
<path fill-rule="evenodd" clip-rule="evenodd" d="M59.4235 40.0753C59.4235 36.7017 57.057 34.6058 53.2472 34.6058H45.8729V51.6441H49.0726V45.8307H52.3434L56.3084 51.6441H60.0927L55.6812 45.2503C58.0977 44.474 59.4235 42.6449 59.4235 40.0753M56.1776 40.2422C56.1776 41.8654 54.9746 42.8735 53.0397 42.8735H49.0725V37.6337H53.0173C55.0544 37.6337 56.1776 38.5601 56.1776 40.2422" fill="black"/>
<path fill-rule="evenodd" clip-rule="evenodd" d="M97.2156 51.6451H100.415V34.6068H97.2156V51.6451Z" fill="black"/>
<path fill-rule="evenodd" clip-rule="evenodd" d="M110.237 41.6174C107.105 40.8441 106.549 40.2978 106.549 39.1469C106.549 38.057 107.531 37.3252 108.994 37.3252C110.401 37.3252 111.798 37.8736 113.262 39.0024L113.415 39.121L115.139 36.6115L115.014 36.5073C113.279 35.0679 111.324 34.3685 109.04 34.3685C105.689 34.3685 103.348 36.4411 103.348 39.409C103.348 42.5888 105.368 43.7155 108.859 44.587C111.856 45.3024 112.362 45.9049 112.362 46.9862C112.362 48.1829 111.337 48.9268 109.685 48.9268C107.862 48.9268 106.375 48.2923 104.714 46.8049L104.57 46.6765L102.638 49.0523L102.76 49.166C104.687 50.9436 107.057 51.8835 109.617 51.8835C113.228 51.8835 115.562 49.8485 115.562 46.6998C115.562 44.0403 114.019 42.5681 110.237 41.6174" fill="black"/>
<path fill-rule="evenodd" clip-rule="evenodd" d="M124.186 41.6177C121.055 40.8443 120.497 40.2981 120.497 39.1472C120.497 38.0573 121.48 37.3254 122.943 37.3254C124.35 37.3254 125.747 37.8739 127.21 39.0027L127.364 39.1212L129.087 36.6118L128.962 36.5076C127.228 35.0682 125.274 34.3688 122.989 34.3688C119.637 34.3688 117.297 36.4414 117.297 39.4093C117.297 42.5891 119.317 43.7158 122.808 44.5873C125.805 45.3027 126.311 45.9052 126.311 46.9864C126.311 48.1832 125.285 48.9271 123.634 48.9271C121.812 48.9271 120.324 48.2926 118.662 46.8052L118.519 46.6767L116.586 49.0525L116.709 49.1663C118.635 50.9439 121.006 51.8837 123.565 51.8837C127.177 51.8837 129.511 49.8488 129.511 46.7001C129.511 44.0406 127.968 42.5683 124.186 41.6177" fill="black"/>
<path fill-rule="evenodd" clip-rule="evenodd" d="M162.207 34.6068V45.7729L153.891 34.6794L153.836 34.6068H150.933V51.6451H154.087V40.1451L162.657 51.572L162.712 51.6451H165.36V34.6068H162.207Z" fill="black"/>
<path fill-rule="evenodd" clip-rule="evenodd" d="M32.2253 57.4113C28.1125 57.4113 25.0584 54.6233 25.0584 50.6793V50.6416C25.0584 46.8459 28.0753 43.872 32.1495 43.872H35.2909C32.5424 36.9276 25.7092 32 17.6946 32C9.58033 32 2.68004 37.0517 0 44.1319H4.86099C6.87968 44.1319 8.27474 44.6531 9.16107 45.5263C9.93337 46.2884 10.3285 47.2728 10.3285 48.5578V48.595C10.3285 50.6053 9.25536 51.9253 7.61514 52.6121L10.7631 57.1513H6.55953L3.89835 53.2073H2.27525V57.1513H0C2.68004 64.2315 9.58033 69.2832 17.6946 69.2832C25.9368 69.2832 32.9279 64.0706 35.5132 56.814C34.5462 57.1859 33.4498 57.4113 32.2253 57.4113V57.4113ZM23.701 57.1513H20.0439V52.2025H15.3447V57.1513H11.6876V44.1319H15.3447V49.0059H20.0439V44.1319H23.701V57.1513Z" fill="black"/>
<path fill-rule="evenodd" clip-rule="evenodd" d="M6.67207 48.838V48.8004C6.67207 47.7576 5.89889 47.2364 4.69066 47.2364H2.27551V50.3829H4.70952C5.93661 50.3829 6.67207 49.7869 6.67207 48.838" fill="black"/>
<path fill-rule="evenodd" clip-rule="evenodd" d="M34.4895 52.1839V53.7665C33.9623 54.1211 33.2826 54.3071 32.3769 54.3071C30.2824 54.3071 28.7908 52.7989 28.7908 50.6792V50.6412C28.7908 48.6512 30.2631 47.0872 32.1695 47.0872H36.2437C36.4016 47.8878 36.4911 48.7104 36.5402 49.5452H31.9055V52.1839H34.4895Z" fill="black"/>
<path fill-rule="evenodd" clip-rule="evenodd" d="M45.8807 55.7854H165.352V55.3262H45.8807V55.7854Z" fill="black"/>
</svg>
