<svg width="172" height="102" viewBox="0 0 172 102" fill="none" xmlns="http://www.w3.org/2000/svg">
<path d="M110.201 63.0875H98.335L89.6137 44.9013C84.858 47.4882 82.1316 53.4832 77.2985 57.4488C74.8355 59.4626 71.9542 61.2596 68.3758 62.4833C66.7493 63.0255 63.9919 63.7381 62.954 63.8465C62.5203 63.893 62.2105 63.8775 62.1485 63.7071C62.102 63.5832 62.2259 63.4902 62.6752 63.2734C63.2019 63.0255 65.3861 62.1115 66.7493 61.1666C68.4532 59.9738 69.4292 58.6881 69.5066 57.6967C69.0419 56.0392 65.6959 52.3833 69.1193 45.6448C70.3431 43.2283 71.412 41.4933 72.171 39.7428C73.0385 37.729 73.6582 34.9097 73.875 32.803C73.8905 32.679 73.906 32.679 73.9835 32.7565C75.641 34.445 82.0851 41.075 81.1557 47.6741C83.2934 46.8531 87.0112 44.3436 88.7307 43.0114C90.5431 41.6017 91.7204 40.1301 93.6413 40.0991C95.3608 40.0681 95.5002 40.8892 96.8789 41.075C97.2197 41.1215 97.7154 41.0596 97.9787 40.9201C98.0871 40.8737 98.0562 40.7497 97.9012 40.7188C96.0424 40.285 95.5931 38.7669 93.1766 38.7669C91.0078 38.7669 89.2884 40.7497 88.0491 41.5707L81.9612 28.8683C79.3743 23.5704 80.1488 19.7132 85.741 12.1227L110.201 63.0875Z" fill="black"/>
<path d="M133.22 89.2353L129.069 84.2937C131.253 83.798 132.585 82.5433 132.585 80.3591C132.585 77.896 130.494 76.6568 127.845 76.6568H119.557V89.2353H121.757V84.4796H126.683L130.478 89.2353H133.22V89.2353ZM121.757 78.6086H127.907C129.425 78.6086 130.323 79.3212 130.323 80.514C130.323 81.7378 129.378 82.5278 127.907 82.5278H121.757V78.6086Z" fill="black"/>
<path d="M44.7679 76.6568L38.2772 89.2353H40.7712L42.1499 86.4315H49.539L50.9177 89.2353H53.4582L46.9676 76.6568H44.7679V76.6568ZM43.1104 84.4796L45.8367 78.9494L48.5631 84.4796H43.1104Z" fill="black"/>
<path d="M65.0916 78.3145C67.1674 78.3145 68.8714 79.089 69.7388 80.4677L71.5203 79.2749C70.281 77.5399 68.0813 76.3316 65.1071 76.3316C60.2895 76.3316 57.5166 79.4763 57.5166 82.9617C57.5166 86.4316 60.2895 89.5763 65.1071 89.5763C68.0968 89.5763 70.281 88.368 71.5203 86.633L69.7388 85.4247C68.8714 86.7879 67.1674 87.578 65.0916 87.578C61.854 87.578 59.7628 85.7655 59.7628 82.9462C59.7628 80.1269 61.854 78.3145 65.0916 78.3145Z" fill="black"/>
<path d="M85.0593 78.3145C87.1196 78.3145 88.839 79.089 89.7065 80.4677L91.488 79.2749C90.2487 77.5399 88.049 76.3316 85.0748 76.3316C80.2572 76.3316 77.4843 79.4763 77.4843 82.9617C77.4843 86.4316 80.2572 89.5763 85.0748 89.5763C88.049 89.5763 90.2487 88.368 91.488 86.633L89.7065 85.4402C88.839 86.8034 87.1351 87.5935 85.0593 87.5935C81.8217 87.5935 79.7305 85.781 79.7305 82.9617C79.7305 80.1424 81.8217 78.3145 85.0593 78.3145Z" fill="black"/>
<path d="M105.027 76.3316C100.209 76.3316 97.4363 79.4763 97.4363 82.9617C97.4363 86.4316 100.209 89.5763 105.027 89.5763C109.844 89.5763 112.617 86.4316 112.617 82.9617C112.617 79.4763 109.86 76.3316 105.027 76.3316ZM105.027 87.6089C101.789 87.6089 99.698 85.781 99.698 82.9462C99.698 80.1114 101.789 78.2835 105.027 78.2835C108.264 78.2835 110.356 80.1114 110.356 82.9462C110.371 85.781 108.28 87.6089 105.027 87.6089Z" fill="black"/>
</svg>
