<svg width="172" height="102" viewBox="0 0 172 102" fill="none" xmlns="http://www.w3.org/2000/svg">
<path fill-rule="evenodd" clip-rule="evenodd" d="M17.9999 77L17.9999 51.5L17.9999 26L86.4146 26L154.829 26V51.5V77L86.4146 77L17.9999 77ZM152.543 74.7041V51.5003V28.2965L86.4147 28.2965L20.2866 28.2965L20.3107 51.4641L20.3468 74.6437L86.4508 74.68L152.543 74.7041Z" fill="black"/>
<path d="M29.7932 38.3758V39.0284L30.3107 39.113C30.5875 39.1492 30.9966 39.2218 31.2133 39.258L31.5983 39.3184L31.5743 51.4883L31.5382 63.6462L30.6717 63.7428L29.7932 63.8516V64.5646V65.2777H34.3662H38.9392V64.5646V63.8516L38.0728 63.7428L37.1943 63.6462L37.1582 58.1111L37.1341 52.5881H43.1512H49.1683V58.0748C49.1683 62.6552 49.1443 63.5737 48.9999 63.622C48.9036 63.6582 48.4463 63.7308 47.9769 63.7791L47.1225 63.8637V64.5646V65.2777H51.8159H56.5092V64.5646V63.8516L55.7029 63.767C55.2697 63.7187 54.8365 63.6582 54.7402 63.622C54.6078 63.5737 54.5837 61.3983 54.5837 51.44V39.3184L55.0651 39.2459C55.3299 39.2097 55.7631 39.1372 56.0278 39.1009L56.5092 39.0284V38.3758V37.7232H51.8159H47.1225V38.3758V39.0284L47.7002 39.1009C48.013 39.1492 48.4703 39.2097 48.7231 39.2459L49.1683 39.3184V44.503V49.6876H43.1512H37.1341V44.503V39.3184L37.6516 39.2338C39.0716 39.0163 38.9392 39.1009 38.9392 38.3758V37.7232H34.3662H29.7932V38.3758Z" fill="black"/>
<path d="M63.5975 38.0608C61.0943 39.366 62.0932 43.1608 64.9333 43.1608C65.7877 43.1608 66.4496 42.8465 67.0032 42.206C67.9057 41.1425 67.9057 39.7406 66.9911 38.6771C66.1487 37.674 64.7889 37.4323 63.5975 38.0608Z" fill="black"/>
<path d="M72.9964 38.3154V38.9075L73.8147 39.0042L74.621 39.113L74.6571 51.4642L74.6812 63.8033L74.3563 63.8758C74.1637 63.912 73.7907 63.9725 73.5139 64.0087L72.9964 64.0933V64.6855V65.2777H77.2686H81.5407V64.6855V64.0933L81.0353 64.0087C80.7464 63.9725 80.3734 63.912 80.1929 63.8758L79.8559 63.8033V50.7632V37.7232H76.4262H72.9964V38.3154Z" fill="black"/>
<path d="M89.5196 40.7929L87.0767 41.5301V43.6088V45.6996H85.2114H83.3461V46.606V47.5124H85.1392H86.9443L86.9804 54.8481C87.0285 63.0178 87.0285 62.9332 87.8589 64.0934C89.1225 65.8337 92.9013 66.015 97.4021 64.5406L98.1482 64.2868V63.6221V62.9574L97.7872 63.042C97.5826 63.0903 96.7281 63.1266 95.8857 63.1266C93.6955 63.1387 92.9975 62.8728 92.468 61.7972L92.1912 61.2292L92.1551 54.3647L92.119 47.5124H94.4176H96.7041V46.606V45.6996H94.4176H92.1311V42.8595C92.1311 41.3005 92.095 40.0195 92.0468 40.0315C91.9867 40.0436 90.8554 40.382 89.5196 40.7929Z" fill="black"/>
<path fill-rule="evenodd" clip-rule="evenodd" d="M102.697 47.3179C103.96 46.3148 106.211 45.4084 108.016 45.1667C108.244 45.1425 109.195 45.1305 110.122 45.1546C112.204 45.2151 113.419 45.493 114.996 46.2665C115.922 46.7378 116.319 47.0158 117.102 47.8134C118.245 48.9615 118.75 49.7712 119.28 51.3544C119.797 52.8771 119.978 54.3153 119.894 56.2127C119.761 59.1978 118.859 61.3127 116.921 63.1376C114.875 65.0712 112.059 65.9897 108.617 65.8326C105.356 65.6996 103.202 64.9262 101.638 63.343C100.326 62.0136 99.676 60.6238 99.2789 58.376C99.0021 56.7686 99.0984 53.7594 99.4714 52.4058C100.025 50.3876 101.216 48.5023 102.697 47.3179ZM113.251 49.2633C112.553 47.7406 111.59 46.9309 110.182 46.665C109.472 46.5321 109.364 46.5321 108.654 46.665C106.367 47.1242 105.08 49.4446 104.767 53.7349C104.454 58.0131 105.2 61.6629 106.728 63.234C107.462 64.0074 108.329 64.3458 109.52 64.3337C112.806 64.3216 114.274 61.5904 114.274 55.5356C114.274 52.5022 114.009 50.9069 113.251 49.2633Z" fill="black"/>
<path d="M134.876 45.349C133.372 45.5424 131.519 46.3763 129.942 47.5727C129.461 47.9353 129.004 48.2374 128.943 48.2374C128.883 48.2374 128.835 47.6694 128.835 46.9684V45.6995H125.405H121.976V46.3521V47.0047L122.553 47.0772C122.866 47.1255 123.263 47.186 123.456 47.2222L123.781 47.2947V55.549V63.8033L123.095 63.8758C121.976 64.0087 121.976 64.0087 121.976 64.6855V65.2777H126.308H130.64V64.6734C130.64 64.335 130.604 64.0691 130.556 64.0571C130.496 64.045 130.111 63.9846 129.678 63.9L128.895 63.767V56.7575V49.7481L129.497 49.3492C129.834 49.1317 130.532 48.7812 131.061 48.5758C131.892 48.2374 132.169 48.1891 133.107 48.177C134.299 48.177 134.852 48.3824 135.478 49.0471C136.429 50.0502 136.561 51.1741 136.513 58.2682L136.477 63.767L135.695 63.9C135.261 63.9846 134.876 64.045 134.828 64.0571C134.768 64.0691 134.732 64.335 134.732 64.6734V65.2777H139.064H143.397V64.6855C143.397 64.0087 143.397 64.0087 142.289 63.8879L141.603 63.8033L141.567 56.7696C141.531 49.8085 141.519 49.736 141.242 48.9021C140.869 47.754 140.508 47.1618 139.786 46.5092C139.076 45.8687 138.174 45.494 136.97 45.3369C136.008 45.204 135.923 45.204 134.876 45.349Z" fill="black"/>
<path d="M60.6011 46.2917V46.8838L61.1787 46.9564C61.4916 47.0047 61.8887 47.0651 62.0813 47.1014L62.4062 47.1739L62.3821 55.4644L62.346 63.767L61.5638 63.9C61.1306 63.9846 60.7455 64.045 60.6973 64.0571C60.6372 64.0691 60.6011 64.335 60.6011 64.6734V65.2777H64.9454H69.2778L69.2417 64.7218C69.1935 64.0571 69.1093 63.9846 68.1586 63.8879L67.4606 63.8154V54.7514V45.6995H64.0308H60.6011V46.2917Z" fill="black"/>
</svg>
