<svg width="50" height="50" viewBox="0 0 50 50" fill="none" xmlns="http://www.w3.org/2000/svg">
<rect width="50" height="50" rx="25" fill="#AFFF2C"/>
<path d="M23.0266 19.9807C23.7764 15.4288 24.1512 13.1529 25 13.1529C25.8488 13.1529 26.2236 15.4288 26.9734 19.9807L27.1711 21.1806C27.2836 21.8638 27.3399 22.2055 27.5672 22.4328C27.7945 22.6601 28.1362 22.7164 28.8194 22.8289L30.0193 23.0266C34.5712 23.7764 36.8471 24.1512 36.8471 25C36.8471 25.8488 34.5712 26.2236 30.0193 26.9734L28.8194 27.1711C28.1362 27.2836 27.7945 27.3399 27.5672 27.5672C27.3399 27.7945 27.2836 28.1362 27.1711 28.8194L26.9734 30.0193C26.2236 34.5712 25.8488 36.8471 25 36.8471C24.1512 36.8471 23.7764 34.5712 23.0266 30.0193L22.8289 28.8194C22.7164 28.1362 22.6601 27.7945 22.4328 27.5672C22.2055 27.3399 21.8638 27.2836 21.1806 27.1711L19.9807 26.9734C15.4288 26.2236 13.1529 25.8488 13.1529 25C13.1529 24.1512 15.4288 23.7764 19.9807 23.0266L21.1806 22.8289C21.8638 22.7164 22.2055 22.6601 22.4328 22.4328C22.6601 22.2055 22.7164 21.8638 22.8289 21.1806L23.0266 19.9807Z" fill="black"/>
</svg>
