<svg width="110" height="110" viewBox="0 0 110 110" fill="none" xmlns="http://www.w3.org/2000/svg">
<path d="M98 0H12C5.37258 0 0 5.37258 0 12V98C0 104.627 5.37258 110 12 110H98C104.627 110 110 104.627 110 98V12C110 5.37258 104.627 0 98 0Z" fill="white"/>
<path d="M12.9752 9.82501H9.8252V12.975H12.9752V9.82501Z" fill="black"/>
<path d="M16.1246 9.82501H12.9746V12.975H16.1246V9.82501Z" fill="black"/>
<path d="M19.275 9.82501H16.125V12.975H19.275V9.82501Z" fill="black"/>
<path d="M22.4254 9.82501H19.2754V12.975H22.4254V9.82501Z" fill="black"/>
<path d="M25.5748 9.82501H22.4248V12.975H25.5748V9.82501Z" fill="black"/>
<path d="M28.7252 9.82501H25.5752V12.975H28.7252V9.82501Z" fill="black"/>
<path d="M31.8746 9.82501H28.7246V12.975H31.8746V9.82501Z" fill="black"/>
<path d="M47.6246 9.82501H44.4746V12.975H47.6246V9.82501Z" fill="black"/>
<path d="M57.0748 9.82501H53.9248V12.975H57.0748V9.82501Z" fill="black"/>
<path d="M63.3746 9.82501H60.2246V12.975H63.3746V9.82501Z" fill="black"/>
<path d="M72.8248 9.82501H69.6748V12.975H72.8248V9.82501Z" fill="black"/>
<path d="M75.9752 9.82501H72.8252V12.975H75.9752V9.82501Z" fill="black"/>
<path d="M82.275 9.82501H79.125V12.975H82.275V9.82501Z" fill="black"/>
<path d="M85.4254 9.82501H82.2754V12.975H85.4254V9.82501Z" fill="black"/>
<path d="M88.5748 9.82501H85.4248V12.975H88.5748V9.82501Z" fill="black"/>
<path d="M91.7252 9.82501H88.5752V12.975H91.7252V9.82501Z" fill="black"/>
<path d="M94.8746 9.82501H91.7246V12.975H94.8746V9.82501Z" fill="black"/>
<path d="M98.025 9.82501H94.875V12.975H98.025V9.82501Z" fill="black"/>
<path d="M101.175 9.82501H98.0254V12.975H101.175V9.82501Z" fill="black"/>
<path d="M12.9752 12.975H9.8252V16.125H12.9752V12.975Z" fill="black"/>
<path d="M31.8746 12.975H28.7246V16.125H31.8746V12.975Z" fill="black"/>
<path d="M38.1754 12.975H35.0254V16.125H38.1754V12.975Z" fill="black"/>
<path d="M44.4752 12.975H41.3252V16.125H44.4752V12.975Z" fill="black"/>
<path d="M50.775 12.975H47.625V16.125H50.775V12.975Z" fill="black"/>
<path d="M53.9254 12.975H50.7754V16.125H53.9254V12.975Z" fill="black"/>
<path d="M60.2252 12.975H57.0752V16.125H60.2252V12.975Z" fill="black"/>
<path d="M63.3746 12.975H60.2246V16.125H63.3746V12.975Z" fill="black"/>
<path d="M69.6754 12.975H66.5254V16.125H69.6754V12.975Z" fill="black"/>
<path d="M82.275 12.975H79.125V16.125H82.275V12.975Z" fill="black"/>
<path d="M101.175 12.975H98.0254V16.125H101.175V12.975Z" fill="black"/>
<path d="M12.9752 16.125H9.8252V19.275H12.9752V16.125Z" fill="black"/>
<path d="M19.275 16.125H16.125V19.275H19.275V16.125Z" fill="black"/>
<path d="M22.4254 16.125H19.2754V19.275H22.4254V16.125Z" fill="black"/>
<path d="M25.5748 16.125H22.4248V19.275H25.5748V16.125Z" fill="black"/>
<path d="M31.8746 16.125H28.7246V19.275H31.8746V16.125Z" fill="black"/>
<path d="M41.3248 16.125H38.1748V19.275H41.3248V16.125Z" fill="black"/>
<path d="M44.4752 16.125H41.3252V19.275H44.4752V16.125Z" fill="black"/>
<path d="M57.0748 16.125H53.9248V19.275H57.0748V16.125Z" fill="black"/>
<path d="M60.2252 16.125H57.0752V19.275H60.2252V16.125Z" fill="black"/>
<path d="M69.6754 16.125H66.5254V19.275H69.6754V16.125Z" fill="black"/>
<path d="M82.275 16.125H79.125V19.275H82.275V16.125Z" fill="black"/>
<path d="M88.5748 16.125H85.4248V19.275H88.5748V16.125Z" fill="black"/>
<path d="M91.7252 16.125H88.5752V19.275H91.7252V16.125Z" fill="black"/>
<path d="M94.8746 16.125H91.7246V19.275H94.8746V16.125Z" fill="black"/>
<path d="M101.175 16.125H98.0254V19.275H101.175V16.125Z" fill="black"/>
<path d="M12.9752 19.275H9.8252V22.425H12.9752V19.275Z" fill="black"/>
<path d="M19.275 19.275H16.125V22.425H19.275V19.275Z" fill="black"/>
<path d="M22.4254 19.275H19.2754V22.425H22.4254V19.275Z" fill="black"/>
<path d="M25.5748 19.275H22.4248V22.425H25.5748V19.275Z" fill="black"/>
<path d="M31.8746 19.275H28.7246V22.425H31.8746V19.275Z" fill="black"/>
<path d="M38.1754 19.275H35.0254V22.425H38.1754V19.275Z" fill="black"/>
<path d="M41.3248 19.275H38.1748V22.425H41.3248V19.275Z" fill="black"/>
<path d="M53.9254 19.275H50.7754V22.425H53.9254V19.275Z" fill="black"/>
<path d="M57.0748 19.275H53.9248V22.425H57.0748V19.275Z" fill="black"/>
<path d="M60.2252 19.275H57.0752V22.425H60.2252V19.275Z" fill="black"/>
<path d="M66.525 19.275H63.375V22.425H66.525V19.275Z" fill="black"/>
<path d="M69.6754 19.275H66.5254V22.425H69.6754V19.275Z" fill="black"/>
<path d="M75.9752 19.275H72.8252V22.425H75.9752V19.275Z" fill="black"/>
<path d="M82.275 19.275H79.125V22.425H82.275V19.275Z" fill="black"/>
<path d="M88.5748 19.275H85.4248V22.425H88.5748V19.275Z" fill="black"/>
<path d="M91.7252 19.275H88.5752V22.425H91.7252V19.275Z" fill="black"/>
<path d="M94.8746 19.275H91.7246V22.425H94.8746V19.275Z" fill="black"/>
<path d="M101.175 19.275H98.0254V22.425H101.175V19.275Z" fill="black"/>
<path d="M12.9752 22.425H9.8252V25.575H12.9752V22.425Z" fill="black"/>
<path d="M19.275 22.425H16.125V25.575H19.275V22.425Z" fill="black"/>
<path d="M22.4254 22.425H19.2754V25.575H22.4254V22.425Z" fill="black"/>
<path d="M25.5748 22.425H22.4248V25.575H25.5748V22.425Z" fill="black"/>
<path d="M31.8746 22.425H28.7246V25.575H31.8746V22.425Z" fill="black"/>
<path d="M47.6246 22.425H44.4746V25.575H47.6246V22.425Z" fill="black"/>
<path d="M57.0748 22.425H53.9248V25.575H57.0748V22.425Z" fill="black"/>
<path d="M63.3746 22.425H60.2246V25.575H63.3746V22.425Z" fill="black"/>
<path d="M66.525 22.425H63.375V25.575H66.525V22.425Z" fill="black"/>
<path d="M69.6754 22.425H66.5254V25.575H69.6754V22.425Z" fill="black"/>
<path d="M72.8248 22.425H69.6748V25.575H72.8248V22.425Z" fill="black"/>
<path d="M75.9752 22.425H72.8252V25.575H75.9752V22.425Z" fill="black"/>
<path d="M82.275 22.425H79.125V25.575H82.275V22.425Z" fill="black"/>
<path d="M88.5748 22.425H85.4248V25.575H88.5748V22.425Z" fill="black"/>
<path d="M91.7252 22.425H88.5752V25.575H91.7252V22.425Z" fill="black"/>
<path d="M94.8746 22.425H91.7246V25.575H94.8746V22.425Z" fill="black"/>
<path d="M101.175 22.425H98.0254V25.575H101.175V22.425Z" fill="black"/>
<path d="M12.9752 25.575H9.8252V28.725H12.9752V25.575Z" fill="black"/>
<path d="M31.8746 25.575H28.7246V28.725H31.8746V25.575Z" fill="black"/>
<path d="M38.1754 25.575H35.0254V28.725H38.1754V25.575Z" fill="black"/>
<path d="M44.4752 25.575H41.3252V28.725H44.4752V25.575Z" fill="black"/>
<path d="M57.0748 25.575H53.9248V28.725H57.0748V25.575Z" fill="black"/>
<path d="M60.2252 25.575H57.0752V28.725H60.2252V25.575Z" fill="black"/>
<path d="M66.525 25.575H63.375V28.725H66.525V25.575Z" fill="black"/>
<path d="M75.9752 25.575H72.8252V28.725H75.9752V25.575Z" fill="black"/>
<path d="M82.275 25.575H79.125V28.725H82.275V25.575Z" fill="black"/>
<path d="M101.175 25.575H98.0254V28.725H101.175V25.575Z" fill="black"/>
<path d="M12.9752 28.725H9.8252V31.875H12.9752V28.725Z" fill="black"/>
<path d="M16.1246 28.725H12.9746V31.875H16.1246V28.725Z" fill="black"/>
<path d="M19.275 28.725H16.125V31.875H19.275V28.725Z" fill="black"/>
<path d="M22.4254 28.725H19.2754V31.875H22.4254V28.725Z" fill="black"/>
<path d="M25.5748 28.725H22.4248V31.875H25.5748V28.725Z" fill="black"/>
<path d="M28.7252 28.725H25.5752V31.875H28.7252V28.725Z" fill="black"/>
<path d="M31.8746 28.725H28.7246V31.875H31.8746V28.725Z" fill="black"/>
<path d="M38.1754 28.725H35.0254V31.875H38.1754V28.725Z" fill="black"/>
<path d="M44.4752 28.725H41.3252V31.875H44.4752V28.725Z" fill="black"/>
<path d="M50.775 28.725H47.625V31.875H50.775V28.725Z" fill="black"/>
<path d="M57.0748 28.725H53.9248V31.875H57.0748V28.725Z" fill="black"/>
<path d="M63.3746 28.725H60.2246V31.875H63.3746V28.725Z" fill="black"/>
<path d="M69.6754 28.725H66.5254V31.875H69.6754V28.725Z" fill="black"/>
<path d="M75.9752 28.725H72.8252V31.875H75.9752V28.725Z" fill="black"/>
<path d="M82.275 28.725H79.125V31.875H82.275V28.725Z" fill="black"/>
<path d="M85.4254 28.725H82.2754V31.875H85.4254V28.725Z" fill="black"/>
<path d="M88.5748 28.725H85.4248V31.875H88.5748V28.725Z" fill="black"/>
<path d="M91.7252 28.725H88.5752V31.875H91.7252V28.725Z" fill="black"/>
<path d="M94.8746 28.725H91.7246V31.875H94.8746V28.725Z" fill="black"/>
<path d="M98.025 28.725H94.875V31.875H98.025V28.725Z" fill="black"/>
<path d="M101.175 28.725H98.0254V31.875H101.175V28.725Z" fill="black"/>
<path d="M47.6246 31.875H44.4746V35.025H47.6246V31.875Z" fill="black"/>
<path d="M60.2252 31.875H57.0752V35.025H60.2252V31.875Z" fill="black"/>
<path d="M63.3746 31.875H60.2246V35.025H63.3746V31.875Z" fill="black"/>
<path d="M12.9752 35.025H9.8252V38.175H12.9752V35.025Z" fill="black"/>
<path d="M16.1246 35.025H12.9746V38.175H16.1246V35.025Z" fill="black"/>
<path d="M19.275 35.025H16.125V38.175H19.275V35.025Z" fill="black"/>
<path d="M22.4254 35.025H19.2754V38.175H22.4254V35.025Z" fill="black"/>
<path d="M25.5748 35.025H22.4248V38.175H25.5748V35.025Z" fill="black"/>
<path d="M31.8746 35.025H28.7246V38.175H31.8746V35.025Z" fill="black"/>
<path d="M35.025 35.025H31.875V38.175H35.025V35.025Z" fill="black"/>
<path d="M38.1754 35.025H35.0254V38.175H38.1754V35.025Z" fill="black"/>
<path d="M41.3248 35.025H38.1748V38.175H41.3248V35.025Z" fill="black"/>
<path d="M44.4752 35.025H41.3252V38.175H44.4752V35.025Z" fill="black"/>
<path d="M47.6246 35.025H44.4746V38.175H47.6246V35.025Z" fill="black"/>
<path d="M50.775 35.025H47.625V38.175H50.775V35.025Z" fill="black"/>
<path d="M53.9254 35.025H50.7754V38.175H53.9254V35.025Z" fill="black"/>
<path d="M57.0748 35.025H53.9248V38.175H57.0748V35.025Z" fill="black"/>
<path d="M66.525 35.025H63.375V38.175H66.525V35.025Z" fill="black"/>
<path d="M69.6754 35.025H66.5254V38.175H69.6754V35.025Z" fill="black"/>
<path d="M79.1246 35.025H75.9746V38.175H79.1246V35.025Z" fill="black"/>
<path d="M85.4254 35.025H82.2754V38.175H85.4254V35.025Z" fill="black"/>
<path d="M91.7252 35.025H88.5752V38.175H91.7252V35.025Z" fill="black"/>
<path d="M98.025 35.025H94.875V38.175H98.025V35.025Z" fill="black"/>
<path d="M19.275 38.175H16.125V41.325H19.275V38.175Z" fill="black"/>
<path d="M25.5748 38.175H22.4248V41.325H25.5748V38.175Z" fill="black"/>
<path d="M41.3248 38.175H38.1748V41.325H41.3248V38.175Z" fill="black"/>
<path d="M47.6246 38.175H44.4746V41.325H47.6246V38.175Z" fill="black"/>
<path d="M53.9254 38.175H50.7754V41.325H53.9254V38.175Z" fill="black"/>
<path d="M63.3746 38.175H60.2246V41.325H63.3746V38.175Z" fill="black"/>
<path d="M66.525 38.175H63.375V41.325H66.525V38.175Z" fill="black"/>
<path d="M72.8248 38.175H69.6748V41.325H72.8248V38.175Z" fill="black"/>
<path d="M75.9752 38.175H72.8252V41.325H75.9752V38.175Z" fill="black"/>
<path d="M79.1246 38.175H75.9746V41.325H79.1246V38.175Z" fill="black"/>
<path d="M82.275 38.175H79.125V41.325H82.275V38.175Z" fill="black"/>
<path d="M88.5748 38.175H85.4248V41.325H88.5748V38.175Z" fill="black"/>
<path d="M101.175 38.175H98.0254V41.325H101.175V38.175Z" fill="black"/>
<path d="M19.275 41.325H16.125V44.475H19.275V41.325Z" fill="black"/>
<path d="M22.4254 41.325H19.2754V44.475H22.4254V41.325Z" fill="black"/>
<path d="M25.5748 41.325H22.4248V44.475H25.5748V41.325Z" fill="black"/>
<path d="M31.8746 41.325H28.7246V44.475H31.8746V41.325Z" fill="black"/>
<path d="M41.3248 41.325H38.1748V44.475H41.3248V41.325Z" fill="black"/>
<path d="M53.9254 41.325H50.7754V44.475H53.9254V41.325Z" fill="black"/>
<path d="M57.0748 41.325H53.9248V44.475H57.0748V41.325Z" fill="black"/>
<path d="M60.2252 41.325H57.0752V44.475H60.2252V41.325Z" fill="black"/>
<path d="M66.525 41.325H63.375V44.475H66.525V41.325Z" fill="black"/>
<path d="M82.275 41.325H79.125V44.475H82.275V41.325Z" fill="black"/>
<path d="M85.4254 41.325H82.2754V44.475H85.4254V41.325Z" fill="black"/>
<path d="M16.1246 44.475H12.9746V47.625H16.1246V44.475Z" fill="black"/>
<path d="M19.275 44.475H16.125V47.625H19.275V44.475Z" fill="black"/>
<path d="M25.5748 44.475H22.4248V47.625H25.5748V44.475Z" fill="black"/>
<path d="M28.7252 44.475H25.5752V47.625H28.7252V44.475Z" fill="black"/>
<path d="M35.025 44.475H31.875V47.625H35.025V44.475Z" fill="black"/>
<path d="M38.1754 44.475H35.0254V47.625H38.1754V44.475Z" fill="black"/>
<path d="M41.3248 44.475H38.1748V47.625H41.3248V44.475Z" fill="black"/>
<path d="M44.4752 44.475H41.3252V47.625H44.4752V44.475Z" fill="black"/>
<path d="M63.3746 44.475H60.2246V47.625H63.3746V44.475Z" fill="black"/>
<path d="M72.8248 44.475H69.6748V47.625H72.8248V44.475Z" fill="black"/>
<path d="M75.9752 44.475H72.8252V47.625H75.9752V44.475Z" fill="black"/>
<path d="M79.1246 44.475H75.9746V47.625H79.1246V44.475Z" fill="black"/>
<path d="M82.275 44.475H79.125V47.625H82.275V44.475Z" fill="black"/>
<path d="M85.4254 44.475H82.2754V47.625H85.4254V44.475Z" fill="black"/>
<path d="M91.7252 44.475H88.5752V47.625H91.7252V44.475Z" fill="black"/>
<path d="M98.025 44.475H94.875V47.625H98.025V44.475Z" fill="black"/>
<path d="M12.9752 47.625H9.8252V50.775H12.9752V47.625Z" fill="black"/>
<path d="M19.275 47.625H16.125V50.775H19.275V47.625Z" fill="black"/>
<path d="M31.8746 47.625H28.7246V50.775H31.8746V47.625Z" fill="black"/>
<path d="M35.025 47.625H31.875V50.775H35.025V47.625Z" fill="black"/>
<path d="M41.3248 47.625H38.1748V50.775H41.3248V47.625Z" fill="black"/>
<path d="M47.6246 47.625H44.4746V50.775H47.6246V47.625Z" fill="black"/>
<path d="M50.775 47.625H47.625V50.775H50.775V47.625Z" fill="black"/>
<path d="M53.9254 47.625H50.7754V50.775H53.9254V47.625Z" fill="black"/>
<path d="M57.0748 47.625H53.9248V50.775H57.0748V47.625Z" fill="black"/>
<path d="M60.2252 47.625H57.0752V50.775H60.2252V47.625Z" fill="black"/>
<path d="M66.525 47.625H63.375V50.775H66.525V47.625Z" fill="black"/>
<path d="M72.8248 47.625H69.6748V50.775H72.8248V47.625Z" fill="black"/>
<path d="M91.7252 47.625H88.5752V50.775H91.7252V47.625Z" fill="black"/>
<path d="M94.8746 47.625H91.7246V50.775H94.8746V47.625Z" fill="black"/>
<path d="M16.1246 50.775H12.9746V53.925H16.1246V50.775Z" fill="black"/>
<path d="M19.275 50.775H16.125V53.925H19.275V50.775Z" fill="black"/>
<path d="M22.4254 50.775H19.2754V53.925H22.4254V50.775Z" fill="black"/>
<path d="M25.5748 50.775H22.4248V53.925H25.5748V50.775Z" fill="black"/>
<path d="M28.7252 50.775H25.5752V53.925H28.7252V50.775Z" fill="black"/>
<path d="M38.1754 50.775H35.0254V53.925H38.1754V50.775Z" fill="black"/>
<path d="M44.4752 50.775H41.3252V53.925H44.4752V50.775Z" fill="black"/>
<path d="M47.6246 50.775H44.4746V53.925H47.6246V50.775Z" fill="black"/>
<path d="M72.8248 50.775H69.6748V53.925H72.8248V50.775Z" fill="black"/>
<path d="M79.1246 50.775H75.9746V53.925H79.1246V50.775Z" fill="black"/>
<path d="M82.275 50.775H79.125V53.925H82.275V50.775Z" fill="black"/>
<path d="M85.4254 50.775H82.2754V53.925H85.4254V50.775Z" fill="black"/>
<path d="M88.5748 50.775H85.4248V53.925H88.5748V50.775Z" fill="black"/>
<path d="M101.175 50.775H98.0254V53.925H101.175V50.775Z" fill="black"/>
<path d="M22.4254 53.925H19.2754V57.075H22.4254V53.925Z" fill="black"/>
<path d="M25.5748 53.925H22.4248V57.075H25.5748V53.925Z" fill="black"/>
<path d="M28.7252 53.925H25.5752V57.075H28.7252V53.925Z" fill="black"/>
<path d="M31.8746 53.925H28.7246V57.075H31.8746V53.925Z" fill="black"/>
<path d="M44.4752 53.925H41.3252V57.075H44.4752V53.925Z" fill="black"/>
<path d="M60.2252 53.925H57.0752V57.075H60.2252V53.925Z" fill="black"/>
<path d="M63.3746 53.925H60.2246V57.075H63.3746V53.925Z" fill="black"/>
<path d="M66.525 53.925H63.375V57.075H66.525V53.925Z" fill="black"/>
<path d="M69.6754 53.925H66.5254V57.075H69.6754V53.925Z" fill="black"/>
<path d="M75.9752 53.925H72.8252V57.075H75.9752V53.925Z" fill="black"/>
<path d="M79.1246 53.925H75.9746V57.075H79.1246V53.925Z" fill="black"/>
<path d="M82.275 53.925H79.125V57.075H82.275V53.925Z" fill="black"/>
<path d="M85.4254 53.925H82.2754V57.075H85.4254V53.925Z" fill="black"/>
<path d="M88.5748 53.925H85.4248V57.075H88.5748V53.925Z" fill="black"/>
<path d="M91.7252 53.925H88.5752V57.075H91.7252V53.925Z" fill="black"/>
<path d="M94.8746 53.925H91.7246V57.075H94.8746V53.925Z" fill="black"/>
<path d="M12.9752 57.075H9.8252V60.225H12.9752V57.075Z" fill="black"/>
<path d="M25.5748 57.075H22.4248V60.225H25.5748V57.075Z" fill="black"/>
<path d="M28.7252 57.075H25.5752V60.225H28.7252V57.075Z" fill="black"/>
<path d="M35.025 57.075H31.875V60.225H35.025V57.075Z" fill="black"/>
<path d="M50.775 57.075H47.625V60.225H50.775V57.075Z" fill="black"/>
<path d="M57.0748 57.075H53.9248V60.225H57.0748V57.075Z" fill="black"/>
<path d="M60.2252 57.075H57.0752V60.225H60.2252V57.075Z" fill="black"/>
<path d="M69.6754 57.075H66.5254V60.225H69.6754V57.075Z" fill="black"/>
<path d="M79.1246 57.075H75.9746V60.225H79.1246V57.075Z" fill="black"/>
<path d="M85.4254 57.075H82.2754V60.225H85.4254V57.075Z" fill="black"/>
<path d="M98.025 57.075H94.875V60.225H98.025V57.075Z" fill="black"/>
<path d="M16.1246 60.225H12.9746V63.375H16.1246V60.225Z" fill="black"/>
<path d="M28.7252 60.225H25.5752V63.375H28.7252V60.225Z" fill="black"/>
<path d="M31.8746 60.225H28.7246V63.375H31.8746V60.225Z" fill="black"/>
<path d="M35.025 60.225H31.875V63.375H35.025V60.225Z" fill="black"/>
<path d="M50.775 60.225H47.625V63.375H50.775V60.225Z" fill="black"/>
<path d="M53.9254 60.225H50.7754V63.375H53.9254V60.225Z" fill="black"/>
<path d="M57.0748 60.225H53.9248V63.375H57.0748V60.225Z" fill="black"/>
<path d="M60.2252 60.225H57.0752V63.375H60.2252V60.225Z" fill="black"/>
<path d="M63.3746 60.225H60.2246V63.375H63.3746V60.225Z" fill="black"/>
<path d="M66.525 60.225H63.375V63.375H66.525V60.225Z" fill="black"/>
<path d="M91.7252 60.225H88.5752V63.375H91.7252V60.225Z" fill="black"/>
<path d="M94.8746 60.225H91.7246V63.375H94.8746V60.225Z" fill="black"/>
<path d="M12.9752 63.375H9.8252V66.525H12.9752V63.375Z" fill="black"/>
<path d="M16.1246 63.375H12.9746V66.525H16.1246V63.375Z" fill="black"/>
<path d="M22.4254 63.375H19.2754V66.525H22.4254V63.375Z" fill="black"/>
<path d="M35.025 63.375H31.875V66.525H35.025V63.375Z" fill="black"/>
<path d="M41.3248 63.375H38.1748V66.525H41.3248V63.375Z" fill="black"/>
<path d="M47.6246 63.375H44.4746V66.525H47.6246V63.375Z" fill="black"/>
<path d="M53.9254 63.375H50.7754V66.525H53.9254V63.375Z" fill="black"/>
<path d="M66.525 63.375H63.375V66.525H66.525V63.375Z" fill="black"/>
<path d="M69.6754 63.375H66.5254V66.525H69.6754V63.375Z" fill="black"/>
<path d="M72.8248 63.375H69.6748V66.525H72.8248V63.375Z" fill="black"/>
<path d="M75.9752 63.375H72.8252V66.525H75.9752V63.375Z" fill="black"/>
<path d="M79.1246 63.375H75.9746V66.525H79.1246V63.375Z" fill="black"/>
<path d="M82.275 63.375H79.125V66.525H82.275V63.375Z" fill="black"/>
<path d="M85.4254 63.375H82.2754V66.525H85.4254V63.375Z" fill="black"/>
<path d="M88.5748 63.375H85.4248V66.525H88.5748V63.375Z" fill="black"/>
<path d="M94.8746 63.375H91.7246V66.525H94.8746V63.375Z" fill="black"/>
<path d="M101.175 63.375H98.0254V66.525H101.175V63.375Z" fill="black"/>
<path d="M12.9752 66.525H9.8252V69.675H12.9752V66.525Z" fill="black"/>
<path d="M19.275 66.525H16.125V69.675H19.275V66.525Z" fill="black"/>
<path d="M22.4254 66.525H19.2754V69.675H22.4254V66.525Z" fill="black"/>
<path d="M25.5748 66.525H22.4248V69.675H25.5748V66.525Z" fill="black"/>
<path d="M31.8746 66.525H28.7246V69.675H31.8746V66.525Z" fill="black"/>
<path d="M38.1754 66.525H35.0254V69.675H38.1754V66.525Z" fill="black"/>
<path d="M41.3248 66.525H38.1748V69.675H41.3248V66.525Z" fill="black"/>
<path d="M57.0748 66.525H53.9248V69.675H57.0748V66.525Z" fill="black"/>
<path d="M60.2252 66.525H57.0752V69.675H60.2252V66.525Z" fill="black"/>
<path d="M66.525 66.525H63.375V69.675H66.525V66.525Z" fill="black"/>
<path d="M82.275 66.525H79.125V69.675H82.275V66.525Z" fill="black"/>
<path d="M85.4254 66.525H82.2754V69.675H85.4254V66.525Z" fill="black"/>
<path d="M88.5748 66.525H85.4248V69.675H88.5748V66.525Z" fill="black"/>
<path d="M94.8746 66.525H91.7246V69.675H94.8746V66.525Z" fill="black"/>
<path d="M12.9752 69.675H9.8252V72.825H12.9752V69.675Z" fill="black"/>
<path d="M28.7252 69.675H25.5752V72.825H28.7252V69.675Z" fill="black"/>
<path d="M38.1754 69.675H35.0254V72.825H38.1754V69.675Z" fill="black"/>
<path d="M41.3248 69.675H38.1748V72.825H41.3248V69.675Z" fill="black"/>
<path d="M44.4752 69.675H41.3252V72.825H44.4752V69.675Z" fill="black"/>
<path d="M47.6246 69.675H44.4746V72.825H47.6246V69.675Z" fill="black"/>
<path d="M50.775 69.675H47.625V72.825H50.775V69.675Z" fill="black"/>
<path d="M57.0748 69.675H53.9248V72.825H57.0748V69.675Z" fill="black"/>
<path d="M60.2252 69.675H57.0752V72.825H60.2252V69.675Z" fill="black"/>
<path d="M72.8248 69.675H69.6748V72.825H72.8248V69.675Z" fill="black"/>
<path d="M82.275 69.675H79.125V72.825H82.275V69.675Z" fill="black"/>
<path d="M85.4254 69.675H82.2754V72.825H85.4254V69.675Z" fill="black"/>
<path d="M88.5748 69.675H85.4248V72.825H88.5748V69.675Z" fill="black"/>
<path d="M98.025 69.675H94.875V72.825H98.025V69.675Z" fill="black"/>
<path d="M12.9752 72.825H9.8252V75.975H12.9752V72.825Z" fill="black"/>
<path d="M25.5748 72.825H22.4248V75.975H25.5748V72.825Z" fill="black"/>
<path d="M31.8746 72.825H28.7246V75.975H31.8746V72.825Z" fill="black"/>
<path d="M35.025 72.825H31.875V75.975H35.025V72.825Z" fill="black"/>
<path d="M47.6246 72.825H44.4746V75.975H47.6246V72.825Z" fill="black"/>
<path d="M50.775 72.825H47.625V75.975H50.775V72.825Z" fill="black"/>
<path d="M53.9254 72.825H50.7754V75.975H53.9254V72.825Z" fill="black"/>
<path d="M57.0748 72.825H53.9248V75.975H57.0748V72.825Z" fill="black"/>
<path d="M60.2252 72.825H57.0752V75.975H60.2252V72.825Z" fill="black"/>
<path d="M63.3746 72.825H60.2246V75.975H63.3746V72.825Z" fill="black"/>
<path d="M66.525 72.825H63.375V75.975H66.525V72.825Z" fill="black"/>
<path d="M72.8248 72.825H69.6748V75.975H72.8248V72.825Z" fill="black"/>
<path d="M75.9752 72.825H72.8252V75.975H75.9752V72.825Z" fill="black"/>
<path d="M79.1246 72.825H75.9746V75.975H79.1246V72.825Z" fill="black"/>
<path d="M82.275 72.825H79.125V75.975H82.275V72.825Z" fill="black"/>
<path d="M85.4254 72.825H82.2754V75.975H85.4254V72.825Z" fill="black"/>
<path d="M88.5748 72.825H85.4248V75.975H88.5748V72.825Z" fill="black"/>
<path d="M94.8746 72.825H91.7246V75.975H94.8746V72.825Z" fill="black"/>
<path d="M98.025 72.825H94.875V75.975H98.025V72.825Z" fill="black"/>
<path d="M101.175 72.825H98.0254V75.975H101.175V72.825Z" fill="black"/>
<path d="M38.1754 75.975H35.0254V79.125H38.1754V75.975Z" fill="black"/>
<path d="M47.6246 75.975H44.4746V79.125H47.6246V75.975Z" fill="black"/>
<path d="M66.525 75.975H63.375V79.125H66.525V75.975Z" fill="black"/>
<path d="M69.6754 75.975H66.5254V79.125H69.6754V75.975Z" fill="black"/>
<path d="M72.8248 75.975H69.6748V79.125H72.8248V75.975Z" fill="black"/>
<path d="M75.9752 75.975H72.8252V79.125H75.9752V75.975Z" fill="black"/>
<path d="M88.5748 75.975H85.4248V79.125H88.5748V75.975Z" fill="black"/>
<path d="M91.7252 75.975H88.5752V79.125H91.7252V75.975Z" fill="black"/>
<path d="M94.8746 75.975H91.7246V79.125H94.8746V75.975Z" fill="black"/>
<path d="M98.025 75.975H94.875V79.125H98.025V75.975Z" fill="black"/>
<path d="M101.175 75.975H98.0254V79.125H101.175V75.975Z" fill="black"/>
<path d="M12.9752 79.125H9.8252V82.275H12.9752V79.125Z" fill="black"/>
<path d="M16.1246 79.125H12.9746V82.275H16.1246V79.125Z" fill="black"/>
<path d="M19.275 79.125H16.125V82.275H19.275V79.125Z" fill="black"/>
<path d="M22.4254 79.125H19.2754V82.275H22.4254V79.125Z" fill="black"/>
<path d="M25.5748 79.125H22.4248V82.275H25.5748V79.125Z" fill="black"/>
<path d="M28.7252 79.125H25.5752V82.275H28.7252V79.125Z" fill="black"/>
<path d="M31.8746 79.125H28.7246V82.275H31.8746V79.125Z" fill="black"/>
<path d="M38.1754 79.125H35.0254V82.275H38.1754V79.125Z" fill="black"/>
<path d="M41.3248 79.125H38.1748V82.275H41.3248V79.125Z" fill="black"/>
<path d="M57.0748 79.125H53.9248V82.275H57.0748V79.125Z" fill="black"/>
<path d="M60.2252 79.125H57.0752V82.275H60.2252V79.125Z" fill="black"/>
<path d="M63.3746 79.125H60.2246V82.275H63.3746V79.125Z" fill="black"/>
<path d="M66.525 79.125H63.375V82.275H66.525V79.125Z" fill="black"/>
<path d="M72.8248 79.125H69.6748V82.275H72.8248V79.125Z" fill="black"/>
<path d="M75.9752 79.125H72.8252V82.275H75.9752V79.125Z" fill="black"/>
<path d="M82.275 79.125H79.125V82.275H82.275V79.125Z" fill="black"/>
<path d="M88.5748 79.125H85.4248V82.275H88.5748V79.125Z" fill="black"/>
<path d="M91.7252 79.125H88.5752V82.275H91.7252V79.125Z" fill="black"/>
<path d="M94.8746 79.125H91.7246V82.275H94.8746V79.125Z" fill="black"/>
<path d="M12.9752 82.275H9.8252V85.425H12.9752V82.275Z" fill="black"/>
<path d="M31.8746 82.275H28.7246V85.425H31.8746V82.275Z" fill="black"/>
<path d="M44.4752 82.275H41.3252V85.425H44.4752V82.275Z" fill="black"/>
<path d="M50.775 82.275H47.625V85.425H50.775V82.275Z" fill="black"/>
<path d="M57.0748 82.275H53.9248V85.425H57.0748V82.275Z" fill="black"/>
<path d="M60.2252 82.275H57.0752V85.425H60.2252V82.275Z" fill="black"/>
<path d="M72.8248 82.275H69.6748V85.425H72.8248V82.275Z" fill="black"/>
<path d="M75.9752 82.275H72.8252V85.425H75.9752V82.275Z" fill="black"/>
<path d="M88.5748 82.275H85.4248V85.425H88.5748V82.275Z" fill="black"/>
<path d="M101.175 82.275H98.0254V85.425H101.175V82.275Z" fill="black"/>
<path d="M12.9752 85.425H9.8252V88.575H12.9752V85.425Z" fill="black"/>
<path d="M19.275 85.425H16.125V88.575H19.275V85.425Z" fill="black"/>
<path d="M22.4254 85.425H19.2754V88.575H22.4254V85.425Z" fill="black"/>
<path d="M25.5748 85.425H22.4248V88.575H25.5748V85.425Z" fill="black"/>
<path d="M31.8746 85.425H28.7246V88.575H31.8746V85.425Z" fill="black"/>
<path d="M38.1754 85.425H35.0254V88.575H38.1754V85.425Z" fill="black"/>
<path d="M50.775 85.425H47.625V88.575H50.775V85.425Z" fill="black"/>
<path d="M53.9254 85.425H50.7754V88.575H53.9254V85.425Z" fill="black"/>
<path d="M60.2252 85.425H57.0752V88.575H60.2252V85.425Z" fill="black"/>
<path d="M63.3746 85.425H60.2246V88.575H63.3746V85.425Z" fill="black"/>
<path d="M66.525 85.425H63.375V88.575H66.525V85.425Z" fill="black"/>
<path d="M75.9752 85.425H72.8252V88.575H75.9752V85.425Z" fill="black"/>
<path d="M79.1246 85.425H75.9746V88.575H79.1246V85.425Z" fill="black"/>
<path d="M82.275 85.425H79.125V88.575H82.275V85.425Z" fill="black"/>
<path d="M85.4254 85.425H82.2754V88.575H85.4254V85.425Z" fill="black"/>
<path d="M88.5748 85.425H85.4248V88.575H88.5748V85.425Z" fill="black"/>
<path d="M94.8746 85.425H91.7246V88.575H94.8746V85.425Z" fill="black"/>
<path d="M98.025 85.425H94.875V88.575H98.025V85.425Z" fill="black"/>
<path d="M12.9752 88.575H9.8252V91.725H12.9752V88.575Z" fill="black"/>
<path d="M19.275 88.575H16.125V91.725H19.275V88.575Z" fill="black"/>
<path d="M22.4254 88.575H19.2754V91.725H22.4254V88.575Z" fill="black"/>
<path d="M25.5748 88.575H22.4248V91.725H25.5748V88.575Z" fill="black"/>
<path d="M31.8746 88.575H28.7246V91.725H31.8746V88.575Z" fill="black"/>
<path d="M38.1754 88.575H35.0254V91.725H38.1754V88.575Z" fill="black"/>
<path d="M44.4752 88.575H41.3252V91.725H44.4752V88.575Z" fill="black"/>
<path d="M47.6246 88.575H44.4746V91.725H47.6246V88.575Z" fill="black"/>
<path d="M53.9254 88.575H50.7754V91.725H53.9254V88.575Z" fill="black"/>
<path d="M57.0748 88.575H53.9248V91.725H57.0748V88.575Z" fill="black"/>
<path d="M66.525 88.575H63.375V91.725H66.525V88.575Z" fill="black"/>
<path d="M69.6754 88.575H66.5254V91.725H69.6754V88.575Z" fill="black"/>
<path d="M72.8248 88.575H69.6748V91.725H72.8248V88.575Z" fill="black"/>
<path d="M91.7252 88.575H88.5752V91.725H91.7252V88.575Z" fill="black"/>
<path d="M94.8746 88.575H91.7246V91.725H94.8746V88.575Z" fill="black"/>
<path d="M101.175 88.575H98.0254V91.725H101.175V88.575Z" fill="black"/>
<path d="M12.9752 91.725H9.8252V94.875H12.9752V91.725Z" fill="black"/>
<path d="M19.275 91.725H16.125V94.875H19.275V91.725Z" fill="black"/>
<path d="M22.4254 91.725H19.2754V94.875H22.4254V91.725Z" fill="black"/>
<path d="M25.5748 91.725H22.4248V94.875H25.5748V91.725Z" fill="black"/>
<path d="M31.8746 91.725H28.7246V94.875H31.8746V91.725Z" fill="black"/>
<path d="M38.1754 91.725H35.0254V94.875H38.1754V91.725Z" fill="black"/>
<path d="M41.3248 91.725H38.1748V94.875H41.3248V91.725Z" fill="black"/>
<path d="M50.775 91.725H47.625V94.875H50.775V91.725Z" fill="black"/>
<path d="M57.0748 91.725H53.9248V94.875H57.0748V91.725Z" fill="black"/>
<path d="M60.2252 91.725H57.0752V94.875H60.2252V91.725Z" fill="black"/>
<path d="M63.3746 91.725H60.2246V94.875H63.3746V91.725Z" fill="black"/>
<path d="M72.8248 91.725H69.6748V94.875H72.8248V91.725Z" fill="black"/>
<path d="M82.275 91.725H79.125V94.875H82.275V91.725Z" fill="black"/>
<path d="M85.4254 91.725H82.2754V94.875H85.4254V91.725Z" fill="black"/>
<path d="M88.5748 91.725H85.4248V94.875H88.5748V91.725Z" fill="black"/>
<path d="M91.7252 91.725H88.5752V94.875H91.7252V91.725Z" fill="black"/>
<path d="M94.8746 91.725H91.7246V94.875H94.8746V91.725Z" fill="black"/>
<path d="M98.025 91.725H94.875V94.875H98.025V91.725Z" fill="black"/>
<path d="M12.9752 94.875H9.8252V98.025H12.9752V94.875Z" fill="black"/>
<path d="M31.8746 94.875H28.7246V98.025H31.8746V94.875Z" fill="black"/>
<path d="M38.1754 94.875H35.0254V98.025H38.1754V94.875Z" fill="black"/>
<path d="M41.3248 94.875H38.1748V98.025H41.3248V94.875Z" fill="black"/>
<path d="M44.4752 94.875H41.3252V98.025H44.4752V94.875Z" fill="black"/>
<path d="M47.6246 94.875H44.4746V98.025H47.6246V94.875Z" fill="black"/>
<path d="M57.0748 94.875H53.9248V98.025H57.0748V94.875Z" fill="black"/>
<path d="M60.2252 94.875H57.0752V98.025H60.2252V94.875Z" fill="black"/>
<path d="M63.3746 94.875H60.2246V98.025H63.3746V94.875Z" fill="black"/>
<path d="M75.9752 94.875H72.8252V98.025H75.9752V94.875Z" fill="black"/>
<path d="M88.5748 94.875H85.4248V98.025H88.5748V94.875Z" fill="black"/>
<path d="M91.7252 94.875H88.5752V98.025H91.7252V94.875Z" fill="black"/>
<path d="M98.025 94.875H94.875V98.025H98.025V94.875Z" fill="black"/>
<path d="M12.9752 98.025H9.8252V101.175H12.9752V98.025Z" fill="black"/>
<path d="M16.1246 98.025H12.9746V101.175H16.1246V98.025Z" fill="black"/>
<path d="M19.275 98.025H16.125V101.175H19.275V98.025Z" fill="black"/>
<path d="M22.4254 98.025H19.2754V101.175H22.4254V98.025Z" fill="black"/>
<path d="M25.5748 98.025H22.4248V101.175H25.5748V98.025Z" fill="black"/>
<path d="M28.7252 98.025H25.5752V101.175H28.7252V98.025Z" fill="black"/>
<path d="M31.8746 98.025H28.7246V101.175H31.8746V98.025Z" fill="black"/>
<path d="M38.1754 98.025H35.0254V101.175H38.1754V98.025Z" fill="black"/>
<path d="M44.4752 98.025H41.3252V101.175H44.4752V98.025Z" fill="black"/>
<path d="M47.6246 98.025H44.4746V101.175H47.6246V98.025Z" fill="black"/>
<path d="M50.775 98.025H47.625V101.175H50.775V98.025Z" fill="black"/>
<path d="M57.0748 98.025H53.9248V101.175H57.0748V98.025Z" fill="black"/>
<path d="M63.3746 98.025H60.2246V101.175H63.3746V98.025Z" fill="black"/>
<path d="M66.525 98.025H63.375V101.175H66.525V98.025Z" fill="black"/>
<path d="M69.6754 98.025H66.5254V101.175H69.6754V98.025Z" fill="black"/>
<path d="M72.8248 98.025H69.6748V101.175H72.8248V98.025Z" fill="black"/>
<path d="M79.1246 98.025H75.9746V101.175H79.1246V98.025Z" fill="black"/>
<path d="M85.4254 98.025H82.2754V101.175H85.4254V98.025Z" fill="black"/>
<path d="M88.5748 98.025H85.4248V101.175H88.5748V98.025Z" fill="black"/>
<path d="M94.8746 98.025H91.7246V101.175H94.8746V98.025Z" fill="black"/>
</svg>
